<?xml version="1.0" encoding="UTF-8"?>
<svg id="Calque_2" data-name="Calque 2" xmlns="http://www.w3.org/2000/svg" viewBox="0 0 1200 500">
  <defs>
    <style>
      .cls-1 {
        fill: #f9f9f9;
      }
    </style>
  </defs>
  <g id="Layer_1" data-name="Layer 1">
    <path class="cls-1" d="m13.4,271.88c-4.57.48-9,1.26-13.4,2.34v-1.03c4.38-1.07,8.83-1.85,13.29-2.31,82.45-8.61,114.21-40.23,132.67-66.83,10.55-15.19,26.89-22.97,48.56-23.1,8.35-.06,16.8.84,24.97,1.7,12.1,1.28,24.61,2.6,36.79.81,20.9-3.06,43.47-2.74,71.03,1.02,10.18,1.39,18.28-.65,22.83-5.75,4.35-4.89,5.4-12.34,3.04-21.55-9.17-35.76-15.74-72.37-19.51-108.81-1.96-18.92-1.71-34.42.79-48.39h1.02c-2.52,13.92-2.77,29.38-.82,48.28,3.77,36.39,10.32,72.96,19.48,108.67,2.45,9.55,1.32,17.31-3.26,22.46-4.84,5.43-13.04,7.53-23.71,6.08-27.46-3.75-49.94-4.07-70.75-1.02-12.31,1.81-24.88.48-37.04-.81-8.14-.86-16.54-1.76-24.86-1.7-21.33.13-37.4,7.75-47.75,22.67-35.38,50.96-89.87,62.71-133.39,67.25ZM450.92,13.08c14.95,7.24,26.72,14.44,35.58,26.07,13.57,17.81,11.53,37.25,9.38,57.83-.14,1.31-.27,2.62-.41,3.93-4.02,39.69.07,53.9,34.91,71.6,9.32,4.74,18.31,9.51,25.76,15.73,18.42,15.4,37.47,31.33,33.95,60.76-1.48,12.4-7.7,22.02-13.7,31.31-1.52,2.35-3.09,4.79-4.57,7.24-8.56,14.18-11.07,28.16-7.27,40.44,3.79,12.22,13.71,22.28,28.69,29.09,4.41,2,8.65,3.01,12.53,3.01,3.53,0,6.75-.83,9.5-2.5,5.71-3.46,9.12-10.35,9.61-19.41.41-7.56.32-15.27.23-22.73-.04-3.82-.09-7.77-.07-11.65.12-20.84,12.79-33.64,33.9-34.26,21.4-.62,38.92-4.9,53.57-13.09,16.61-9.29,34.16-16.06,49.31-21.69,50.75-18.84,86.08-54.06,105-104.69,6.37-17.03,7.45-35.02,8.49-52.41.22-3.72.46-7.56.73-11.33,2.18-29.45-5.22-51.22-22.58-66.33h-1.53c17.73,14.93,25.3,36.66,23.1,66.26-.28,3.77-.51,7.62-.73,11.34-1.04,17.32-2.12,35.22-8.43,52.12-18.82,50.35-53.95,85.37-104.41,104.11-15.18,5.64-32.78,12.43-49.45,21.75-14.5,8.11-31.87,12.35-53.11,12.96-21.72.63-34.75,13.81-34.87,35.25-.02,3.89.02,7.84.07,11.67.09,7.44.18,15.13-.23,22.66-.47,8.72-3.72,15.33-9.13,18.61-5.49,3.33-12.99,3.13-21.1-.56-14.72-6.69-24.45-16.54-28.15-28.47-3.72-11.99-1.24-25.7,7.17-39.62,1.47-2.44,3.04-4.86,4.56-7.21,6.07-9.39,12.34-19.11,13.86-31.74,3.59-29.97-15.67-46.08-34.3-61.65-7.53-6.3-16.57-11.09-25.95-15.86-34.31-17.43-38.34-31.45-34.37-70.61.13-1.31.27-2.62.41-3.92,2.08-19.87,4.23-40.41-9.58-58.54-8.98-11.79-20.86-19.06-35.94-26.37-7.52-3.64-15.47-6.67-23.15-9.6-2.22-.84-4.46-1.7-6.71-2.58h-2.73c3.04,1.21,6.09,2.37,9.09,3.51,7.67,2.92,15.59,5.94,23.07,9.56Zm731.7,308.89c-18.85-12.39-38.34-25.2-60.1-33.78-12.68-5-20.25-15.31-21.88-29.81-1.71-15.23-3.84-34.19-18.27-45.81-16.28-13.11-33.12-21.72-51.46-26.32-20.45-5.13-41.39-4.97-61.64-4.82-6.97.05-14.18.1-21.25-.06-15.84-.36-26.39-9.25-29.69-25.02-7.71-36.82-6.51-74.57-5.34-111.08.3-9.54.62-19.4.77-29.1.08-5.33.14-10.8-.1-16.17h-.99c.24,5.35.17,10.82.09,16.15-.15,9.69-.46,19.55-.77,29.08-1.17,36.57-2.37,74.38,5.36,111.31,3.41,16.27,14.29,25.44,30.65,25.82,7.1.16,14.31.11,21.29.06,20.19-.15,41.07-.3,61.39,4.79,18.21,4.57,34.91,13.11,51.08,26.13,14.12,11.36,16.13,29.31,17.91,45.14,1.67,14.89,9.45,25.48,22.5,30.63,21.67,8.54,41.11,21.32,59.92,33.68l1.75,1.15c4.98,3.27,10.64,5.65,16.18,7.91v-1.08c-5.37-2.19-10.84-4.51-15.63-7.66l-1.75-1.15ZM130.62,202.8c20.12-29.37,49.41-40.88,89.55-35.16,26.9,3.83,55.6-.63,87.73-13.62,10.67-4.32,17.1-13.64,18.09-26.25,1.95-24.64-1.76-49.52-11.02-73.94-5.74-15.13-12.24-32.28-9.73-49.74.2-1.36.37-2.72.55-4.09h-1.01c-.17,1.32-.34,2.63-.53,3.94-2.54,17.72,4.01,35,9.78,50.24,9.2,24.28,12.89,49.02,10.96,73.51-.98,12.39-7.02,21.17-17.47,25.4-31.96,12.93-60.49,17.36-87.21,13.56-40.55-5.77-70.16,5.87-90.51,35.59-24.54,35.82-61.72,54.4-110.52,55.22-6.85.12-13.21.66-19.28,1.65v1.02c6.07-1,12.43-1.55,19.29-1.66,49.14-.83,86.59-19.56,111.33-55.66Zm877,242.93c-2.22-.04-4.45-.1-6.68-.17-6.95-.21-14.14-.42-21.13.29-39.44,3.99-47.58-21.54-50.34-47.04-2.79-25.89,1.3-52.42,12.52-81.11,2.46-6.28,4.14-12.81,5.66-18.97,2.17-8.81.81-16.51-3.84-21.68-4.91-5.46-13.06-7.73-22.94-6.38-9.19,1.25-18.14,3.91-26.79,6.48-5.86,1.74-11.92,3.53-17.97,4.87-26.67,5.89-47.1,3.16-64.29-8.61-7.17-4.91-11.13-10.03-12.1-15.67-1.05-6.09,1.41-13.12,7.51-21.49,6.12-8.41,12.79-16.69,19.24-24.7,18.25-22.66,37.12-46.1,46.13-75.31,11.03-35.76,10.41-72.34,8.36-103.4-.85-12.84-5.93-23.85-15.09-32.83h-1.45c9.45,8.94,14.69,19.98,15.54,32.9,2.05,30.97,2.66,67.44-8.32,103.04-8.95,29.03-27.76,52.39-45.95,74.98-6.46,8.02-13.13,16.31-19.27,24.73-6.27,8.6-8.78,15.88-7.68,22.25,1.02,5.91,5.11,11.25,12.52,16.32,17.43,11.93,38.11,14.71,65.07,8.76,6.09-1.35,12.17-3.15,18.04-4.89,8.62-2.56,17.53-5.2,26.64-6.44,9.54-1.3,17.38.85,22.06,6.06,4.42,4.91,5.7,12.29,3.61,20.77-1.51,6.12-3.19,12.62-5.62,18.84-11.28,28.84-15.39,55.53-12.58,81.58,2.81,25.99,11.09,52.02,51.43,47.93,6.92-.7,14.08-.49,21-.28,2.23.07,4.47.13,6.69.17,26.27.45,43.61,10.42,54.59,31.39,4.16,7.95,9.23,15.28,15.06,21.88h1.32c-6.02-6.71-11.23-14.2-15.49-22.34-11.17-21.33-28.79-31.48-55.46-31.93Zm-221.51,15.45c18.75-11.61,26.21-24.64,24.17-42.26-2.27-19.65-4.32-39.74-6.26-61.44-1.1-12.31-6.64-22.39-17.41-31.72-15.79-13.67-24.7-26.96-28.06-41.82-1.12-4.96-2.71-7.72-5.01-8.68-2.93-1.22-6.68.71-10.29,2.97-15.03,9.43-30.58,16.9-46.2,22.21-17.78,6.05-29.92,18.3-36.09,36.43l-.89,2.61c-3.17,9.35-6.44,19.02-11.16,27.99-8.28,15.75-21.89,22.75-40.44,20.8-15.59-1.64-29.92-6.25-41.89-10.54-11.7-4.19-25.79-7.95-41.58-4.03-13.25,3.29-26.4,7.38-39.08,12.15-20.52,7.71-54.64-3.36-63.74-26.79-2.73-7.04-5.79-14.08-8.76-20.9-5.13-11.81-10.44-24.01-14.2-36.58l-.21-.72c-2.4-8.01-4.88-16.3-4.07-24.95.88-9.35,4.3-15.99,9.91-19.2,5.62-3.22,13.11-2.81,21.65,1.18,12.05,5.63,23.35,12.65,34.54,21.45,15.66,12.32,43.74,16.13,56.69,7.69,12.23-7.96,24.02-18.75,36.04-32.97,9.82-11.61,10.38-29.13,1.41-43.6-9-14.5-22.67-23.48-44.32-29.12-18.2-4.74-27.4-14.01-28.12-28.34l-.19-3.77c-.91-17.73-1.86-36.06,1.52-54.01,6.12-32.55-3.61-54.68-28.91-65.78-21.27-9.33-38.68-13.08-56.43-12.18-20.21,1.03-39.71,17.16-44.4,36.71-8.83,36.78,5.36,67.94,18.7,90.98,8.24,14.23,13.65,29.51,16.53,46.72,2.04,12.22-2.02,24.09-11.75,34.34-6.81,7.17-14.11,4.27-21.84,1.21-1.94-.77-3.95-1.57-5.9-2.16-1.43-.44-2.76-1.14-4.16-1.89-.96-.51-1.94-1.03-2.96-1.46-5.4-2.27-10.84-4.8-16.1-7.26-17.98-8.38-36.54-17.07-57.44-16.93-17.38.1-36.28-1.19-57.75-3.95-23-2.95-39.81,2.22-54.51,16.77-4.06,4.02-7.91,8.38-11.63,12.59-8.49,9.62-17.28,19.56-29.14,26.1-23.95,13.19-51.14,22.43-88.18,29.94-1.55.31-3.09.62-4.64.93-7.78,1.56-15.77,3.17-23.53,5.28v1.03c7.81-2.13,15.87-3.75,23.72-5.32,1.55-.31,3.09-.62,4.64-.93,37.14-7.53,64.43-16.8,88.46-30.05,12.01-6.62,20.85-16.63,29.4-26.31,3.71-4.2,7.55-8.55,11.59-12.54,14.46-14.31,31.02-19.4,53.68-16.49,21.51,2.76,40.44,4.06,57.88,3.96.14,0,.28,0,.42,0,20.49,0,38.84,8.56,56.6,16.84,5.27,2.46,10.71,4.99,16.13,7.27.97.41,1.94.92,2.88,1.42,1.38.74,2.82,1.5,4.34,1.96,1.91.58,3.9,1.37,5.83,2.14,7.7,3.06,15.66,6.22,22.93-1.45,9.96-10.48,14.11-22.65,12.02-35.19-2.9-17.33-8.35-32.73-16.65-47.06-13.25-22.87-27.34-53.8-18.59-90.24,4.59-19.15,23.69-34.94,43.48-35.95,17.59-.9,34.85,2.83,55.98,12.1,24.82,10.88,34.35,32.65,28.33,64.68-3.39,18.06-2.45,36.45-1.53,54.24l.19,3.77c.73,14.61,10.45,24.46,28.87,29.26,21.38,5.57,34.87,14.42,43.72,28.68,8.75,14.09,8.21,31.14-1.32,42.42-11.96,14.15-23.67,24.87-35.82,32.78-12.65,8.24-40.15,4.45-55.52-7.64-11.25-8.85-22.61-15.91-34.73-21.57-8.85-4.13-16.65-4.53-22.57-1.14-5.9,3.38-9.5,10.29-10.4,19.98-.83,8.85,1.68,17.23,4.11,25.33l.21.72c3.78,12.63,9.1,24.86,14.24,36.7,2.96,6.81,6.02,13.85,8.74,20.86,9.28,23.92,44.09,35.23,65.02,27.37,12.65-4.75,25.76-8.83,38.97-12.11,15.54-3.86,29.45-.14,41,4,12.02,4.31,26.43,8.94,42.12,10.59,19,2,32.94-5.17,41.43-21.33,4.75-9.04,8.04-18.74,11.22-28.13l.89-2.61c6.06-17.82,18-29.87,35.46-35.81,15.7-5.34,31.32-12.85,46.41-22.31,4.57-2.86,7.37-3.73,9.38-2.9,1.98.82,3.38,3.36,4.42,7.97,3.4,15.08,12.42,28.54,28.38,42.36,10.56,9.15,15.99,19.01,17.07,31.05,1.95,21.7,4,41.81,6.27,61.46,1.99,17.19-5.32,29.92-23.7,41.3-4.76,2.95-9.65,5.88-14.38,8.71-15.62,9.36-31.76,19.04-46,30.96h1.6c13.95-11.51,29.67-20.97,44.91-30.1,4.73-2.84,9.62-5.77,14.39-8.72Zm367.92-102.53c-22.11-7.29-40.95-11.03-61.05-5.62-16.8,4.52-26.57,12.92-30.76,26.43-.56,1.8-1.09,3.6-1.63,5.41-1.57,5.28-3.18,10.74-5.35,15.84-5.88,13.88-14.7,21.63-26.96,23.68-13.25,2.22-27.42,3.14-44.59,2.89-24.65-.36-33.76-7.83-37.5-30.75-5.21-31.97,2.96-59.72,24.3-82.49,7.56-8.07,17.16-13.29,29.35-15.98,14-3.09,28.41-8.48,29.16-25.06.59-13.15-7.12-22.73-24.27-30.14-11.93-5.15-23.65-7.16-35.27-7.16-17.13,0-34.06,4.36-51.16,9.39-4.86,1.43-9.72,3.18-14.42,4.86-12.71,4.56-25.85,9.28-40.24,8.21-14.38-1.07-20.9-7.47-21.8-21.4-1.1-17.05,6.8-31.21,13.8-41.63,22.94-34.14,33.72-74.03,33.94-125.52.02-4.81.01-9.63,0-14.44v-6.7c0-23.44-3.01-37.64-10.54-48.47h-1.23c7.7,10.72,10.77,24.83,10.77,48.47v6.71c.01,4.81.02,9.63,0,14.44-.22,51.29-10.95,91-33.77,124.97-7.09,10.56-15.09,24.9-13.97,42.25.94,14.54,7.73,21.23,22.72,22.34,14.59,1.08,27.85-3.67,40.65-8.27,4.68-1.68,9.53-3.42,14.36-4.84,28.52-8.4,56.54-14.9,85.75-2.28,16.72,7.22,24.24,16.49,23.67,29.17-.71,15.86-14.06,20.97-28.37,24.13-12.4,2.73-22.17,8.06-29.87,16.28-21.56,23.01-29.83,51.05-24.56,83.33,3.79,23.25,13.5,31.22,38.48,31.59,1.83.03,3.63.04,5.4.04,14.85,0,27.47-.95,39.37-2.94,12.62-2.11,21.68-10.06,27.71-24.28,2.19-5.16,3.81-10.65,5.39-15.95.54-1.8,1.07-3.61,1.63-5.4,4.14-13.34,13.41-21.29,30.07-25.77,19.86-5.34,38.54-1.62,60.48,5.61,7.12,2.35,14.01,5.69,20.68,8.93,8.17,3.97,16.59,8.05,25.6,10.39v-1.03c-8.83-2.33-17.11-6.35-25.16-10.26-6.7-3.25-13.62-6.61-20.8-8.98Zm-256.46-237.78c.03-3,.07-6.04.12-9.12-.43,9.33-1.28,18.97-2.54,29.03,1.43-6.5,2.34-13.13,2.41-19.91Zm1.17-50.7c.02-5.4.17-10.83.59-16.27.16-4.07.33-8.24.51-12.5-2.46,14.58-2.2,29.29-1.94,43.54.05,2.99.11,5.98.14,8.97,0,.12,0,.24,0,.36.19-7.73.42-15.74.7-24.11Zm-2.4-66.85c1.35,4.5,2.57,9.23,3.41,14.07-.64-4.98-1.78-9.68-3.41-14.07Zm213.61,308.29c-7.95-2.01-14.5-5.36-20.63-10.52-10.87-9.16-12.23-21.5-13.54-33.44-.26-2.39-.54-4.87-.88-7.27-5.59-38.97-45.01-68.33-84.39-62.83-24.49,3.42-50.15,5.09-78.38,5.09-.56,0-1.12,0-1.68,0-5.98-.01-10.1-1.3-12.58-3.94-2.3-2.45-3.28-6.1-2.98-11.16.08-1.43.13-2.87.18-4.3.12-3.77.25-7.68,1.08-11.33,7.5-33.13,7.48-67.24,7.45-100.22-.01-17.14-.03-34.86,1.01-52.21.41-6.85-.13-13.37-1.58-19.45h-1.02c1.47,6.05,2.01,12.55,1.6,19.39-1.04,17.39-1.03,35.12-1.02,52.27.03,32.93.05,66.98-7.42,100-.85,3.75-.98,7.7-1.11,11.52-.05,1.43-.09,2.86-.18,4.28-.32,5.35.75,9.25,3.25,11.91,2.68,2.85,7.03,4.24,13.31,4.26,28.96.09,55.18-1.6,80.21-5.1,38.83-5.42,77.75,23.54,83.26,61.98.34,2.39.61,4.85.88,7.24,1.34,12.13,2.72,24.68,13.89,34.1,6.25,5.27,12.93,8.68,21.03,10.73,24.94,6.31,50.21,16.34,79.53,31.55,3.41,1.77,7.09,3.11,10.75,4.34v-1.05c-3.51-1.19-7.04-2.48-10.29-4.17-29.39-15.25-54.73-25.3-79.74-31.63Zm71.05,42.06c-24.93-12.49-53.12-20.2-88.71-24.25-4.1-.47-8.45-1.38-14.11-2.96-13.6-3.81-21.6-14.23-21.94-28.59-.07-3.06-.01-6.2.05-9.24.13-6.57.26-13.36-.94-19.82-6.9-37.15-21.41-49.48-62.12-52.75-5.09-.41-10.19-.61-15.31-.61-25.83,0-51.97,5.21-77.9,15.54-3.67,1.46-6.95,2.41-10.03,2.91-9.44,1.52-16.58-.15-20.66-4.81-4.03-4.6-4.74-11.77-2.05-20.74,4.09-13.62,8.47-25.78,13.4-37.18,10.78-24.97,15.37-48.96,14.04-73.34-.61-11.07.37-22.24,1.31-33.03.75-8.55,1.52-17.39,1.5-26.14-.03-16.77-2.21-28.92-6.98-38.65h-1.12c4.85,9.66,7.07,21.79,7.1,38.65.02,8.71-.75,17.52-1.49,26.05-.94,10.83-1.92,22.03-1.31,33.17,1.33,24.23-3.24,48.07-13.96,72.89-4.94,11.43-9.33,23.63-13.43,37.29-2.8,9.31-2.02,16.81,2.25,21.69,4.32,4.94,11.79,6.71,21.57,5.14,3.16-.51,6.5-1.48,10.24-2.97,30.92-12.32,62.13-17.33,92.76-14.86,40.13,3.23,54.43,15.36,61.22,51.94,1.18,6.36,1.05,13.1.92,19.62-.06,3.05-.12,6.2-.05,9.28.35,14.61,8.82,25.65,22.67,29.53,5.71,1.6,10.11,2.52,14.26,3,35.47,4.04,63.55,11.71,88.37,24.15l.98.49c5.9,2.96,11.98,5.98,18.44,7.88v-1.03c-6.28-1.89-12.22-4.85-18-7.74l-.98-.49Zm-267.71,37.52c.16-22.08.66-43.7,4.84-65.5,1.78-9.29.05-16.75-4.88-21.01-5.12-4.42-13.09-5.06-22.47-1.79-7.06,2.46-14.16,5.18-21.03,7.81-5.66,2.17-11.52,4.41-17.32,6.49-12.37,4.45-16.89,14.32-19.67,23.4-7.94,25.87-7.41,53.1,1.73,88.29,4.05,15.58-2.47,28.46-17.01,33.61-18.77,6.65-35.96,16.7-52.59,26.42-5.74,3.36-11.68,6.83-17.59,10.11-.58.32-1.16.65-1.73.99h2.02c.07-.04.13-.08.19-.11,5.93-3.29,11.87-6.76,17.61-10.12,16.58-9.7,33.73-19.72,52.42-26.34,15.07-5.34,21.83-18.68,17.64-34.81-9.09-35-9.63-62.06-1.75-87.74,2.71-8.84,7.1-18.46,19.05-22.75,5.81-2.09,11.67-4.33,17.34-6.5,6.86-2.62,13.96-5.34,21-7.8,9.02-3.14,16.65-2.58,21.49,1.6,4.65,4.02,6.26,11.14,4.55,20.06-4.2,21.88-4.7,43.55-4.86,65.68-.16,21.21,2.8,41.62,6.39,64.18,2.59,16.32,2.21,16.9-13.79,20.77-2.66.64-5.43.99-8.1,1.33-6.54.82-13.3,1.67-19.36,6.88-4.81,4.13-7.97,9.2-9.8,15.67h1.01c1.77-6.19,4.78-10.91,9.44-14.91,5.83-5.01,12.14-5.8,18.83-6.64,2.7-.34,5.49-.69,8.21-1.35,16.95-4.1,17.16-5.44,14.54-21.9-3.58-22.52-6.53-42.88-6.38-64.02Zm80.08,71.15c-10.63,1.34-21.24,4.16-31.49,6.88-6.1,1.62-12.41,3.3-18.65,4.64-5.53,1.19-9,3.25-10.59,6.29-1.7,3.23-1.32,7.58,1.2,13.69l1.18,2.86c.45,1.1.91,2.2,1.36,3.3h1.08c-.51-1.23-1.01-2.46-1.52-3.69l-1.18-2.85c-2.4-5.81-2.79-9.89-1.24-12.84,1.45-2.76,4.7-4.65,9.92-5.78,6.27-1.35,12.59-3.03,18.7-4.65,10.22-2.72,20.8-5.52,31.36-6.86,19.92-2.52,37.52,4.9,48.28,20.35,3.97,5.7,8.32,11.17,12.96,16.33h1.34c-4.83-5.32-9.35-10.99-13.47-16.9-10.98-15.76-28.92-23.33-49.22-20.77Zm-207.02-54.3l-.24-1.95c-1.62-13.15-3.29-26.74-8.18-39.36-6.23-16.07-23.8-29.2-42.73-31.92-15.38-2.21-28.57,2.72-37.15,13.88-8.41,10.94-11.08,22.19-13.27,33.7-3.61,18.95-9.4,24.73-29.5,29.42-10.93,2.55-21.63.88-31.99-.73-3.1-.48-6.3-.98-9.46-1.36-9.21-1.1-18.51-2.92-27.49-4.68-7.54-1.48-15.35-3-23.08-4.1-25.39-3.61-47.37,6.1-69.51,17.25-18.75,9.44-41.92,9.03-61.98-1.11-18.12-9.15-30.24-24.56-33.26-42.28-4.58-26.86-13.34-51.24-23.48-78.04-9.01-23.82-25.85-39.38-42.71-52.64-35.98-28.3-79.48-31.62-121.56-34.83-4.24-.32-8.48-.65-12.71-.99-12.56-1.03-25.22,5.35-34.71,17.52-19.86,25.47-47.22,41.95-86.12,51.87-4.81,1.23-9.69,2.61-14.4,3.94-10.73,3.03-21.82,6.17-32.93,7.73-10.32,1.45-20.35,4.09-29.92,7.8v1.06c9.61-3.75,19.68-6.41,30.06-7.87,11.17-1.57,22.3-4.72,33.06-7.76,4.71-1.33,9.57-2.71,14.37-3.93,39.12-9.98,66.66-26.57,86.66-52.22,9.28-11.89,21.61-18.14,33.84-17.13,4.23.35,8.47.67,12.71,1,41.92,3.2,85.27,6.51,121.01,34.62,16.75,13.17,33.47,28.61,42.39,52.21,10.12,26.76,18.87,51.08,23.43,77.86,3.08,18.04,15.39,33.71,33.8,43.01,20.35,10.28,43.86,10.69,62.88,1.11,21.99-11.08,43.81-20.72,68.92-17.16,7.71,1.1,15.5,2.62,23.03,4.09,9,1.76,18.32,3.59,27.57,4.69,3.14.38,6.34.87,9.43,1.35,10.45,1.62,21.25,3.3,32.37.71,20.61-4.81,26.55-10.74,30.25-30.21,2.17-11.39,4.8-22.51,13.08-33.28,8.35-10.86,21.21-15.66,36.21-13.5,18.59,2.67,35.83,15.54,41.94,31.3,4.84,12.5,6.51,26.03,8.12,39.12l.24,1.95c2.6,20.99-6.83,37.52-26.54,46.56-23.12,10.6-41.09,25.45-54.8,45.28h1.24c13.55-19.39,31.25-33.95,53.98-44.37,20.14-9.24,29.77-26.14,27.11-47.6ZM42.81,300.53c-3.95.86-7.92,1.73-11.9,2.65,10.49-2.13,21-4.48,31.41-6.91-4.51.96-8.93,1.93-13.22,2.88-2.09.46-4.19.92-6.29,1.38Zm509.27,132.47c-10.51,1.08-19.94,5.6-27.29,13.05-20.85,21.17-45.79,28.43-74.14,21.6-8.68-2.1-17.38-.85-25.78.35-4.91.7-10,1.43-15,1.47-19.25.16-20.64-1.72-27.42-18.98-10.25-26.08-15.45-55.11-16.36-91.34-.56-22.3-11.13-47.92-28.27-68.53-19.18-23.05-44.28-37.41-70.68-40.41-5.97-.68-12.04-1.47-17.9-2.23-7.82-1.01-15.9-2.06-23.87-2.87-16.55-1.68-27.43,8.36-37.94,18.06-1.37,1.27-2.74,2.53-4.11,3.75-18.96,16.97-42.98,26.1-73.41,27.93-36.39,2.18-72.38,9.66-109.91,22.82v1.06c37.56-13.2,73.57-20.71,109.97-22.88,30.67-1.83,54.88-11.05,74.02-28.18,1.38-1.23,2.75-2.49,4.12-3.76,10.36-9.55,21.06-19.43,37.17-17.8,7.96.81,16.04,1.86,23.84,2.87,5.87.76,11.94,1.55,17.92,2.23,26.14,2.97,51,17.2,70.02,40.05,17.01,20.44,27.49,45.83,28.04,67.91.91,36.36,6.13,65.49,16.42,91.68,6.9,17.56,8.91,19.76,28.36,19.62,5.07-.04,10.19-.78,15.13-1.49,8.31-1.19,16.9-2.42,25.4-.37,28.72,6.92,53.98-.43,75.09-21.87,7.18-7.29,16.4-11.7,26.67-12.76,44.82-4.61,80.13,10.89,104.94,46.1,4.58,6.5,7.37,12.92,8.64,19.9h1.02c-1.28-7.19-4.14-13.79-8.84-20.47-25.04-35.53-60.66-51.19-105.86-46.52Zm93.8,3.56c-16.58-7.01-33.97-12.45-51.66-16.18-28.51-6-58.39-8.36-83.81,14.85-15.25,13.93-34.01,18.22-57.34,13.1-46.51-10.21-66.64-22.23-70.92-70.31-2.89-32.53-10.63-58.82-24.35-82.76-14.41-25.13-35.59-43.33-62.96-54.12-24.88-9.8-51.3-13.72-78.44-17.19-20.01-2.56-36.22,4.86-48.18,22.06-8.52,12.25-19.88,20.97-33.77,25.91-30.32,10.78-62.12,17.62-89.23,22.89-17.21,3.34-32.09,7.72-45.23,13.3v1.08c13.18-5.63,28.11-10.04,45.42-13.4,27.15-5.28,58.99-12.13,89.37-22.93,14.09-5.01,25.61-13.85,34.25-26.28,11.73-16.86,27.62-24.15,47.23-21.64,27.07,3.46,53.43,7.38,78.2,17.13,27.15,10.7,48.17,28.76,62.46,53.68,13.65,23.8,21.35,49.97,24.23,82.35,2.12,23.86,8.21,39.19,19.73,49.73,10.29,9.41,25.34,15.62,51.97,21.47,23.67,5.2,42.71.83,58.23-13.34,25.08-22.91,54.68-20.56,82.93-14.61,17.64,3.71,34.96,9.14,51.48,16.12,16.5,6.97,27.84,20.56,36.75,32.93,5.79,8.04,4.29,19.28,2.47,29.58h1.01c1.83-10.45,3.32-21.84-2.68-30.16-8.99-12.48-20.44-26.2-37.17-33.27ZM26.67,327.21c-3.68.87-7.27,1.94-10.79,3.23,3.52-1.1,7.12-2.18,10.79-3.23Zm272.4-47.33c-24.2-12.65-51.61-12.47-79.26.52l-3.65,1.71c-11.72,5.51-23.84,11.21-35.86,16.59-17.89,8.01-39.1,15.96-60.8,14.18-18.86-1.54-38.96-2.76-59.08.76-20.31,3.55-41.23,7.25-60.41,16.92v1.11c19.18-9.78,40.19-13.48,60.58-17.04,20-3.5,40.03-2.29,58.83-.75,21.93,1.8,43.29-6.2,61.29-14.26,12.03-5.39,24.15-11.09,35.88-16.6l3.65-1.71c27.36-12.85,54.46-13.04,78.38-.54,30.28,15.83,48.74,42.8,51.99,75.96,2.08,21.23,2.13,44.25.16,72.43-1.21,17.35-10.6,32.65-27.92,45.48-10.3,7.63-17.49,15.96-21.88,25.37h1.12c4.33-9.08,11.36-17.16,21.36-24.56,17.32-12.83,27.11-28.8,28.33-46.21,1.97-28.24,1.92-51.31-.17-72.6-3.28-33.5-21.93-60.76-52.52-76.75Zm39.36,119.56c.13-2.01.26-4.03.4-6.04,1.51-22.42,3.07-45.6-9.35-66.36-20.58-34.38-52.25-45.26-94.14-32.36-12.44,3.83-24.58,9-36.32,14-11.72,4.99-23.84,10.16-36.26,13.99-20.64,6.37-41.18,5.22-63.98,3.22-40.71-3.58-72.36,2.14-98.78,17.94v1.17c26.34-15.92,57.94-21.7,98.69-18.12,22.9,2.01,43.55,3.16,64.36-3.26,12.47-3.85,24.62-9.02,36.36-14.02,11.71-4.99,23.83-10.15,36.22-13.97,41.39-12.75,72.68-2.01,92.99,31.92,12.26,20.49,10.71,43.51,9.21,65.78-.14,2.02-.27,4.04-.4,6.05-1.7,27.27-9.99,44.9-26.86,57.19-5.87,4.27-12.07,8.93-18.96,14.26-11.04,8.53-17.57,18.12-19.88,29.18h1.01c2.3-10.73,8.71-20.06,19.48-28.39,6.88-5.32,13.08-9.98,18.94-14.24,17.14-12.47,25.55-30.34,27.27-57.93Zm821.71-119.97c-5.18-3.69-10.53-7.5-15.67-11.41-8.07-6.13-16.87-13.67-19.1-25.6-2.64-14.14-8.99-25.66-19.42-35.21-8.41-7.7-19.35-14.06-34.44-20.02-29.32-11.58-60.93-18.03-93.96-19.19-30.67-1.07-43.07-11.27-51.04-41.96-6.79-26.11-5.57-52.9-4.39-78.81.27-5.87.54-11.95.72-17.93.24-7.87,1.11-15.86,1.96-23.6.21-1.91.41-3.83.61-5.74h-1.01c-.2,1.88-.39,3.76-.59,5.63-.85,7.75-1.72,15.77-1.96,23.68-.18,5.98-.46,12.05-.72,17.92-1.18,25.98-2.41,52.85,4.42,79.11,8.12,31.24,20.75,41.62,51.98,42.71,32.91,1.15,64.41,7.59,93.62,19.12,21.65,8.55,47.27,22.47,53.24,54.48,2.29,12.27,11.25,19.96,19.48,26.21,5.16,3.92,10.51,7.73,15.69,11.43,13.75,9.8,27.96,19.93,39.67,32.8.23.26.5.48.77.7v-1.34s-.02-.02-.03-.03c-11.78-12.94-26.04-23.11-39.83-32.94Zm-589.43,170.23c-16.03-.27-29.99,5.3-39.34,15.64-17.52,19.38-38.91,28.11-61.88,25.21-18.8-2.36-37.28.64-57.5,9.44h2.57c19.2-8,36.87-10.7,54.81-8.45,23.31,2.93,45.01-5.9,62.75-25.54,9.15-10.13,22.86-15.59,38.58-15.31,19.01.31,37.98,8.95,49.49,22.56,7.44,8.79,13.12,17.76,16.94,26.74h1.08c-3.86-9.2-9.64-18.39-17.26-27.39-11.7-13.82-30.95-22.6-50.24-22.91Zm10.77,22.48c-10.37-5.3-21.21-3.96-31.34,3.89-3.77,2.92-7.38,6.21-10.87,9.4-5.76,5.25-11.65,10.62-18.5,14.53h1.94c6.32-3.86,11.84-8.88,17.23-13.79,3.48-3.17,7.07-6.45,10.81-9.35,9.81-7.59,20.27-8.9,30.28-3.79,11.28,5.77,16.7,13.8,17.03,25.27.02.56.02,1.11,0,1.66h1c0-.56,0-1.12,0-1.68-.35-11.87-5.94-20.17-17.58-26.13Zm417,27.82h2.76c.64-.1,1.29-.09,1.96,0h3.67c-2.91-1.13-5.74-1.71-8.39,0Zm-5.41-3.46c-1.03,1.1-2.05,2.24-2.95,3.46h1.26c.76-.96,1.59-1.89,2.42-2.78,3.89-4.14,8.38-4.79,13.72-1.99,3.05,1.6,5.8,3.1,8.29,4.77h1.76c-2.83-2.04-6.01-3.78-9.59-5.65-5.79-3.04-10.67-2.32-14.92,2.19Zm-187.33-7.37c-11.96,2.46-23.25,6.1-33.71,10.84h2.44c9.82-4.26,20.36-7.57,31.48-9.86,9.95-2.04,18.58,1.53,24.37,9.86h1.21c-6.01-9.09-15.18-13.01-25.78-10.84Zm327.77-296.53c-23.34-12.48-49.36-17.96-74.52-23.26-5.76-1.21-11.72-2.47-17.55-3.79-9.82-2.22-19.85-4.3-29.55-6.3-11.43-2.36-23.25-4.81-34.8-7.51-25.02-5.85-43.52-31.48-44.99-62.33-1.66-34.82.33-63.36,6.25-89.44h-1.02c-5.9,26.11-7.89,54.67-6.23,89.49,1.49,31.29,20.31,57.3,45.76,63.25,11.57,2.7,23.39,5.15,34.83,7.52,9.69,2,19.72,4.08,29.53,6.3,5.83,1.32,11.8,2.58,17.57,3.79,25.1,5.28,51.05,10.75,74.26,23.16,15.43,8.25,32.39,17.32,51.13,17.32,5.14,0,10.42-.71,15.84-2.28v-1.02c-24.8,7.38-45.98-3.93-66.5-14.9Zm-2.88-27.56c-.99,0-1.99.01-2.98.03-46.18.94-92.66-6.81-138.24-23.04-30.39-10.82-46.59-33.44-46.87-65.41-.02-1.98-.04-3.96-.06-5.95-.26-23.39-.52-47.58,7.67-70.69h-1.05c-8.13,23.18-7.88,47.34-7.62,70.71.02,1.98.04,3.96.06,5.94.28,32.43,16.71,55.37,47.53,66.35,45.69,16.27,92.32,24.03,138.59,23.1,24.39-.51,47.64,5.27,70.16,10.85.73.18,1.46.36,2.19.54v-1.03c-.65-.16-1.3-.32-1.95-.48-21.67-5.37-44.04-10.91-67.44-10.91Zm7.89-16.99c-56.35,9.22-101.68,4.27-142.63-15.57-22.22-10.76-35.61-26.71-39.8-47.4-3.04-14.99-4.01-29.5-2.88-43.12,1.29-15.51,4.72-29.61,10.19-41.99h-1.1c-5.42,12.38-8.81,26.45-10.09,41.9-1.14,13.71-.16,28.32,2.89,43.4,4.26,21.01,17.84,37.2,40.35,48.1,41.15,19.93,86.66,24.91,143.23,15.66,14.51-2.37,28.88-1.24,42.7,3.38,6.18,2.06,12.51,4.03,18.64,5.93v-1.05c-6.04-1.87-12.25-3.81-18.32-5.83-13.98-4.67-28.5-5.82-43.18-3.42Zm-15.36-12.69c-4.6.62-9.37,1.26-14.06,1.83-27.22,3.29-53.78,5.53-79.49-2.98-19.38-6.42-34.33-16.09-44.42-28.76-11.56-14.51-17.21-33.47-16.78-56.36.35-18.84,4.56-35.34,12.51-49.12h-1.14c-7.86,13.83-12.02,30.31-12.37,49.1-.43,23.13,5.29,42.31,17,57,10.22,12.82,25.32,22.61,44.89,29.09,13.38,4.43,26.96,5.97,40.74,5.97,12.9,0,25.96-1.35,39.18-2.95,4.7-.57,9.46-1.21,14.07-1.83,25.22-3.4,51.25-6.89,76.73.56v-1.05c-25.58-7.41-51.63-3.91-76.86-.51Zm47-17.69c-3.86.67-7.85,1.37-11.77,1.85-10.48,1.29-21.09,3.18-31.35,5-22.07,3.92-44.89,7.98-67.76,6.35-27.42-1.96-49.16-12.73-62.87-31.16-14.2-19.09-18.58-44.93-12.34-72.75,2.01-8.96,6.79-18.22,13.87-26.98h-1.29c-6.91,8.7-11.57,17.87-13.57,26.76-6.3,28.11-1.86,54.24,12.52,73.57,13.89,18.67,35.88,29.59,63.6,31.56,22.98,1.64,45.87-2.43,68.01-6.36,10.24-1.82,20.84-3.7,31.29-4.99,3.94-.49,7.95-1.18,11.82-1.86,9.71-1.69,19.72-3.43,29.69-2.01v-1c-10.07-1.4-20.11.33-29.86,2.03Zm27.1-116.47c-.53-.41-1.08-.82-1.64-1.22h-2.4c.38.23.77.45,1.15.68l.48.29c.61.37,1.24.74,1.86,1.09,1.21.95,2.29,1.93,3.32,2.93v-2.4c-.93-.38-1.85-.85-2.76-1.36Zm-11.61-1.22c5.32,3.52,10.07,7.27,14.36,11.35v-1.38c-3.81-3.54-7.97-6.85-12.56-9.96h-1.8Zm-11.52,447.41c-17.87-3.7-34.67,1.13-51.36,14.75-4.29,3.51-6.77,7.82-7.15,12.48-.43,5.25,1.71,10.72,6.21,15.83,3.21,3.65,6.44,6.8,9.75,9.52h1.6c-3.6-2.86-7.11-6.22-10.6-10.18-4.31-4.9-6.38-10.12-5.96-15.09.36-4.38,2.71-8.46,6.79-11.79,16.67-13.61,32.72-18.23,50.52-14.55,6.37,1.32,12.12,4.26,17.69,7.1,2.73,1.39,5.52,2.8,8.4,4.04v-1.09c-2.71-1.19-5.35-2.52-7.94-3.85-5.63-2.88-11.45-5.85-17.95-7.19Zm-27.87-17.61c-7.61,2.11-15.37,4.16-22.88,6.15-5.05,1.34-10.09,2.67-15.13,4.04-9.06,2.45-15.87,7.61-19.18,14.53-3.31,6.93-3.07,15.08.69,23.59,3.69,8.35,8.51,15.67,14.33,21.89h1.35c-6.02-6.28-10.98-13.74-14.76-22.29-3.64-8.23-3.88-16.1-.7-22.76,3.18-6.66,9.76-11.63,18.54-14,5.04-1.36,10.08-2.7,15.13-4.04,7.51-1.99,15.28-4.05,22.89-6.16,18.14-5.03,35.69-3.19,53.49,5.61v-1.1c-17.88-8.72-35.52-10.52-53.76-5.47Zm-677.76-93.9l.03.09v.1c-.32,2.62-1.01,4.23-2.19,5.06-.56.4-1.23.6-1.99.6-.37,0-.77-.05-1.18-.14-7.65-1.77-11.89-5.61-12.97-11.73-.28-1.58.16-3.06,1.14-3.87.84-.7,1.97-.83,3.17-.38.8.3,1.62.59,2.44.87,4.88,1.69,9.92,3.44,11.56,9.4Zm-.99.17c-1.53-5.38-6.08-6.96-10.9-8.63-.83-.29-1.66-.58-2.47-.88-.35-.13-.69-.2-1-.2-.45,0-.84.14-1.17.41-.7.58-1,1.7-.79,2.93,1.02,5.76,4.9,9.24,12.21,10.93.99.23,1.76.13,2.37-.3.9-.64,1.47-2.03,1.75-4.26Zm43.1-246.72c-5.97,33.57,7.25,58.36,41.6,78.03,24.82,14.21,53.74,31.85,80.08,55.03,13.76,12.1,29.66,18.44,45.79,18.44,4.12,0,8.26-.41,12.37-1.25,30.52-6.2,62.7-14.15,91.26-30.17,35.6-19.97,58.27-41.11,71.33-66.55,12.21-23.78,16.86-52.43,15.05-92.91-.97-21.8-10.91-38.59-29.5-49.97h-1.91c19.19,11.21,29.43,28.03,30.41,50.02,1.79,40.29-2.81,68.79-14.94,92.41-12.97,25.25-35.51,46.27-70.93,66.13-28.44,15.95-60.53,23.88-90.97,30.06-19.92,4.05-40.27-1.98-57.3-16.96-26.41-23.23-55.39-40.91-80.24-55.15-33.94-19.43-47-43.89-41.11-77.03,3.88-40.19-12.64-69.46-50.51-89.49h-2.1c.55.31,1.09.6,1.62.88,37.47,19.82,53.82,48.77,49.99,88.47ZM24.64,248.27c46.18-1.21,81.04-22.15,103.63-62.25,9.3-16.5,23.49-26.46,43.4-30.46,9.94-2,20.03-2.04,29.78-2.08,4.87-.02,9.9-.04,14.83-.3,1.72.02,3.43.04,5.15.07,20.85.31,42.4.62,62.35-9.35,25.24-12.62,33.09-29.34,27.08-57.71-2.23-10.54-6.63-20.47-10.89-30.06-5.21-11.73-10.59-23.87-11.96-37.13-.64-6.22-1.49-12.6-2.51-19.01h-1.01c1.03,6.44,1.88,12.86,2.53,19.11,1.38,13.42,6.8,25.62,12.04,37.43,4.24,9.55,8.62,19.42,10.83,29.86,5.96,28.2-1.48,44.07-26.55,56.61-19.73,9.87-41.16,9.55-61.89,9.25-1.72-.02-3.43-.05-5.18-.07-4.93.26-9.95.28-14.81.3-9.8.04-19.94.08-29.97,2.1-20.21,4.06-34.62,14.18-44.07,30.95-22.4,39.77-56.99,60.54-102.78,61.74-9.7.25-17.79-.48-24.61-2.22v1.03c5.97,1.5,12.86,2.24,20.93,2.24,1.21,0,2.44-.02,3.7-.05Zm-3.67-216.09C40.25,23.37,58.75,12.47,76.65,1.94c1.1-.65,2.2-1.29,3.29-1.94h-1.97c-.61.36-1.22.72-1.83,1.07-17.87,10.52-36.36,21.4-55.59,30.2-3.08,1.41-6.19,4.1-8.12,7.03-3.61,5.48-7.73,10.53-12.43,15.3v1.44c5.05-5.03,9.43-10.37,13.27-16.18,1.84-2.78,4.79-5.34,7.7-6.67Zm1082.72,371.2c-2.32-2.51-3.39-5.61-3.09-8.96.42-4.66,3.65-9.73,8.66-13.55,5.4-4.12,11.83-6.01,17.22-5.04.93.17,1.89.33,2.88.49,10.29,1.73,23.09,3.87,23.25,15.58.14,9.88-9.84,12.81-18.65,15.39-2.39.7-4.65,1.37-6.71,2.15-.63.24-1.31.31-2,.31-.58,0-1.16-.05-1.74-.1-.68-.06-1.37-.09-2.02-.1-7.7,0-14.17-2.24-17.8-6.17Zm.73-.68c3.5,3.79,9.9,5.93,17.43,5.85h0c.57,0,1.17.05,1.74.1,1.21.11,2.36.21,3.29-.15,2.1-.79,4.38-1.46,6.79-2.17,8.88-2.61,18.06-5.3,17.93-14.42-.15-10.87-12.5-12.95-22.42-14.61-.99-.17-1.96-.33-2.88-.49-5.12-.91-11.26.9-16.44,4.85-4.79,3.66-7.88,8.46-8.27,12.85-.27,3.06.7,5.89,2.83,8.19ZM401.87,145.39c-12.52-13.7-25.47-27.86-29.87-47.99-3.54-16.18,1.28-32.56,12.9-43.81,11.33-10.96,27.39-15.15,42.98-11.21,13.4,3.39,22.59,7.88,28.92,14.13,7.69,7.59,10.98,17.7,10.06,30.91-1.01,26.1-2.9,42.57-6.73,58.73-2.7,11.38-10.99,20.25-21.11,22.59-1.77.41-3.52.61-5.26.61-7.4,0-14.41-3.67-20.16-10.67-3.75-4.57-7.8-9.01-11.73-13.3Zm-28.89-48.2c4.35,19.86,17.2,33.92,29.63,47.52,3.93,4.3,8,8.75,11.76,13.34,6.83,8.33,15.51,11.78,24.41,9.72,9.76-2.26,17.75-10.83,20.37-21.84,3.82-16.1,5.7-32.52,6.71-58.55v-.02c2.08-29.74-18.16-38.93-38.22-44.01-3.77-.96-7.58-1.42-11.34-1.42-11.41,0-22.37,4.32-30.7,12.38-11.37,11-16.08,27.03-12.62,42.88Zm659.16,254.38c-.2,2.91-.39,5.67.26,8.04l.02.13c0,30.53-8.76,44.62-31.25,50.24-4.42,1.1-8.59,1.65-12.46,1.65-6.84,0-12.75-1.72-17.42-5.12-6.98-5.08-11.09-13.88-11.88-25.46-1.46-21.43,4.16-37.14,17.19-48.03,15.61-13.04,39.73-12.28,51.62,1.63,4.71,5.5,4.29,11.56,3.92,16.91Zm-.72,8.24c-.67-2.52-.48-5.33-.28-8.31.37-5.41.75-11-3.69-16.19-6.02-7.04-15.27-10.61-24.91-10.61-8.85,0-18.03,3.01-25.31,9.09-12.76,10.67-18.26,26.1-16.83,47.19.77,11.27,4.73,19.82,11.46,24.72,7.07,5.14,17.11,6.28,29.05,3.3,21.93-5.48,30.48-19.28,30.5-49.2Zm-708.97,37.75c.22-1.72.44-3.45.65-5.17.48-3.86.98-7.85,1.55-11.77,3.13-21.62-4.38-43.81-19.59-57.9-13.84-12.82-32.27-17.46-51.89-13.08-15.83,3.54-32.04,8.91-52.57,17.42-2.31.96-4.61,1.93-6.91,2.9-20.63,8.7-41.97,17.68-66.13,15.63-4.97-.42-9.99-1.06-14.84-1.68-12-1.52-23.33-2.96-33.31-1.3-3.07,0-5.76.04-8.21.07-4.67.06-8.36.11-12.08-.11-19.97-1.18-40.68,5.28-59.11,18.25v1.22c18.39-13.11,39.09-19.64,59.05-18.47,3.75.22,7.46.17,12.15.11,2.44-.03,5.13-.07,8.27-.07,9.91-1.64,21.18-.21,33.11,1.3,4.86.62,9.89,1.26,14.88,1.68,24.41,2.08,45.86-6.96,66.6-15.7,2.3-.97,4.6-1.94,6.91-2.9,20.48-8.49,36.64-13.85,52.41-17.37,19.29-4.32,37.4.25,50.99,12.84,14.98,13.87,22.36,35.72,19.28,57.03-.57,3.92-1.07,7.92-1.55,11.79-.22,1.72-.43,3.45-.65,5.17-3.66,28.44-24.04,45.04-42.85,58.36-15.89,11.26-26.06,24.91-31.09,41.75-.24.8-.47,1.62-.7,2.45h1.04c.2-.73.41-1.46.62-2.17,4.96-16.62,15.01-30.1,30.71-41.22,18.98-13.45,39.55-30.21,43.27-59.05ZM1168.84,0h-1.83c12.78,8.09,23.11,18.21,31.47,30.8.53.8,1.03,1.6,1.52,2.41v-1.88c-.23-.36-.45-.72-.69-1.08-8.15-12.28-18.18-22.23-30.47-30.25Zm6.51,101.31c-7.56,2.76-16.11,5.02-25.39,6.7-5.77,1.05-11.62,2.18-17.29,3.27-21.44,4.14-43.61,8.42-65.79,9.07-32.74.98-55.04-15.4-66.29-48.62-8.36-24.7-.37-53.5,19.41-71.73h-1.44c-19.49,18.52-27.28,47.31-18.91,72.05,5.59,16.53,14.08,29.1,25.23,37.37,10.71,7.95,23.95,11.97,39.36,11.97.88,0,1.77-.01,2.67-.04,22.27-.65,44.47-4.94,65.95-9.09,5.66-1.09,11.52-2.22,17.28-3.27,9.34-1.69,17.94-3.96,25.56-6.74,10.19-3.72,18.55-9.68,24.3-17.17v-1.67c-5.65,7.84-14.16,14.07-24.65,17.9ZM503.03,21.94c14.61,21.26,18.44,46.08,20.41,69.73,1.73,20.78,4.44,39.09,20.23,52.79,11.46,9.94,24.74,18.79,40.61,27.06,5.7,2.97,11.54,5.88,17.2,8.7,18.68,9.31,38.01,18.94,55.01,32.12,9.92,7.68,21.7,11.89,32.94,11.89,1.55,0,3.09-.08,4.61-.24,40.2-4.27,71.5-14.3,98.49-31.58,23.52-15.05,41.4-32.33,53.15-51.37,12.46-20.2,18.02-42.39,16.51-65.93,1.17-38.14-10.13-61.62-36.43-75.11h-2.25c27.19,13.15,38.86,36.54,37.68,75.13,1.5,23.37-4.01,45.37-16.36,65.38-11.67,18.91-29.44,36.08-52.84,51.05-26.86,17.19-58.01,27.17-98.05,31.43-12.33,1.31-25.76-2.86-36.84-11.45-17.09-13.23-36.45-22.88-55.18-32.22-5.65-2.82-11.49-5.73-17.18-8.69-15.8-8.23-29.02-17.04-40.42-26.93-15.51-13.45-18.19-31.56-19.89-52.11-1.98-23.79-5.84-48.76-20.58-70.22-5.08-7.4-11.4-14.28-19.63-21.37h-1.54c8.6,7.3,15.13,14.35,20.35,21.94Zm-433.23,3.57C87.07,13.45,105.92,5.04,127.05,0h-4.09c-19.72,5.15-37.43,13.3-53.73,24.69-10.41,7.27-20.68,15.15-30.62,22.77-12.46,9.56-25.28,19.38-38.62,28.2v1.21c13.56-8.94,26.58-18.92,39.23-28.62,9.92-7.61,20.19-15.48,30.58-22.75Zm-1.26,203.36c22.12-9.56,38.92-27.69,47.32-51.06,7.27-20.24,22.7-32.54,44.61-35.58,10.85-1.5,21.82-1.67,32.42-1.83,4.45-.07,9.06-.14,13.61-.3,4.97-.23,10.02-.3,14.91-.36,10.2-.13,20.75-.26,31.21-1.93,19.45-3.11,33.81-11.89,40.46-24.71,6.48-12.51,5.56-28.01-2.68-44.82l-1.89-3.86c-7.95-16.16-16.16-32.87-20.84-50.77-1.43-5.47-4.06-10.08-7.71-13.65h-1.41c3.89,3.54,6.67,8.26,8.15,13.9,4.7,18,12.94,34.75,20.91,50.96l1.89,3.86c8.09,16.51,9.02,31.7,2.69,43.92-6.5,12.53-20.6,21.12-39.73,24.19-10.39,1.66-20.9,1.8-31.06,1.92-4.89.06-9.95.12-14.94.36-4.53.17-9.13.24-13.58.3-10.64.16-21.64.33-32.55,1.84-22.31,3.09-38.01,15.62-45.42,36.23-8.3,23.1-24.91,41.03-46.77,50.48-21.24,9.18-45.2,9.63-68.15,1.42v1.05c10.86,3.84,21.93,5.78,32.84,5.78,12.29,0,24.38-2.44,35.7-7.34Zm328.56-121.41c-8.28-12.69-8.17-21.22.42-31.45,7.57-9.02,18.46-11.57,29.12-6.83,12.86,5.72,19.09,14.24,18.52,25.32-.11,2.24-.09,4.48-.06,7.58.02,1.71.04,3.68.04,6.05.02.55.04,1.13.07,1.72.33,7.07.77,16.76-10.71,21.41-1.96.79-3.99,1.19-6.07,1.19-9.75,0-20.64-8.62-31.33-25Zm.84-.55c12.68,19.43,25.53,27.75,36.19,23.43,10.82-4.38,10.4-13.66,10.08-20.43-.03-.6-.05-1.19-.07-1.75v-.02c0-2.37-.02-4.34-.04-6.05-.03-3.12-.05-5.38.06-7.65.54-10.63-5.49-18.82-17.93-24.36-3.39-1.51-6.8-2.25-10.11-2.25-6.69,0-12.97,3.01-17.83,8.8-8.24,9.82-8.34,18.02-.35,30.26Zm-126.04,335.54c18.02-13.11,41.59-34.12,38.32-65.05.02-20.42-6.02-35.95-17.47-44.91-10.85-8.5-26.03-10.65-43.9-6.22-25.65,6.36-49.43,16.08-70.68,28.91-12.56,7.58-26.46,10.63-41.28,9.04-29.34-3.13-64.01-5.65-98.68-.67-11.84,1.7-20.86,5.05-28.36,10.52-3.49,2.54-6.77,5.32-9.85,8.3v1.39c3.24-3.19,6.73-6.17,10.44-8.87,7.37-5.38,16.24-8.66,27.92-10.34,34.56-4.97,69.15-2.45,98.43.67,15.05,1.6,29.15-1.49,41.91-9.18,21.17-12.78,44.86-22.46,70.4-28.79,17.56-4.35,32.44-2.26,43.04,6.04,11.19,8.76,17.1,24.02,17.08,44.18,1.54,14.59-.71,37.12-37.91,64.19-23.13,16.83-36.96,35.96-42.18,58.36h1.03c5.2-22.05,18.89-40.92,41.73-57.55ZM1012.93,50.67c0,20.72,6.38,37.34,18.47,48.07,9.31,8.26,21.53,12.51,35.73,12.51,2.99,0,6.07-.19,9.22-.57,24.03-2.89,47.16-6.58,68.77-10.96,17.53-3.56,32.77-7.73,41.67-22.87,6.04-10.27,7.79-22.74,4.92-35.09-2.87-12.33-9.95-22.93-19.94-29.83-6.47-4.47-13.27-8.41-20.56-11.94h-2.31c7.96,3.73,15.32,7.93,22.3,12.76,9.79,6.76,16.72,17.14,19.53,29.23,2.81,12.1,1.11,24.31-4.8,34.36-8.69,14.78-23.71,18.89-41.01,22.4-21.58,4.38-44.69,8.06-68.69,10.95-17.85,2.15-33.12-1.9-44.17-11.7-11.87-10.53-18.14-26.89-18.14-47.4-2.71-16.68,7.4-36.1,26-50.59h-1.6c-18.25,14.63-28.11,34.01-25.39,50.67Zm-481.49,28.06c5.61,42.01,27.65,70.9,65.49,85.88,22.56,8.93,45.87,20.95,71.26,36.76,10.44,6.5,22.91,9.85,36.42,9.85,2.33,0,4.69-.1,7.07-.3,26.56-2.24,49.81-9.64,71.06-22.63,37.92-23.18,76.13-55.19,72.08-116.78,4.55-31.49-8.95-54.3-42.43-71.5h-2.23c34.36,17.1,48.25,39.83,43.67,71.41v.05s0,.05,0,.05c4.04,61.1-33.93,92.88-71.6,115.91-21.12,12.91-44.22,20.27-70.62,22.49-16,1.35-30.83-1.91-42.88-9.4-25.45-15.84-48.81-27.89-71.42-36.84-19.01-7.52-34.11-18.61-44.88-32.95-10.51-13.99-17.23-31.53-19.98-52.13-1.89-14.17-5.79-28.09-9.73-41.03-4.47-14.71-12.56-27.02-20.36-37.57h-1.24c7.87,10.61,16.13,23.02,20.64,37.86,3.92,12.9,7.81,26.77,9.69,40.87ZM37.3,222.17c21.33,0,40.13-10.46,51.74-29.73,6.83-11.33,8.37-24.33,8.95-34.38.65-11.35,5.63-21.3,14.01-28.01,9.01-7.22,20.86-10.08,33.37-8.03,11.2,1.83,22.5,2,33.42,2.17l2.13.03c22.8.15,47.15-.57,70.7-6.81,10.84-2.87,18.09-8,21.53-15.24,3.49-7.34,2.87-16.38-1.85-26.88-2.73-6.07-5.86-12.08-8.89-17.9-3.78-7.26-7.68-14.76-10.83-22.42-6.49-15.78-18.83-23.84-38.83-25.36-16.38-1.25-32.92.21-48.92,1.62-2.98.26-5.95.52-8.93.77-31.84,2.63-56.47,11.18-77.51,26.9-7.44,5.56-14.74,11.54-21.81,17.32-13.96,11.43-28.4,23.25-44.49,32.31-3.63,2.04-7.28,3.92-11.09,5.8v1.12c3.98-1.97,7.79-3.92,11.58-6.06,16.16-9.1,30.63-20.95,44.63-32.41,7.06-5.78,14.35-11.75,21.77-17.29,20.88-15.6,45.35-24.09,76.99-26.7,2.98-.25,5.96-.51,8.93-.77,15.96-1.41,32.46-2.86,48.76-1.62,19.59,1.49,31.66,9.35,37.98,24.74,3.16,7.7,7.08,15.22,10.87,22.5,3.02,5.8,6.14,11.8,8.86,17.84,4.6,10.22,5.22,18.98,1.86,26.04-3.31,6.96-10.34,11.9-20.89,14.7-23.44,6.21-47.7,6.93-70.43,6.78l-2.12-.03c-10.88-.17-22.14-.34-33.27-2.16-12.79-2.09-24.92.84-34.16,8.24-8.6,6.9-13.71,17.1-14.38,28.74-.57,9.94-2.09,22.78-8.8,33.92-7.53,12.5-18.21,21.48-30.9,25.97-12.69,4.5-27.12,4.41-41.73-.24-5.22-1.66-10.36-3.78-15.55-6.39v1.11c5.09,2.53,10.13,4.6,15.25,6.23,7.52,2.39,14.93,3.56,22.05,3.56Zm213.32,216.24c7.83-7.88,15.92-16.03,24.12-23.78,9.18-8.67,15.27-19.5,18.61-33.09,2.44-9.93.62-19.51-5.13-26.96-5.76-7.46-14.97-11.84-25.26-12-20.3-.29-37.54,8.78-53.15,18.67-31.05,19.65-58.64,31.27-92.35,24.11-18.25-3.88-36.11,1.12-53.39,5.94-5.86,1.64-11.92,3.33-17.91,4.65-16.79,3.7-29.32,13.48-36.22,28.29-2.85,6.11-6.15,12.37-9.94,18.92v1.99c4.18-7.12,7.77-13.89,10.85-20.49,6.77-14.51,19.06-24.1,35.53-27.74,6.01-1.33,12.08-3.02,17.96-4.66,17.16-4.8,34.91-9.75,52.91-5.93,34.04,7.23,61.83-4.46,93.09-24.24,15.48-9.8,32.59-18.85,52.6-18.51,9.99.16,18.92,4.39,24.49,11.61,5.56,7.21,7.32,16.48,4.96,26.11-3.29,13.4-9.29,24.06-18.32,32.6-8.22,7.76-16.31,15.92-24.15,23.81-4.93,4.96-10.02,10.09-15.1,15.08-12.88,12.65-21.02,28.52-24.23,47.22h1.02c3.2-18.42,11.22-34.05,23.91-46.51,5.08-4.99,10.18-10.12,15.11-15.09ZM1034.48,78.04c7.89,16.62,22.65,19.84,38.14,19.84,1.68,0,3.37-.04,5.06-.1.59-.02,1.18-.02,1.78,0h.88c2.52-.14,5.04-.28,7.57-.42,21.26-1.16,43.24-2.35,63.96-9.98,11.73-4.32,25.56-11.52,28.34-29.02,2.62-16.47-3.29-30.6-17.58-42.01-10.38-8.28-22.53-12.6-34.6-16.34h-3.41c12.98,3.95,26.26,8.24,37.38,17.12,13.98,11.16,19.77,24.98,17.21,41.07-2.11,13.25-10.65,21.96-27.7,28.24-20.58,7.58-42.49,8.77-63.67,9.92-2.52.14-5.05.27-7.54.42h-.84c-.61-.01-1.22-.02-1.83,0-16.93.63-33.76-1.26-42.26-19.17-9.99-21.07-6.49-45.47,8.92-62.18,6.03-6.54,12.37-11.71,18.92-15.43h-1.95c-6.12,3.7-12.05,8.63-17.7,14.76-15.69,17.01-19.26,41.85-9.09,63.29Zm-422.67,80.4l2.37.94c18.85,7.49,38.34,15.23,56.33,25.77,15.13,8.86,29.42,13.33,42.53,13.33,1.82,0,3.62-.09,5.4-.26,0,0,0,0,0,0,21.13,0,46.89-8.6,70.68-23.6,24.27-15.3,42.35-34.85,49.61-53.64,22.85-59.12,9.16-99.51-40.69-120.06-.73-.3-1.47-.61-2.22-.92h-2.56c1.5.64,2.97,1.26,4.39,1.85,49.25,20.31,62.75,60.27,40.14,118.78-7.19,18.6-25.12,37.97-49.21,53.15-23.29,14.68-49.51,23.44-70.2,23.45-14.38,1.4-30.32-2.95-47.37-12.94-18.05-10.58-37.58-18.33-56.46-25.84l-2.37-.94c-33.7-13.4-54.95-35.49-64.97-67.53-8.26-26.43-15.41-55.12-22.44-89.98h-1.02c7.04,34.99,14.22,63.77,22.5,90.28,10.11,32.34,31.55,54.64,65.55,68.16ZM36.42,208.81c7.62,0,14.79-1.99,21.09-5.96,12.18-7.68,19.42-22.06,19.86-39.47.12-4.7.09-9.47.06-14.09-.02-3.61-.05-7.33,0-11,.26-19.94,9.5-31.15,29.96-36.34,11.3-2.87,22.13-.64,32.61,1.51,2.05.42,4.11.84,6.17,1.23,34.77,6.52,62.57,3.43,87.47-9.72,7.88-4.16,11.11-9.66,10.15-17.29-2.79-22.12-22.23-43.88-44.26-49.54-9.69-2.49-17.4-3.34-24.19-2.66-13.29-.84-25.93,1.24-38.14,3.26-1.5.25-3,.5-4.5.74-13.79,2.22-33.23,8.17-61.37,34.64-17.52,16.48-37.26,32.97-62.88,41.95-2.79.98-5.59,2.17-8.46,3.59v1.11c2.98-1.5,5.9-2.75,8.79-3.76,25.8-9.05,45.64-25.61,63.23-42.17,15.59-14.66,35-30.22,60.84-34.38,1.5-.24,3-.49,4.51-.74,12.16-2.01,24.73-4.08,38-3.25,6.75-.66,14.35.17,23.92,2.63,21.67,5.57,40.78,26.96,43.52,48.7.92,7.26-2.05,12.29-9.62,16.28-24.7,13.04-52.29,16.09-86.82,9.62-2.05-.39-4.1-.81-6.15-1.23-10.59-2.18-21.54-4.42-33.06-1.5-20.69,5.25-30.45,17.1-30.71,37.3-.05,3.67-.02,7.41,0,11.02.03,4.61.06,9.37-.06,14.05-.43,17.06-7.5,31.15-19.4,38.65-11.76,7.41-26.63,7.74-41.88.92-5.3-2.37-10.35-5.09-15.11-8.11v1.17c4.64,2.91,9.55,5.54,14.7,7.84,7.42,3.32,14.77,4.98,21.72,4.98Zm164.16,205.01c-10.12-.57-20.1,1.4-28.9,3.14-6.1,1.21-12.42,2.02-18.53,2.8-18.14,2.33-36.91,4.73-52.79,17.78-18.89,15.53-42.09,24.68-64.24,32.73-13.01,4.73-25.13,11.33-36.13,19.63v1.25c11.08-8.46,23.31-15.16,36.47-19.94,22.22-8.08,45.51-17.28,64.53-32.9,15.66-12.87,34.27-15.25,52.28-17.56,6.13-.79,12.46-1.6,18.6-2.81,8.74-1.73,18.65-3.69,28.65-3.13,8.06.45,11.1,3.82,10.85,12.02-.21,6.97-1.79,12.84-4.68,17.43-10.34,16.37-16.79,34.65-19.68,55.73h1.01c2.88-20.89,9.27-38.99,19.51-55.2,3-4.74,4.62-10.78,4.84-17.93.26-8.66-3.27-12.57-11.8-13.04ZM1090.15,7.27c20.86-1.76,40.82,3.09,59.31,14.41,11.89,7.28,16.85,18.04,15.16,32.9-1.46,12.87-11.38,17.63-21.42,21.4-10.75,4.04-22.02,6.17-32.35,6.17-2,0-3.97-.08-5.9-.24-1.89,0-3.55.01-5.06.02-2.88.02-5.16.03-7.46-.03-22.18-.66-38.92-12.31-39.81-27.72-1.43-24.82,14.7-44.98,37.52-46.9Zm-36.52,46.84c.86,14.88,17.19,26.14,38.84,26.78,2.29.07,4.56.05,7.43.03,1.51,0,3.18-.02,5.08-.02h.04c11.69.99,25.12-1.09,37.83-5.86,9.75-3.66,19.38-8.26,20.78-20.57,1.64-14.43-3.17-24.88-14.69-31.93-18.31-11.2-38.06-16-58.71-14.27-22.27,1.87-38,21.58-36.61,45.85Zm-500.49,27.75c13.33,33.86,32.24,54.75,59.51,65.72,22.1,8.89,45.51,18.52,67.43,29.87,14.96,7.75,29.57,11.62,44.03,11.62,14.83,0,29.5-4.08,44.22-12.24,31.59-17.51,65.85-39.96,72.35-85,5.81-40.25-6.2-65.81-37.79-80.46-7.83-3.63-15.83-7.23-23.58-10.72-.49-.22-.98-.44-1.47-.67h-2.43c1.17.53,2.33,1.05,3.5,1.58,7.74,3.48,15.74,7.09,23.57,10.71,31.14,14.43,42.97,39.66,37.22,79.41-3.38,23.38-11.99,51.1-71.85,84.27-28.75,15.93-57.31,16.13-87.3.6-21.96-11.37-45.39-21.01-67.51-29.91-27-10.86-45.73-31.57-58.95-65.16-6.52-16.58-10.93-34.9-13.48-56.03-1.36-11.28-.11-19.33,4.01-25.48h-1.18c-3.98,6.27-5.17,14.39-3.82,25.6,2.56,21.21,6.99,39.62,13.54,56.27ZM30.44,184.89h.04c12.03-.03,20.44-11.04,20.46-26.79.01-11.07-3.17-20.31-8.97-26.02-4.2-4.14-9.63-6.27-15.72-6.17-8.81.14-19.38,5.89-26.26,12.94v1.52c6.69-7.2,17.54-13.33,26.28-13.47.13,0,.26,0,.38,0,5.65,0,10.7,2.03,14.62,5.89,5.6,5.52,8.68,14.51,8.67,25.3-.02,15.16-8.02,25.76-19.46,25.79-8.42,0-19.72-5.82-28.05-14.52-.88-.91-1.68-1.83-2.43-2.75v1.55c.55.63,1.11,1.27,1.71,1.9,7.07,7.39,18.69,14.83,28.73,14.83Zm98.76-112.66c-4.09-2.31-6.22-4.86-6.33-7.58-.12-2.75,1.84-5.53,5.82-8.25,14.63-9.98,38.82-9.25,52.82,1.61,4.42,3.42,6.6,7.1,6.32,10.63-.28,3.51-2.99,6.77-7.83,9.42-4.91,2.69-9.72,4.01-14.64,4.01-.7,0-1.4-.03-2.1-.08h-.02c-10.53-1.27-22.81-3.43-34.03-9.76Zm.49-.87c11.06,6.25,23.22,8.38,33.65,9.64,5.45.4,10.75-.84,16.18-3.81,4.53-2.48,7.06-5.46,7.31-8.62.25-3.18-1.8-6.55-5.94-9.76-13.69-10.62-37.34-11.34-51.64-1.58-3.68,2.51-5.49,4.99-5.39,7.38.1,2.35,2.06,4.62,5.83,6.75Zm-17.04,408.1c-5.68,2.24-11.42,4.62-16.97,6.92-11.48,4.76-23.25,9.63-35.27,13.61h3.11c11.08-3.8,21.93-8.28,32.54-12.68,5.55-2.3,11.29-4.68,16.96-6.92,19.12-7.54,30-6.16,37.56,4.76,2.86,4.14,4.49,8.94,5.03,14.84h.99c-.55-6.11-2.23-11.1-5.2-15.41-7.78-11.24-19.37-12.77-38.75-5.12ZM1088.64,58.16c-5.82-5.54-8.2-13.24-6.22-20.07,1.75-6.05,6.59-10.29,13.26-11.63,11.62-2.33,25.15-3.76,37.49,3.19,6.89,3.88,13.58,8.51,13.02,18.47-.56,9.97-7.98,12.71-15.15,15.35l-.82.3c-5.27,1.95-10.25,2.36-13.48,2.36-.65,0-1.22-.02-1.72-.04-10.81.02-19.41-1.29-26.37-7.93Zm.69-.72c6.73,6.41,15.1,7.68,25.69,7.66h.03c2.32.11,8.41.11,14.82-2.25l.83-.3c7.19-2.65,13.98-5.15,14.5-14.47.53-9.4-5.62-13.66-12.51-17.55-12.05-6.79-25.37-5.37-36.81-3.08-6.3,1.26-10.85,5.24-12.5,10.92-1.88,6.48.41,13.78,5.95,19.07Zm-475.54,78.66c10.53,5.85,21.99,9.99,33.07,14,10.92,3.95,22.21,8.03,32.52,13.72,16.28,9,32.15,13.5,47.82,13.5s32.51-4.91,48.67-14.72c26.87-16.32,57.78-40.93,58.25-86.84-.12-23.73-9.73-41.63-29.37-54.71-10.53-7.01-22.14-11.56-33.36-15.96-4.14-1.62-8.3-3.34-12.4-5.06h-2.59c4.82,2.02,9.73,4.07,14.62,5.99,11.18,4.38,22.73,8.91,33.17,15.87,19.35,12.88,28.81,30.51,28.93,53.88-.2,19.46-5.66,36.14-16.69,50.99-9.28,12.5-22.34,23.62-41.08,35.01-31.31,19.01-62.55,19.41-95.49,1.21-10.38-5.73-21.71-9.83-32.66-13.79-11.04-3.99-22.46-8.12-32.92-13.93-36.99-20.55-56.74-53.61-60.39-101.07-1.15-14.9,5.48-26.11,20.19-34.15h-2.06c-13.99,8.18-20.26,19.42-19.13,34.23,3.68,47.82,23.6,81.14,60.91,101.86Zm-50.51-97.34c.19,36.06,17.48,64.73,52.87,87.64,12.47,8.07,26.69,12.93,40.45,17.63,10.88,3.72,22.13,7.56,32.37,12.96,13.58,7.16,26.78,10.74,39.98,10.74,15.27,0,30.57-4.8,46.5-14.42,24.98-15.09,50.56-35.83,50.85-75.21-.44-20.33-8.1-36.05-23.42-48.06-15.58-12.21-33.93-18.88-51.67-25.34-4.15-1.51-8.39-3.06-12.61-4.68h-2.79c5.01,1.97,10.1,3.82,15.06,5.62,17.67,6.43,35.94,13.08,51.39,25.19,15.08,11.81,22.61,27.28,23.04,47.28-.28,38.88-25.62,59.4-50.37,74.35-29.38,17.74-56.54,18.91-85.5,3.65-10.31-5.43-21.6-9.29-32.52-13.02-13.7-4.68-27.87-9.52-40.23-17.52-35.08-22.71-52.23-51.11-52.41-86.81-.07-13.69,6.34-23.79,19.06-30.02,8-3.92,16.23-6.83,24.61-8.73h-4.08c-7.13,1.89-14.14,4.48-20.98,7.83-12.91,6.32-19.69,17.01-19.62,30.92Zm13.7-8.53c-5.33,9.62-4.58,22.7,2.24,38.88,12.59,29.85,33.84,50.24,63.15,60.59,6.33,2.24,12.82,4.37,19.1,6.42,13.07,4.29,26.58,8.72,39.3,14.34,10.58,4.68,21.04,7.02,31.46,7.02,14.65,0,29.25-4.63,44.08-13.91,27.61-17.29,40.91-38.35,41.86-66.28v-.02s0-.02,0-.02c-1.12-19.23-9.17-33.96-23.93-43.78-17.41-11.57-37.16-18.49-56.27-25.18-3.42-1.2-6.84-2.4-10.25-3.62-6.03-2.16-11.96-3.71-17.83-4.67h-9.05c8.72.52,17.53,2.37,26.55,5.61,3.41,1.22,6.84,2.42,10.26,3.62,19.05,6.67,38.75,13.56,56.05,25.07,14.48,9.63,22.38,24.09,23.49,42.98-.94,27.56-14.09,48.35-41.39,65.44-25.07,15.7-49.48,17.93-74.6,6.82-12.76-5.64-26.3-10.08-39.4-14.37-6.28-2.06-12.76-4.19-19.08-6.42-29.03-10.26-50.08-30.46-62.56-60.04-6.7-15.88-7.47-28.67-2.29-38,5.62-10.13,18.07-16.61,38.08-19.82,7.56-1.21,15.31-2.09,22.81-2.93,12.22-1.38,24.86-2.81,37.06-5.73,4.94-1.18,9.86-1.93,14.8-2.23h-8.79c-2.08.35-4.16.76-6.24,1.26-12.14,2.9-24.75,4.33-36.94,5.71-7.51.85-15.28,1.73-22.86,2.94-20.33,3.26-33.02,9.9-38.79,20.32Zm52.9-7.54c21.71-4.67,44.15-9.5,66.48-12.12,17.73-2.08,34.61,4.64,50.94,11.15,2.57,1.02,5.12,2.04,7.67,3.02,7.3,2.81,14.29,6.74,21.06,10.54,2,1.12,3.99,2.24,5.99,3.34,13.78,7.53,22.69,20.84,24.43,36.53,1.97,17.76-5.28,35.77-19.39,48.17-15.88,13.95-33.55,21.1-55.61,22.5h-.1s-.1-.03-.1-.03c-10.73-3.82-21.89-6.86-33.71-10.08-27.42-7.46-55.78-15.18-80.29-33.55-12.45-9.34-21.17-23.57-26.65-43.5-1.79-6.51-.9-12.97,2.58-18.67,4.3-7.05,12-12.06,21.69-14.09,5-1.05,10-2.13,15-3.2Zm.21.98c-5,1.08-10,2.15-15,3.2-9.41,1.98-16.88,6.82-21.04,13.63-3.33,5.46-4.19,11.65-2.47,17.88,5.42,19.71,14.02,33.77,26.28,42.97,24.35,18.26,52.62,25.95,79.95,33.39,11.8,3.21,22.95,6.24,33.69,10.07,21.78-1.4,39.23-8.47,54.91-22.24,13.87-12.19,20.99-29.87,19.06-47.31-1.7-15.36-10.42-28.39-23.91-35.76-2.01-1.1-4-2.22-6-3.34-6.73-3.78-13.69-7.7-20.92-10.48-2.55-.98-5.11-2-7.68-3.03-14.17-5.65-28.77-11.46-43.89-11.46-2.18,0-4.36.12-6.56.38-22.29,2.62-44.71,7.45-66.39,12.11Zm-10.27,20.15c21.38-13.74,49.36-20.98,78.66-20.38,29.23.6,56.74,8.88,77.48,23.31,11.42,7.95,17.92,19.47,20.44,36.23v.06s0,.06,0,.06c-1.45,15.66-10.23,30.16-24.1,39.78-9.77,6.77-21.08,10.29-32.42,10.29-4.81,0-9.62-.63-14.32-1.92-5.51-1.5-11.14-2.98-16.58-4.41-20.11-5.28-40.9-10.73-60.52-18.83-18.68-7.7-31.04-20.37-37.79-38.72-3.82-10.37-.65-19.19,9.15-25.49Zm-8.21,25.14c6.65,18.07,18.83,30.55,37.23,38.14,19.56,8.07,40.32,13.52,60.4,18.79,5.44,1.43,11.07,2.91,16.59,4.41,15.52,4.24,32.25,1.24,45.91-8.23,13.41-9.3,22.25-23.87,23.67-38.99-2.49-16.44-8.85-27.73-20.02-35.5-20.58-14.33-47.9-22.54-76.93-23.13-1.12-.02-2.23-.03-3.35-.03-27.92,0-54.35,7.14-74.75,20.25-9.36,6.02-12.39,14.42-8.75,24.3Zm93.71,3.29c2.12-6.62,9.94-8.26,15.12-9.34.65-.14,1.27-.27,1.83-.4h.1c9.54-.29,15.84,3.35,21.9,6.87.83.48,1.66.96,2.49,1.43,8.43,4.73,11.35,10.4,8.43,16.39-3.08,6.34-8.41,9.82-14.6,9.82-1.84,0-3.75-.31-5.71-.94-5.85-1.88-11.5-4.56-16.96-7.14-8.09-3.83-15.22-8.51-12.6-16.7Zm13.03,15.79c5.44,2.57,11.06,5.23,16.84,7.1,8.02,2.58,15.34-.62,19.1-8.37,2.68-5.52-.02-10.59-8.02-15.08-.83-.47-1.67-.95-2.5-1.44-5.93-3.44-12.08-7-21.32-6.75-.56.13-1.16.25-1.8.39-5.24,1.1-12.43,2.61-14.37,8.67-2.39,7.46,4.39,11.85,12.08,15.49Z"/>
  </g>
</svg>