<svg width="569" height="217" viewBox="0 0 569 217" fill="none" xmlns="http://www.w3.org/2000/svg">
<path d="M29.656 213.976V209.368L29.336 208.6V203.672L29.464 201.624L29.912 200.792L29.72 198.36L29.08 196.824L29.528 194.456L29.656 192.664L29.208 192.344L29.144 192.088L29.912 188.44L29.528 186.456V185.88L29.144 184.024L29.976 181.272L29.656 179.096L30.168 177.688L29.656 174.04L29.848 172.952L29.4 169.432L29.592 168.344V165.592L29.464 164.376L29.848 160.152L29.72 158.04L30.168 156.44L29.528 153.688V152.472L29.912 151.256L29.528 148.696L29.72 146.52L29.528 143.704L31.128 141.976L32.216 142.104L35.352 141.784L37.592 142.296L39.128 141.976L40.984 142.296L41.624 142.232L45.272 142.488L47.384 142.168L47.704 141.976L51.544 142.232H58.904L60.184 142.552L62.424 142.232H66.008L68.632 142.488L70.488 143L70.36 145.112L70.616 146.328L70.104 148.44L70.488 150.424L70.232 153.048L70.616 155.672L70.296 156.568V161.496L70.616 163.096L70.36 163.992V165.72L70.68 167.064L70.296 170.776L70.744 172.632L70.424 174.808L71.064 178.008L70.36 181.144V189.336L71.064 190.744L70.552 194.136V197.208L70.36 198.808L70.552 199.576V202.968H71L71.256 203.288L70.552 206.872V211.928L70.68 213.976L68.952 214.552L66.2 214.808L63.384 214.616L61.336 214.936H59.48L57.56 215.448L55.192 215L53.4 214.872L51.672 215H41.496L40.536 214.808L38.744 215.192L36.12 215H34.072L32.92 214.68L30.424 215L29.912 214.36V214.424L29.656 213.976ZM43.8 196.952L44.312 196.312L46.232 198.104L48.472 198.872L49.368 199.512L50.456 199.384L52.184 199.768L54.36 199.256L55.192 199.384L57.56 198.424L58.072 197.912L59.928 197.144L59.992 196.44L61.464 194.712L62.552 192.792L62.68 191.128L63.064 190.744L63.704 187.224L63.96 186.008V182.68L62.936 179.672L63 178.776L61.784 176.024L59.8 173.72L59.608 173.144L58.392 172.184L55.32 170.84L53.528 170.456H50.264L48.024 171.16L46.168 172.12L45.336 172.376L44.44 173.4L43.288 174.424L42.904 173.976V171.544L42.84 171.16L40.664 170.904L39 171.224L38.872 172.44L38.36 174.616L38.808 176.152L38.936 177.56L38.488 178.84L38.808 180.376L38.616 182.296L39.064 183.896V185.368L38.68 186.328V188.568L39 189.272L38.68 190.936L39 192.536L38.808 194.2V195.864L38.936 196.952L38.744 197.912L39 200.728L38.616 201.816L38.68 202.392L38.424 204.504L38.872 205.848L38.616 208.408L38.872 210.392L40.536 210.776L43.16 210.456L43.608 209.752L44.056 207.128H43.864L44.184 205.784L43.544 203.48L43.8 203.096L44.248 200.984L43.992 198.744L43.8 196.952ZM58.392 185.624V186.712L58.584 188.376L58.072 189.272V190.68L57.432 191.256L56.984 192.792L56.408 193.048L54.616 194.52L53.464 194.968L52.12 195.224H48.728L46.872 194.712L46.104 194.072L44.056 193.56L43.544 192.664L43.736 190.808V188.12L43.928 187.096L43.672 185.816L43.928 184.536V179.288L43.672 178.136L43.352 177.496L43.608 176.792H44.504L45.912 176.088L46.36 175.704L49.112 174.68L50.456 174.872L51.544 174.744L54.616 175.192L54.936 175.768L55.96 176.536L57.432 178.712L57.88 179.544L58.392 180.888L58.2 181.912L58.648 183.064L58.392 185.624ZM101.055 197.016L100.799 196.76L100.543 195.224L99.007 194.584L97.343 194.456L95.615 194.776L94.207 194.648L92.351 194.904L90.943 194.52L89.087 195.16L88.511 194.264L88.895 193.048L88.511 189.72L88.831 188.312L88.447 186.328L89.023 183.128L88.703 182.04L88.575 180.888L87.743 180.248L88.127 179.544L89.087 179.48L91.071 177.816L92.159 176.6L93.247 176.472L94.143 176.024H95.423L97.471 175.832L98.815 175.96H101.567L102.335 175.192V171.864L101.567 171.224L99.135 170.52L96.767 170.712L96.063 170.584L92.991 171.16L92.479 171.864L91.583 172.376L90.495 173.272L89.599 174.744L89.023 175.128L88.639 176.344L87.615 177.368L87.935 175.768V173.272L87.999 172.888L87.679 171.736L85.759 171.224H83.711L80.447 170.904L79.935 171.16H78.399L76.799 172.056L76.223 173.208L76.671 174.744L78.719 175.384L80.255 175.64L82.559 175.32L83.647 174.936L84.607 175.128L83.967 176.408L83.839 178.072L83.327 179.736L83.583 179.992L83.327 181.592L83.711 183.576L83.391 186.136V188.504L83.647 190.808V192.216L83.967 194.2L84.799 194.776L83.647 195.288L83.007 194.84L81.727 194.52H79.615L78.783 194.712H77.503L76.415 195.288V196.888L76.351 197.784L76.863 198.68L77.887 199H80.319L81.727 198.68L83.391 198.936H86.143L88.703 199H91.135L92.735 198.68L94.719 199.064H97.599L100.607 198.616L101.055 197.016ZM68.095 213.976V211.288L67.647 209.816V204.376L67.903 201.624L68.415 201.112L68.095 198.104L67.455 196.696L67.903 194.264L68.223 194.072L67.775 190.616L68.287 188.44L67.839 185.688V185.752L67.583 184.472L68.543 181.912L68.031 179.224L68.543 177.496L68.031 173.656L68.159 172.376L67.711 169.496L67.967 168.152V164.376L68.159 163.928V160.088L68.031 158.168L68.543 157.208L67.839 153.56L68.095 149.72V146.328L67.839 143.576L69.503 141.976L70.975 142.168L72.319 141.528L75.711 142.296L77.055 142.104L78.591 142.552L79.999 142.424H79.935L81.471 142.232L82.303 142.552L84.479 142.04L87.871 142.36H89.727L91.711 142.168L94.463 142.424H98.623L100.799 142.04L104.575 142.296H107.583L108.863 143.064L108.543 145.176L108.991 147.16L108.799 149.272L108.863 150.104L108.671 152.024L109.119 154.648L108.799 156.696V157.528L108.287 160.344L108.927 163.096L108.863 163.352L108.543 163.736L108.927 168.856L108.735 170.328L109.119 171.8L108.735 173.784L108.991 175.768L109.439 177.112L108.607 181.784L108.863 183.896V186.584L108.479 189.464L108.991 191.512L108.863 192.024V196.696L108.415 199.064L108.927 201.176V202.648L109.631 203.096L109.759 203.416L108.927 207.192V212.632L108.799 214.424L108.671 214.68L107.519 214.808L106.687 214.552L101.695 214.936H98.943L96.639 215.768L93.375 215L92.479 214.936L91.071 215.128H88.575L86.847 214.808H78.015L75.967 215H72.703L71.679 214.68L68.671 215L68.095 213.976ZM128.166 170.584L127.078 170.456H126.31L124.07 170.776L124.198 170.712H122.47L122.15 171.16L120.806 171.992L119.654 172.248L119.014 172.696L117.734 173.208L116.454 174.936L115.814 175.704L115.046 177.368L114.79 178.2L113.254 181.72L113.574 183.256L113.19 185.56L113.062 187.544L113.702 188.696L114.214 191.32L114.79 193.176L115.43 193.816L116.006 194.84L118.054 196.504L118.246 197.016L119.526 197.72L120.102 198.168L121.51 198.488L122.15 199.064L124.454 199.768L126.63 199.512H128.55L129.574 199.128L132.006 198.872L133.99 197.976L135.27 197.336L137.254 195.48L138.47 194.008L139.558 191.32L139.942 190.488L140.454 185.24L140.582 183.512L140.198 181.912V180.44L140.006 178.904L138.982 177.112L138.022 176.088L137.254 174.68L135.718 173.208V173.016L134.438 172.568L132.838 171.544L131.686 171.096L129.894 170.584H128.166ZM125.606 174.68H126.95L127.846 174.808L129.446 175.32L131.238 175.64L132.582 176.408L134.054 178.136L134.31 179.736L134.694 180.376L135.654 184.6L135.014 187.864L134.694 188.504L135.014 189.208L134.31 191L133.606 192.408L132.326 194.072L131.686 194.136L130.406 194.648L129.958 195.032H128.55L126.054 195.48V195.352L124.39 195.224L123.558 194.904L121.638 193.688L120.358 192.6L120.166 192.024L119.078 190.168L119.142 189.784L118.886 188.568L118.758 186.456L118.438 184.984L118.822 183.128L118.694 181.08L119.142 179.736L120.614 177.112L121.702 175.96L123.302 175.384L124.134 175L125.606 174.68ZM107.494 215.64L107.238 215.128L106.918 214.68V207.576L106.598 206.424V202.328L106.854 200.6L107.302 200.024L106.47 197.72L106.918 194.264L106.406 191.512L106.854 189.08L106.534 187.928V187.352L105.958 185.496L106.79 182.168V177.624L106.662 176.216V176.28L106.406 174.872L106.534 173.784L105.958 171.032L106.278 168.984V166.616L106.15 166.296V162.584L106.342 161.56V157.72L105.894 154.84L106.15 151.256L106.022 149.592V146.648L105.638 144.152L107.43 142.872L109.478 143.128L110.118 142.488L112.998 143.192L115.11 142.872L116.454 143.32L119.014 142.936L120.294 143.256L122.406 142.552L126.118 143L128.614 142.68H134.758L136.422 142.936L138.598 142.488H145.638L146.726 143.384L146.47 145.112L146.918 147.352L146.406 148.376L146.918 150.616V153.624L147.174 154.648L146.598 156.696L146.726 158.104V158.04L146.982 159.384L146.854 161.432L147.43 163.032L146.982 165.848L147.302 167.832L146.982 170.392L147.43 172.696L147.238 174.104L147.942 177.496L147.302 182.616L147.558 186.584L147.238 189.976L148.006 191.896L147.75 194.584V197.848L147.43 199.384L147.878 200.856L147.75 202.584L148.262 204.696L147.75 207L148.006 208.664V213.592L148.134 214.424L148.07 214.616L146.662 215.064L145.638 214.872L142.566 215.128L140.646 215L138.47 215.384H130.918L127.27 215.832L123.302 215.576H117.862L116.454 215.96L114.406 215.768H107.75L107.494 215.64ZM144.909 213.976L145.101 211.288L144.909 209.304V203.928L144.653 202.776L145.229 200.792V197.656L144.781 195.736L144.909 194.52L145.165 194.072L144.653 191.384L145.165 188.248L144.909 186.904V185.816L144.397 184.664L145.421 181.336L145.037 178.968L145.357 176.344L144.973 175.32V171.416L144.653 170.52L144.845 168.728V165.08L145.037 162.264V159.064L145.293 157.016L144.973 154.776V151.96L145.101 151.256L144.845 150.04L145.165 146.904L144.909 142.936L146.637 142.04L150.285 141.72L152.845 142.296L153.741 141.976L155.789 142.424L157.901 142.232L159.373 142.36L160.717 141.912L162.829 142.232H173.069L175.693 142.424L177.037 142.232H179.469L180.045 142.424H184.333L185.869 143L185.485 145.112L185.997 147.48L185.421 148.76L185.805 151.064V153.816L186.125 154.904L185.613 157.016L185.933 161.176L186.317 161.88L185.741 164.76V166.296L186.061 167.832L185.741 170.648L186.189 171.992L185.741 174.616L186.061 176.152L186.253 177.944V179.096L185.933 182.04V184.6L185.549 190.104L186.061 191.96L185.741 193.048L185.933 195.288L185.677 198.872L185.933 200.024V202.712L186.253 203.032L186.317 203.288L185.677 205.656L185.869 207.96V213.272L184.333 214.552L180.173 214.808L178.573 214.68L176.397 215.064L174.285 214.936L172.557 215.576L169.741 214.872L167.565 215.192H164.941L161.997 215H157.069L155.277 214.808L153.229 215H150.669L148.173 214.744H145.293L144.909 213.976ZM171.661 173.4L171.021 173.912L168.589 171.352L165.901 170.84L164.237 170.456L163.405 170.584L161.677 170.392L159.693 171.032L158.733 171.224L156.685 172.376L156.173 173.08L153.933 175.448L153.805 176.344L153.421 176.664L152.333 179.416L151.693 181.4L151.501 183.384L152.013 185.56L151.757 186.456L152.141 187.8V189.912L153.229 193.112L153.549 193.88L154.445 195.352L155.917 196.632L156.877 197.592L158.541 198.232L158.733 198.744L160.653 199.32L163.405 199.64H164.557L165.901 199.128H167.053L170.509 197.848L170.829 196.888L172.429 195.16L172.749 195.48L172.493 196.824L172.365 198.488L172.621 198.936L174.605 199.192H176.333L176.717 198.552L177.037 196.952L176.717 195.544L176.909 192.728L176.653 191.576L176.845 188.568L176.333 186.072L176.589 185.496L176.781 184.344L176.589 182.552V178.968L176.461 177.112L176.717 175.704V173.656L176.909 171.8L176.717 170.008V167.576L176.909 164.632L176.717 163.48L176.909 160.344L176.205 158.168L174.093 158.04L172.813 158.232L171.981 158.936L171.597 162.072L171.469 163.096L171.661 166.168V168.28L171.981 169.88L171.661 171.48V173.4ZM156.877 185.432V185.048L156.557 183.128L157.581 181.336L157.325 180.184L157.965 179.416V178.968L159.501 176.472L159.885 176.344L161.037 175.32L162.189 174.872L162.829 174.936L165.709 174.744H167.501L169.805 176.088L170.893 176.408L171.725 176.216L172.621 177.112L171.981 177.944L171.469 179.608L171.917 181.08L171.533 182.168L171.853 182.808L171.597 185.56L171.533 186.584L172.045 188.248L171.597 190.744L171.981 192.024L172.429 193.048L171.789 193.688L170.317 193.816L168.717 194.392L167.565 195.224L165.197 195.416L164.109 195.224L162.957 195.352L160.525 194.264L159.693 193.624L158.349 191.896L157.517 190.552V189.72L157.133 188.76L157.325 186.584L156.877 185.432ZM209.332 196.824L210.932 195.352L211.188 195.608V198.68L211.572 199L212.916 199.192H214.58L215.156 196.632V191.704L214.836 190.168L215.156 189.336L214.836 187.16L215.284 183.96L214.9 182.808L215.092 180.632V179.16L215.348 177.432L215.092 174.552L214.9 173.336V172.056L214.26 171.416L212.468 171.096L211.316 171.352L210.484 172.184L209.844 173.592L210.228 175.384L210.036 175.512L209.78 177.176V178.52L210.164 179.992L209.972 181.08L210.292 182.552L209.972 183.704L210.164 186.008L209.908 187.416V190.744L210.548 192.728L210.484 193.688L209.652 193.624L207.412 194.136L206.9 194.776L204.98 195.096L203.892 195.352L201.78 195.032H199.54V194.456L199.092 194.136L198.196 193.112L197.94 191.96L197.492 191L197.108 188.568L197.748 187.16L197.556 185.752L197.236 184.536V181.784L197.428 181.08L197.3 179.992L197.556 178.968L197.364 177.496L197.492 175.384L197.108 172.184L196.084 171.224L194.804 171.096L193.844 171.16L192.692 172.44L192.116 174.488L192.244 174.744L191.988 176.024L192.308 176.92L192.116 178.84L192.308 179.8L192.5 182.744L192.372 183L192.436 183.96L192.052 186.072L192.18 186.968V190.744L192.692 191.96V194.072L193.268 194.392L194.228 195.672L194.548 196.824L196.276 197.848L196.852 198.488L197.236 198.744L199.54 199.32L200.436 199.448H202.484L203.828 199.192L204.34 199.384L206.388 198.872L208.372 197.72L209.332 196.824ZM183.156 213.464L183.284 211.992L183.028 208.088V203.608L182.708 202.008L183.412 199.704V197.912L182.964 196.12L183.22 192.344L182.836 191.64L183.476 189.08L182.9 186.136V183.064L183.604 181.336L183.284 178.776L183.668 176.792L183.476 175.832L183.284 173.656V171.608L183.028 169.112V163.864L183.22 161.88V160.216L183.604 158.872L183.156 154.456V151.896L183.348 151.192L183.22 149.4V144.408L182.964 142.424L184.5 141.592H189.044L190.324 141.848L191.54 141.4L194.292 141.848L195.252 141.784L198.068 142.232L200.692 141.528L202.1 141.976H205.62L208.244 141.784H211.38L213.044 141.976L215.988 141.592L221.3 141.912L223.22 141.784L223.924 142.552V144.984L224.18 146.008L223.604 148.056L224.052 150.36L223.86 152.216L224.244 154.648L223.796 155.992L224.116 158.04L223.604 159.832L224.244 162.392L223.54 164.12L224.18 166.808L223.924 170.072L224.308 171.352L223.924 173.336L224.18 175.128V175.064L224.628 177.368L224.116 179.608V185.496L223.54 188.376L224.436 191.32L223.924 193.048V198.744L224.116 199.704V202.072L224.692 202.968L223.86 205.656L224.116 207.96V212.888L222.708 214.36H218.868L217.076 214.168L215.796 214.488H213.428L210.356 214.808L207.86 214.424L206.004 214.552H196.084L195.06 214.232L192.948 214.872L189.3 214.552H188.148L185.524 214.296H183.54L183.156 213.464ZM222.299 214.808V212.632L222.043 212.312V207.064L221.851 205.656V202.456L222.299 201.304L222.107 199.32L221.595 197.912L222.043 193.944L221.659 192.728L222.107 190.616L221.723 188.952V187.48L221.339 184.856L222.107 182.424L221.787 180.376L222.171 177.88L221.659 175.96V173.208L221.339 170.584V164.632L221.467 163.416V160.664L221.595 159.384L221.147 154.264V151.512L221.019 151.064L221.339 148.376L221.147 145.56L220.827 144.088L222.555 142.872L223.963 143.064L225.243 142.552L228.507 143.192L230.427 142.808L232.027 143.128L233.307 142.936L235.291 143.32L237.787 142.552L241.883 142.936H243.611L245.595 142.68H250.011L251.483 142.936L254.171 142.488H261.083L261.915 143.448L261.787 145.112L262.299 146.52L261.915 150.552V153.624L262.427 156.312L262.107 158.168L261.979 158.104V160.472L262.619 162.2L261.979 164.248L262.491 167.32L262.107 169.816L262.683 172.632L262.363 174.232L262.619 176.152L263.131 177.368L262.683 182.104L262.491 182.296L262.747 185.048L262.427 188.888L262.747 189.656V189.592L263.195 190.552L262.683 192.664V199.896L263.003 201.112L262.875 202.584L263.323 205.144L262.875 206.552L263.323 211.416V214.424L262.875 214.744H263.003L261.787 215.064H255.451L253.787 215.32H252.251L250.139 215.896L247.771 215.512L245.339 215.768H235.483L232.539 215.512L230.491 215.896L228.507 215.768H225.115L223.899 215.896L222.299 214.808ZM233.563 185.944L233.691 185.048L234.011 183.384L233.691 181.528L234.395 180.12L234.843 178.584L235.483 178.136L236.763 176.728L237.595 176.216L238.299 175.512L240.283 175.256L240.731 175L242.779 174.552L243.547 175L245.275 175.128L247.259 176.088L248.475 177.176L249.883 180.312L250.523 180.824L251.419 180.76L252.955 180.952L254.299 180.504L254.747 179.672V178.584L254.171 176.856L252.443 174.104L250.907 172.696L249.819 172.44L248.923 171.8L247.643 171.416L247.387 171.096L245.275 170.392H240.987L238.683 170.904L236.187 171.672L233.627 172.696L233.243 173.464L231.707 174.744L231.067 176.088L230.107 176.984L229.915 178.072L228.827 179.8L228.955 180.952L228.315 183.192L228.571 184.216V186.84L228.891 189.4L229.403 191.32L229.979 192.6L230.107 193.432L231.259 194.52L231.707 195.608L232.923 196.76L235.611 198.232L236.635 198.744L237.787 199.128H239.387L239.899 199.512L241.691 199.96L242.075 199.704L243.355 199.832L245.851 199.128L246.811 199.064L248.155 198.68L249.243 198.168L251.163 196.76L252.955 195.352L253.659 194.072L254.043 193.112L254.619 190.744L254.427 189.208L252.571 189.016L250.587 189.208L249.819 189.976L249.179 192.792L248.091 193.112L246.363 194.648L245.339 195.032L243.547 195.288L242.139 194.968H240.283L239.003 194.392L237.531 194.008L235.931 192.408L235.291 191.512L234.523 190.104L233.947 188.248L233.563 185.944ZM289.41 199.576L290.626 199L292.098 198.36L292.226 197.72L292.674 196.568L292.034 194.648L290.562 194.456L289.282 195.032L287.938 195.288L286.658 195.096L284.098 195.288L283.138 194.84L282.178 194.776L281.282 193.56L280.578 192.92L280.322 192.472L279.554 188.952V188.12L279.938 185.368L279.49 183.576L279.682 183.064V180.184L279.874 179.288V177.624L279.17 175.256L279.746 174.424L281.794 175.576L282.818 175.448L284.418 175.64L287.234 175.064L288.77 175.576L289.41 175.256L292.61 174.808L293.378 174.168L293.25 172.568L293.058 172.056L292.162 171.16H291.394L289.538 170.904L288.194 171.352L286.018 170.904L285.314 171.096L284.098 170.904L280.514 171.224L279.49 171.544L278.914 170.776L279.682 169.24V163.608L279.49 162.072L279.81 160.408L279.682 158.808L278.914 158.168H276.866L274.818 158.424V160.024L275.074 161.432L274.626 162.904L274.946 164.696L274.69 166.168V168.024L274.882 170.072L275.65 171.16L274.946 171.8L273.794 171.16H271.298L270.466 171.288H267.522L266.178 171.16L265.41 171.544L265.218 172.824L265.41 174.232L265.794 175.128L268.802 175.32L269.442 175.384L270.466 175.192L272.066 175.384L273.73 175.192L275.01 174.616L275.586 175.384L274.882 176.088L275.01 178.008L274.498 179.032L274.946 180.312L274.626 180.952L275.01 182.552L274.818 183.32V192.28L275.842 195.288L276.93 196.312L277.634 197.464L278.53 198.232L280.77 199.064L283.33 199.512L286.21 199.768L288.194 199.256L289.41 199.576ZM260.61 214.744L260.418 212.248V208.408L260.034 205.208V202.904L260.61 200.984L260.354 199.192L259.778 198.04L260.162 195.608V195.672L260.354 193.944L259.97 192.856L260.482 190.424L260.034 188.824V183.512L260.418 182.744L260.162 180.568V177.944L260.418 176.792L259.906 174.296L260.034 172.76L259.522 169.944L259.714 168.216V162.136L260.034 159.832L259.522 156.76V146.776L259.138 143.96L260.994 142.808L263.298 143.128L264.002 142.808L265.986 143.256L268.738 142.744L270.722 143.192L272.578 142.936H274.626L275.586 142.488L279.874 143L283.97 142.744H289.666L290.434 142.616H298.69L300.226 143.128V146.264L300.482 147.032L299.778 148.568L300.418 151.256V153.88L300.546 154.712L299.97 156.056L300.61 159.256V161.816L300.738 162.008L299.906 163.544L300.738 169.048L300.418 169.496L300.994 171.608L300.61 173.592L301.058 175.768V178.136L301.25 178.904L300.866 182.04V189.848L301.25 191.256L300.802 191.96L301.25 195.608L300.866 198.616L301.25 200.216V202.52L301.762 204.248L301.25 206.36L301.506 207.768V213.208L301.634 214.424L301.57 214.616L300.162 215.064L299.074 214.936H293.954L292.866 215.192L290.946 215.32L288.386 216.024L284.994 215.256L282.05 215.64L280.13 215.512H277.57L275.394 215.704H273.666L272.194 215.32L269.186 215.896L267.458 215.768H263.17L261.762 215.96L260.61 214.744ZM298.537 213.4V211.48L298.217 207.512V200.856L298.665 199.64L298.921 197.912L298.345 195.288L298.601 193.304L298.281 192.728L298.025 191.832L298.793 188.12L298.473 186.2L297.833 183.832L298.601 180.504L298.857 177.112L298.601 174.104V172.184L298.089 169.304L298.473 167.192V165.208L298.281 164.952L298.537 161.624V159.704L298.793 158.68L298.857 158.744V155.8L298.409 153.688V152.344L298.665 151L298.345 149.336L298.601 146.456V145.24L298.281 142.808L299.945 141.592L300.969 141.656L304.041 141.336L306.153 141.656V141.464L306.473 141.208L310.313 141.912L311.785 141.784L313.321 142.168L315.753 141.528L319.145 141.912L321.257 141.784H338.473L339.369 142.488L339.177 145.112L339.561 146.584L338.921 148.76L339.433 150.808L339.241 153.112L339.561 155.288L339.177 156.376V160.728L339.753 162.392L339.433 164.824L339.177 165.208L339.433 168.088L339.177 169.496L339.497 172.184L339.369 172.44L338.985 172.76L339.497 176.344L339.881 177.752L339.049 181.4L339.305 182.424V189.016L339.817 190.104L339.113 192.28L339.433 195.288V196.952L338.857 197.912L339.497 200.216L339.369 202.008L339.689 204.056L339.113 205.528L339.241 206.936V206.872L339.433 208.344V212.312L339.561 213.72L339.433 213.912L333.481 214.488L332.329 214.168L330.089 214.488H327.913L326.761 214.936L324.905 214.552L323.689 214.424L319.529 214.808L316.073 214.552H310.697L309.865 214.232L307.177 214.68L305.449 214.552H303.017L301.033 214.36L299.241 214.552L298.537 213.4ZM331.753 191.128V191.064L331.881 189.848L330.857 187.416L329.705 185.88L328.553 185.304L327.337 184.344L325.609 184.088L324.969 183.576L323.817 183.448L319.721 182.296L318.953 182.424L317.865 182.04L316.009 181.784L313.705 181.08L312.617 180.248L312.041 179.8L311.657 178.84L311.721 178.008L311.593 177.304L312.169 176.344L313.321 175.576L315.945 175L318.121 174.424L320.169 174.808L321.001 174.744L323.049 175.384L324.905 176.92L325.481 178.2L327.465 179.032L329.385 179.224L330.409 178.456L330.601 178.2L330.345 176.408L329.513 175.384L328.873 173.976L327.849 173.4L327.401 172.888L324.969 171.416L323.817 171.288L321.321 170.264L320.233 170.52L318.057 170.072L316.969 170.456L315.945 170.52L314.345 170.84L312.553 171.032L311.401 171.352L311.017 171.8L309.737 172.248L308.713 173.144L308.073 173.976L307.305 175.768L306.729 176.408L306.409 178.264L306.537 180.184L308.073 182.744L309.033 183.768L311.337 184.728L313.961 186.008L314.601 186.072L316.777 186.712H318.505L319.465 186.84L322.025 187.672L323.177 187.864L323.561 188.12L324.265 188.312L326.185 189.848L326.441 190.552L326.569 191.896L326.121 192.728L325.865 193.624L324.841 194.52L321.769 195.48L319.913 194.968H318.249L316.329 195.288L314.921 194.712L313.385 194.328L312.297 193.56L311.337 192.088L310.761 190.808L310.121 190.232L307.625 190.04L306.729 189.976L306.025 190.424L305.961 191.384L306.409 192.472L306.921 194.2L307.305 194.776L308.585 196.184L308.777 196.568L310.249 198.04L312.681 198.872H313.513L314.473 199.256L316.201 199.384L317.097 199.576H320.553L324.073 199H325.225L328.553 197.208L330.025 195.736L331.369 193.944L331.497 192.408L331.753 191.128Z" fill="#1F4037"/>
<path d="M33.4 20.128H39.448V46.816H53.848V52H33.4V20.128ZM66.7803 52.384C64.4123 52.384 62.3643 51.92 60.6363 50.992C58.9403 50.064 57.6123 48.72 56.6523 46.96C55.7243 45.2 55.2603 43.152 55.2603 40.816C55.2603 38.48 55.7403 36.416 56.7003 34.624C57.6923 32.832 59.0363 31.44 60.7323 30.448C62.4603 29.424 64.4123 28.912 66.5883 28.912C70.0123 28.912 72.6843 29.968 74.6043 32.08C76.5563 34.16 77.5323 37.008 77.5323 40.624V42.592H61.0683C61.2603 44.256 61.8523 45.536 62.8443 46.432C63.8683 47.328 65.1963 47.776 66.8282 47.776C68.3963 47.776 69.6123 47.456 70.4763 46.816C71.3403 46.176 71.9803 45.312 72.3963 44.224L77.5323 46.048C76.6683 48 75.3563 49.552 73.5963 50.704C71.8363 51.824 69.5643 52.384 66.7803 52.384ZM71.5323 38.512C71.4363 36.848 70.9563 35.6 70.0923 34.768C69.2283 33.936 68.0123 33.52 66.4443 33.52C65.0043 33.52 63.7883 33.968 62.7963 34.864C61.8363 35.728 61.2283 36.944 60.9723 38.512H71.5323ZM87.5151 52C86.1071 52 85.0031 51.776 84.2031 51.328C83.4351 50.848 82.8911 50.176 82.5711 49.312C82.2831 48.448 82.1391 47.344 82.1391 46V34.096H78.8751V29.344H82.1391V25.024L87.8511 21.808V29.344H92.3631V34.096H87.8511V45.424C87.8511 46 87.9791 46.416 88.2351 46.672C88.4911 46.928 88.9071 47.056 89.4831 47.056H92.1711V52H87.5151ZM94.72 32.944C96.16 32.496 97.2 31.76 97.84 30.736C98.48 29.68 98.8 28.288 98.8 26.56H96.208V20.128H102.736V25.984C102.736 27.488 102.48 28.864 101.968 30.112C101.488 31.328 100.704 32.352 99.616 33.184C98.56 34.016 97.2 34.608 95.536 34.96L94.72 32.944ZM114.606 52.672C112.398 52.672 110.414 52.24 108.654 51.376C106.894 50.512 105.454 49.344 104.334 47.872L109.038 45.232C109.678 46.096 110.494 46.784 111.486 47.296C112.51 47.776 113.598 48.016 114.75 48.016C115.806 48.016 116.638 47.808 117.246 47.392C117.854 46.976 118.158 46.384 118.158 45.616C118.158 44.944 117.806 44.464 117.102 44.176C116.43 43.888 115.262 43.584 113.598 43.264L112.35 42.976C110.814 42.688 109.47 42.304 108.318 41.824C107.198 41.312 106.27 40.592 105.534 39.664C104.83 38.736 104.478 37.568 104.478 36.16C104.478 34.784 104.862 33.552 105.63 32.464C106.43 31.344 107.518 30.464 108.894 29.824C110.27 29.152 111.79 28.816 113.454 28.816C115.63 28.816 117.582 29.264 119.31 30.16C121.07 31.024 122.526 32.24 123.678 33.808L118.974 36.256C118.366 35.328 117.582 34.624 116.622 34.144C115.694 33.664 114.67 33.424 113.55 33.424C112.494 33.424 111.646 33.632 111.006 34.048C110.398 34.464 110.094 35.024 110.094 35.728C110.094 36.272 110.27 36.688 110.622 36.976C111.006 37.232 111.694 37.488 112.686 37.744C113.582 37.904 114.462 38.08 115.326 38.272C115.582 38.304 115.838 38.352 116.094 38.416C117.598 38.736 118.91 39.152 120.03 39.664C121.182 40.176 122.11 40.88 122.814 41.776C123.518 42.672 123.87 43.808 123.87 45.184C123.87 46.592 123.47 47.872 122.67 49.024C121.87 50.144 120.766 51.04 119.358 51.712C117.95 52.352 116.366 52.672 114.606 52.672ZM149.099 52.48C147.691 52.48 146.395 52.192 145.211 51.616C144.027 51.008 143.035 50.16 142.235 49.072V52H136.475V19.648H142.235V32.128C143.035 31.072 144.027 30.272 145.211 29.728C146.395 29.152 147.723 28.864 149.195 28.864C151.083 28.864 152.779 29.328 154.283 30.256C155.819 31.184 157.019 32.528 157.883 34.288C158.779 36.048 159.227 38.112 159.227 40.48V40.528C159.227 42.928 158.779 45.04 157.883 46.864C157.019 48.656 155.819 50.048 154.283 51.04C152.747 52 151.019 52.48 149.099 52.48ZM147.515 47.632C149.179 47.632 150.507 47.024 151.499 45.808C152.523 44.592 153.035 42.896 153.035 40.72V40.384C153.035 38.176 152.539 36.512 151.547 35.392C150.587 34.272 149.243 33.712 147.515 33.712C146.427 33.712 145.451 34 144.587 34.576C143.755 35.12 143.115 35.92 142.667 36.976C142.219 38 141.995 39.184 141.995 40.528V40.96C141.995 42.336 142.219 43.536 142.667 44.56C143.115 45.552 143.739 46.32 144.539 46.864C145.371 47.376 146.363 47.632 147.515 47.632ZM170.409 52.432C167.849 52.432 165.817 51.584 164.313 49.888C162.841 48.16 162.105 45.84 162.105 42.928V29.344H168.057V42.592C168.057 44.128 168.409 45.312 169.113 46.144C169.817 46.976 170.857 47.392 172.233 47.392C173.737 47.392 174.857 46.816 175.593 45.664C176.329 44.48 176.697 42.88 176.697 40.864V29.344H182.505V52H176.649V48.784C176.009 49.968 175.161 50.88 174.105 51.52C173.081 52.128 171.849 52.432 170.409 52.432ZM187.053 29.344H193.005V52H187.053V29.344ZM187.005 20.224H193.149V26.032H187.005V20.224ZM197.6 19.696H203.552V52H197.6V19.696ZM217.028 52.48C215.14 52.48 213.428 52.016 211.892 51.088C210.356 50.128 209.14 48.768 208.244 47.008C207.38 45.248 206.948 43.168 206.948 40.768C206.948 38.432 207.38 36.368 208.244 34.576C209.14 32.752 210.356 31.344 211.892 30.352C213.46 29.36 215.188 28.864 217.076 28.864C218.516 28.864 219.812 29.168 220.964 29.776C222.148 30.352 223.156 31.184 223.988 32.272V19.696H229.748V52H223.988V49.072C223.188 50.16 222.196 51.008 221.012 51.616C219.828 52.192 218.5 52.48 217.028 52.48ZM218.708 47.632C219.828 47.632 220.804 47.344 221.636 46.768C222.5 46.192 223.156 45.392 223.604 44.368C224.052 43.312 224.276 42.112 224.276 40.768V40.384C224.276 39.008 224.052 37.824 223.604 36.832C223.188 35.808 222.548 35.04 221.684 34.528C220.852 33.984 219.86 33.712 218.708 33.712C217.012 33.712 215.652 34.32 214.628 35.536C213.636 36.752 213.14 38.448 213.14 40.624V40.96C213.14 43.168 213.636 44.832 214.628 45.952C215.62 47.072 216.98 47.632 218.708 47.632Z" fill="#1F4037"/>
<path d="M25.5222 57.6074C25.4452 59.7376 26.8222 60.7429 29.653 60.6234L31.768 64.788L30.6888 65.897L31.7503 65.8522C27.304 81.0532 24.9343 98.5228 24.6414 118.261L24.5355 124.646L25.6419 125.663L25.6242 126.727L24.545 127.836L25.6066 127.791L24.5274 128.9L25.4654 136.305L25.4301 138.433C21.8351 143.172 20.007 146.794 19.9459 149.299L15.6997 149.478L10.4897 147.571L11.6747 140.077L7.43662 136.002L8.70039 119.997L8.95553 100.844L11.1316 97.5623L11.2021 93.3055L10.1582 92.2861L10.1759 91.2219L12.299 91.1323L12.3166 90.0681L11.2727 89.0487L14.7302 68.6974L13.6686 68.7422L14.7478 67.6332L14.7912 61.2507L13.7473 60.2313L13.765 59.1671L25.5222 57.6074ZM14.589 77.2109L14.528 84.6576L15.5895 84.6128L15.6506 77.1661L14.589 77.2109ZM13.4135 87.8949L13.3076 94.2801L14.3692 94.2353L14.475 87.8501L13.4135 87.8949ZM12.1931 97.5175L12.1497 103.9L13.2113 103.855L13.2547 97.4727L12.1931 97.5175ZM13.7978 139.988L13.7096 145.309L15.8056 143.093L15.9209 139.898L13.7978 139.988ZM87.7626 53.104L89.8857 53.0144L89.788 55.1455L87.4694 59.4971L86.488 58.4751L85.4264 58.5199L87.7626 53.104ZM48.4674 55.8259L50.5906 55.7363L53.6775 57.7329L53.6951 56.6687C57.5133 57.2165 60.2731 58.8725 61.9745 61.6365C64.4306 61.5328 67.2836 68.8566 70.5335 83.6076L84.2671 60.6957L85.3463 59.5867L86.4079 59.5419L86.3902 60.6061L72.4611 87.7801L74.5843 87.6905C84.7735 65.2826 90.9296 54.0338 93.0528 53.9442L96.1397 55.9408L96.1573 54.8767C99.1963 54.7484 102.947 58.1349 107.408 65.0363L107.23 68.2341L106.151 69.3431L107.133 70.3652L106.937 74.6272L104.814 74.7168L106.644 81.0202L105.076 92.7843L104.898 95.9821L105.942 97.0015L105.862 98.0684L103.704 100.286L105.667 102.33L103.508 104.548L105.471 106.592L104.392 107.701L103.33 107.746L104.374 108.766L103.006 138.6C100.883 138.689 99.783 139.799 99.7061 141.929C97.583 142.019 96.4296 143.84 96.2459 147.393L93.0612 147.527L86.8874 143.534L88.2421 137.096L86.4122 130.793L91.6669 84.8426C88.2847 88.697 84.7417 96.6451 81.0378 108.687C80.8371 112.824 79.2914 115.725 76.4007 117.39L75.3391 117.435L75.3568 116.371L76.4984 115.259L76.5785 114.192L75.5346 113.173L77.7554 110.952L77.8708 107.757L75.7477 107.847C75.6197 111.731 74.074 114.632 71.1105 116.55L70.049 116.595L65.0168 111.49C63.1434 111.569 61.885 108.432 61.2416 102.078C57.3088 94.8628 55.4196 89.6253 55.574 86.3659L54.5124 86.4107L52.8645 99.2416L52.4736 107.766L51.2966 111.006L52.0826 116.29L51.07 139.728C49.6546 139.788 48.8877 140.884 48.7691 143.016L43.2482 148.566L42.1867 148.611L34.8712 145.729L36.2083 140.355L35.653 128.681L35.8661 123.355L36.9453 122.246L35.9639 121.224L36.0439 120.157C36.5446 109.293 38.1333 97.5279 40.81 84.8621L41.8715 84.8173L40.8276 83.7979L40.9077 82.7311L42.1647 78.4242L41.2362 74.2096L41.3163 73.1428L42.3778 73.098L42.2801 75.229L43.3416 75.1842L43.5195 71.9864L42.4755 70.967L46.0335 63.3727L46.1489 60.1775L45.0072 61.2891L43.9457 61.3339L42.9642 60.3119L43.0796 57.1167L44.1411 57.0719L45.185 58.0913L46.2466 58.0465L48.4674 55.8259ZM77.0848 102.473L78.031 105.624L79.0925 105.579C79.2241 101.778 83.192 92.0397 90.9962 76.3634L92.2709 70.9924C87.2615 77.793 82.1995 88.2866 77.0848 102.473ZM95.0646 79.382L93.9854 80.491L92.7326 107.13L93.7941 107.085L95.9131 84.6634L94.8692 83.6441L95.9307 83.5993L94.9493 82.5772L94.9669 81.513L96.1086 80.4014L96.1262 79.3372L95.0646 79.382ZM90.4629 134.875L90.072 143.399L91.1336 143.355L92.4707 137.981L91.5245 134.831L90.4629 134.875ZM119.865 48.9342L120.909 49.9536L120.954 51.0152L121.971 49.9088L127.279 49.6848C128.694 49.6251 129.435 51.3662 129.501 54.9082L130.562 54.8634C130.556 52.7368 131.261 51.6436 132.676 51.5839C134.091 51.5242 134.802 52.5576 134.809 54.6842L142.257 53.3064L153.712 54.9499L157.913 53.7092C163.325 53.4808 167.607 56.1359 170.76 61.6745L169.95 69.1529L170.994 70.1722L171.039 71.2338L168.997 77.7006L167.935 77.7454L167.908 75.6197L166.847 75.6645C161.914 89.2179 154.559 98.7448 144.782 104.245L127.861 112.404L128.061 130.474L129.159 135.745C127.744 135.804 125.999 139.423 123.925 146.6L122.908 147.706L121.846 147.751L113.3 143.858L114.315 135.308L111.076 131.19L113.071 116.218L111.965 115.201L114.985 94.8683L113.879 93.8516L114.958 92.7426L117.081 92.653L117.136 96.9045L118.197 96.8597L118.16 91.544L117.089 88.3989L119.213 88.3093L119.113 82.9962L116.963 80.9601L117.017 85.2116L115.956 85.2564C115.933 80.7533 113.785 77.2991 109.513 74.8938L108.37 68.5614L108.378 64.3072C117.502 60.1272 122.06 57.4534 122.052 56.286L122.07 55.2218L119.92 53.1857L118.903 54.2921L117.725 50.088L118.804 48.979L119.865 48.9342ZM130.854 89.9448L132.977 89.8552C141.933 85.6405 149.657 78.9339 156.15 69.7353L152.965 69.8697C138.81 71.4263 131.76 73.8507 131.815 77.1429L130.854 89.9448ZM157.266 73.942C155.186 78.0333 146.386 84.4309 130.864 93.1348L129.847 94.2411L129.892 95.3027L132.015 95.2131C142.329 91.5666 151.099 84.4613 158.327 73.8972L157.266 73.942ZM115.057 98.0556L115.04 99.1198L116.084 100.139L115.067 101.246L115.032 103.374L117.155 103.284L117.18 97.966L115.057 98.0556ZM212.759 44.4508C213.306 46.5546 216.182 47.4967 221.386 47.2771L231.446 84.0731L238.877 83.7595L238.922 84.8211L232.597 86.1514L232.642 87.213C234.765 87.1234 235.857 87.7863 235.916 89.2017L244.409 88.8433L244.454 89.9048C244.52 91.4868 241.042 93.0515 234.017 94.5991L236.409 100.879L235.482 104.108L236.812 110.433L235.796 111.539L236.857 111.494L235.841 112.601L237.44 125.295L237.708 131.664L236.602 130.647L235.541 130.692L239.397 146.481L237.274 146.57C237.185 144.447 236.432 143.416 235.017 143.475L235.061 144.537L236.257 147.677L235.196 147.722L234.089 146.705L233.028 146.75C233.118 148.873 232.455 149.964 231.039 150.024L224.97 132.201L223.908 132.246L224.087 136.493L223.026 136.537L220.365 123.888L223.639 125.877L223.595 124.815C222.743 118.471 221.547 115.331 220.007 115.396L221.024 114.289L220.889 111.105L218.766 111.194L218.9 114.379L217.839 114.424L217.66 110.178L218.676 109.071L217.615 109.116L216.598 110.222L216.419 105.976L217.48 105.931L218.587 106.948L219.648 106.903L218.542 105.887L218.273 99.5173L195.143 105.811L195.233 107.934L202.574 105.497L206.865 106.379L212.128 105.094L212.218 107.217C197.468 110.508 190.187 114.361 190.373 118.773C188.828 126.637 186.914 131.681 184.631 133.904L184.72 136.027L181.536 136.161L180.429 135.145L179.368 135.189L179.413 136.251L176.138 134.262L177.993 127.803L176.931 127.848C174.808 127.938 173.866 130.813 174.105 136.475L171.892 134.442L172.685 128.027L169.366 124.977L185.575 80.6918L186.637 80.647C186.727 82.7701 187.479 83.8018 188.894 83.742L189.732 78.3895L188.715 79.4958L187.654 79.5406L187.474 75.2944L188.312 69.9418L189.418 70.9586L190.48 70.9138L189.374 69.897L189.329 68.8355L191.273 64.4996L192.334 64.4548L193.441 65.4716L194.502 65.4268L194.457 64.3652C194.398 62.9498 193.306 62.2869 191.183 62.3765L195.864 47.2908L200.11 47.1115L199.093 48.2179L199.138 49.2795C203.931 46.2413 208.471 44.6318 212.759 44.4508ZM207.42 69.1354L199.868 91.7865L201.991 91.6969C209.069 91.3982 212.871 89.1108 213.4 84.8347L208.482 69.0906L207.42 69.1354ZM198.135 75.9079L196.325 83.4284L195.219 82.4117L194.157 82.4565L195.398 86.6579L196.46 86.6131L199.241 76.9247L199.196 75.8631L198.135 75.9079ZM186.861 85.9547L185.844 87.0611L185.934 89.1842L186.995 89.1394L187.922 85.9099L186.861 85.9547ZM193.409 89.9322L192.527 94.2232L193.589 94.1784L194.605 93.072L194.471 89.8874L193.409 89.9322ZM183.9 91.3969L183.018 95.6879L184.079 95.6431L186.023 91.3073L183.9 91.3969ZM202.081 93.82L202.126 94.8815L204.249 94.7919C210.588 93.8154 213.728 92.6195 213.669 91.2041L212.607 91.2489L202.081 93.82ZM217.928 116.547L220.052 116.457L220.32 122.827L219.259 122.872L217.928 116.547ZM233.104 123.351L233.193 125.474L234.434 129.675L235.496 129.63L235.406 127.507L234.165 123.306L233.104 123.351ZM222.623 126.983L222.712 129.106L225.852 127.91L225.763 125.787L222.623 126.983ZM283.837 47.7692L284.899 47.7244C295.181 47.2905 303.145 51.2082 308.79 59.4775L308.835 60.539L306.712 60.6286L307.818 61.6454L307.863 62.707C303.596 62.3866 301.443 61.7685 301.404 60.8526C284.877 61.5501 272.851 70.5652 265.325 87.898L263.516 95.4185L267.552 115.454L270.736 115.319C279.562 114.947 289.201 108.159 299.653 94.9568L300.715 94.912L300.76 95.9736C293.683 107.157 285.46 113.885 276.089 116.157L276.134 117.218L277.195 117.174C284.605 116.861 293.537 110.103 303.989 96.9007L307.353 101.013L307.487 104.197C307.584 106.487 302.5 112.019 292.236 120.793L291.219 121.899L290.158 121.944L290.247 124.067C302.031 117.689 307.867 113.189 307.756 110.567L309.879 110.477L309.924 111.538C301.463 122.53 291.426 128.271 279.811 128.761L279.856 129.823L285.164 129.599L289.365 128.358L290.427 128.313L290.471 129.375L277.82 131.973C272.449 132.199 266.624 128.567 260.345 121.075L260.389 122.137L266.056 130.405L266.098 131.404L262.913 131.539C256.146 127.32 252.015 121.844 250.522 115.109L248.878 101.353C248.129 83.6193 251.19 72.1467 258.06 66.9357L258.105 67.9973L252.183 78.8816L252.228 79.9432L253.29 79.8984C253.005 73.1544 261.448 63.227 278.619 50.1164L275.479 51.3123L274.417 51.3571L274.373 50.2956L283.837 47.7692ZM272.339 52.5083L273.401 52.4635L273.446 53.525L266.149 57.0233C266.089 55.6079 268.153 54.1029 272.339 52.5083ZM263.099 60.3424L263.144 61.4039L258.06 66.9357L258.015 65.8741L263.099 60.3424ZM252.511 111.835L252.645 115.019L253.886 119.221L254.947 119.176L254.902 118.114L253.572 111.79L252.511 111.835ZM374.302 40.5734L377.531 41.5005L377.621 43.6236L374.436 43.758L376.694 46.8531C375.303 50.4566 369.716 52.4648 359.933 52.8777L352.547 54.2528L351.619 57.4823L352.681 57.4375C350.77 62.5643 347.48 85.39 342.81 125.915L346.577 139.58L345.515 139.625C343.933 139.692 342.368 136.213 340.821 129.189L341.434 118.529L341.39 117.467L340.328 117.512L340.418 119.635C338.295 119.725 337.263 120.477 337.323 121.892L337.367 122.954L340.207 139.849L340.252 140.911L338.129 141L333.748 137.995L332.732 139.101L331.67 139.146C328.581 133.146 326.942 127.898 326.752 123.402L327.858 124.419L328.92 124.374L326.483 117.033L329.623 115.837L329.399 110.529L327.276 110.619L327.231 109.557C329.354 109.467 330.386 108.715 330.326 107.299L330.281 106.238L328.158 106.328C327.919 100.666 328.861 97.7903 330.984 97.7007L330.402 83.9004C331.484 82.8539 332.586 75.3633 333.707 61.4286L326.321 62.8038L311.415 62.3694L311.37 61.3079L316.633 60.0223L316.678 61.0838L317.694 59.9775L333.618 59.3055L333.483 56.1208L316.588 58.9607L315.482 57.944L314.42 57.9888L308.096 59.3191L304.821 57.3304L305.659 51.9779L304.553 50.9611C304.403 47.4226 308.575 45.4741 317.067 45.1157L374.302 40.5734ZM368.067 44.0268L368.111 45.0884L372.358 44.9092L372.313 43.8476L368.067 44.0268ZM331.298 105.132L330.16 128.575L332.284 128.486L330.998 123.223L330.908 121.1L332.897 117.825L331.836 117.87L332.852 116.764L332.808 115.702L331.701 114.686L331.656 113.624L333.6 109.288L332.36 105.087L331.298 105.132ZM408.151 37.7686L408.116 39.897L404.931 40.0314L404.913 41.0956L405.975 41.0508L426.162 39.1354L430.408 38.9562L430.391 40.0204L428.295 42.2357L429.339 43.2551L429.366 45.3808C429.395 49.0495 428.34 51.2209 426.2 51.8951L427.334 55.0376L426.219 58.275L425.175 57.2556L424.114 57.3004C414.227 58.2181 409.282 59.1357 409.279 60.0534L408.173 59.0366C396.139 61.4628 390.148 65.2605 390.2 70.4296L390.246 78.9352L415.696 75.7342L416.802 76.751L416.785 77.8152L411.477 78.0392L411.459 79.1034C414.998 78.954 416.755 79.5888 416.732 81.0077L416.777 82.0693C416.801 85.6131 416.106 87.4148 414.69 87.4746L408.321 87.7434L408.303 88.8076L415.734 88.494L415.761 90.6197C415.771 91.8287 406.925 94.6834 389.224 99.1838L388.218 110.924L389.324 111.941L389.369 113.002L388.29 114.111L388.272 115.176L389.343 118.321L388.282 118.366L389.353 121.511C389.729 124.498 387.484 130.097 382.618 138.31L374.08 137.606L375.069 126.93C372.363 127.045 370.954 125.79 370.844 123.168L370.83 122.855C371.837 121.02 372.657 109.808 373.289 89.2218L375.413 89.1322L374.369 88.1128L375.384 79.5624L376.428 80.5818L377.49 80.537L378.54 69.8582L378.548 65.6041C375.01 65.7534 373.211 65.1204 373.151 63.705L375.265 60.4254C372.434 60.5449 371.036 59.5404 371.071 57.4121C371.011 51.0339 372.042 47.8001 374.165 47.7105C377.703 47.5611 379.46 45.7146 379.436 42.1708L380.498 42.126L381.541 43.1454L383.7 40.9274L386.885 40.793L390.079 43.8485L408.151 37.7686ZM411.31 42.9525L411.292 44.0167L414.477 43.8823L426.172 42.3253L426.127 41.2638L419.757 41.5326L411.31 42.9525ZM401.812 55.0513L401.856 56.1128L402.918 56.068L424.059 53.0489L424.077 51.9847L420.91 51.0549L419.831 52.1639L418.769 52.2087L417.725 51.1893L401.812 55.0513ZM375.441 98.702L375.497 110.398L376.558 110.353L376.503 98.6572L375.441 98.702ZM378.28 128.922L378.272 133.176L379.334 133.131L379.342 128.877L378.28 128.922ZM445.325 39.6403L447.583 42.7354L446.745 48.0879L447.852 49.1047L448.913 49.0599L449.751 43.7073L451.874 43.6177L453.07 46.7576C448.269 67.395 446.11 83.4378 446.594 94.886C447.63 102.641 449.209 106.473 451.333 106.384L474.583 77.753L475.421 72.4004L474.167 42.6769L476.2 40.4642C477.616 40.4044 478.383 41.79 478.502 44.6208L479.564 44.576C479.445 41.7452 481.154 40.2551 484.693 40.1058L486.995 44.2624L486.157 49.615C487.573 49.5552 488.206 47.7561 488.056 44.2176L490.18 44.128L491.286 45.1447L492.347 45.0999L490.265 121.756L489.383 126.047C486.552 126.166 485.196 127.642 485.316 130.472L481.07 130.652L481.683 119.991L479.56 120.081L479.829 126.45L476.779 129.769L476.734 128.708L477.347 118.047C475.224 118.137 474.103 116.766 473.984 113.935L472.922 113.98L455.234 123.234L446.652 121.47L446.697 122.531C439.37 122.84 433.968 112.434 430.491 91.3117C431.978 59.3456 434.137 43.3028 436.967 43.1834L436.923 42.1218L437.984 42.077L438.163 46.3232L436.04 46.4128L436.13 48.5359L437.236 49.5527L437.281 50.6142L436.219 50.659L437.415 53.7989L434.455 59.2411L435.516 59.1963L436.533 58.0899L434.155 77.3323L434.334 81.5785L435.396 81.5337C436.479 53.8384 439.789 39.874 445.325 39.6403ZM434.379 82.6401L433.362 83.7465L433.72 92.2389L434.782 92.1941L435.44 82.5953L434.379 82.6401ZM467.645 89.7437L460.573 98.5498L461.634 98.505L468.707 89.6989L467.645 89.7437ZM437.577 108.028L437.667 110.151L438.863 113.291L439.924 113.246L439.835 111.123L438.639 107.983L437.577 108.028ZM445.232 113.022L445.277 114.084C445.38 116.54 448.655 118.528 455.1 120.05L457.223 119.96L457.178 118.899C453.096 119.029 449.114 117.07 445.232 113.022ZM508.987 36.2029C510.403 36.1432 511.2 38.2364 511.379 42.4826L513.502 42.393L516.597 40.1355L517.704 41.1523L514.905 100.823C519.311 98.5105 531.237 95.5258 550.684 91.8693L551.745 91.8245L551.79 92.886C527.191 97.9694 514.941 101.677 515.039 104.008L526.582 100.331L526.627 101.392L546.617 96.2947L546.662 97.3562L547.678 96.2499L548.74 96.2051L549.846 97.2218L555.109 95.9363L559.356 95.7571L566.831 96.505L566.876 97.5666C566.966 99.6897 561.733 101.683 551.177 103.546L551.221 104.608L552.238 103.502L553.3 103.457L560.775 104.205L561.792 103.098L561.927 106.283L527.254 116.254L505.319 125.687L502.135 125.822L497.665 120.693L496.603 120.738L496.558 119.676C496.483 117.886 497.853 116.765 500.67 116.312L500.536 113.128L497.172 109.016L499.402 61.0667L500.464 61.0219L500.643 65.2681L499.895 72.7438L502.018 72.6542L500.477 86.544L501.584 87.5608L500.701 91.8518L500.925 97.1596L501.987 97.1148L503.859 40.6731C505.274 40.6134 505.937 39.522 505.847 37.3989L506.864 36.2925L508.987 36.2029Z" fill="#3A8955"/>
</svg>
