<svg width="1024" height="1024" viewBox="0 0 1024 1024" fill="none" xmlns="http://www.w3.org/2000/svg">
<rect width="1024" height="1024" fill="#FFFAFF"/>
<path d="M551.669 159.379C550.892 159.386 550.107 159.472 549.322 159.645L542.553 161.13C536.523 162.453 532.867 168.633 534.399 174.482C535.729 179.554 537.508 187.463 538.347 194.616C538.591 196.693 537.055 198.833 535.051 199.471C534.65 199.598 534.237 199.733 533.811 199.875C529.326 201.371 523.916 203.428 519.563 206.59C513.125 211.268 508.805 215.671 505.098 223.047C503.691 225.849 502.698 228.353 501.989 230.985C501.507 232.77 499.886 234.878 498.274 235.801C488.318 241.502 482.723 250.51 481.111 260.46C480.347 265.173 480.352 270.075 480.934 275.072C481.156 276.982 480.584 277.195 479.361 275.708C479.211 275.526 479.061 275.345 478.91 275.165L478.907 275.162C476.584 272.433 473.058 271.239 469.826 271.51C468.748 271.601 467.703 271.853 466.747 272.267C462.92 273.922 460.097 277.899 460.097 282.551V289.855C460.097 290.71 459.426 291.616 458.67 292.023C456.589 293.142 454.975 295.02 454.274 297.054C453.283 299.932 453.707 303.066 455.347 305.692C455.572 306.053 455.884 306.571 456.211 307.113C456.798 308.088 457.06 309.77 456.789 310.874L452.559 328.131C452.289 329.234 451.843 331.023 451.642 332.141C450.539 338.292 451.225 344.665 453.745 350.469C455.346 354.153 457.456 358.895 459.776 364.012C460.334 365.244 459.696 366.096 458.346 365.936C454.897 365.529 452.564 365.368 450.527 365.294C449.227 365.246 447.427 364.494 446.507 363.58L439.169 356.288C438.004 355.131 436.719 354.112 435.341 353.246C432.937 351.734 429.062 349.405 427.046 347.402L420.849 341.243C416.552 336.973 410.765 334.658 404.841 334.653C404.687 334.653 404.533 334.655 404.379 334.658C402.398 334.7 399.526 334.058 397.944 332.869L376.926 317.077C374.465 315.228 371.544 314.491 368.712 314.701C363.993 315.05 359.522 318.029 357.85 322.862L357.618 323.534C356.428 326.973 357.249 330.81 359.744 333.471L367.619 341.868C367.828 342.092 367.979 342.363 368.059 342.658C368.138 342.954 368.143 343.264 368.073 343.561C368.003 343.859 367.861 344.135 367.658 344.365C367.456 344.595 367.2 344.772 366.912 344.88L352.414 350.348C346.882 352.436 344.281 358.291 345.172 363.116C346.062 367.942 350.585 372.5 356.503 372.5H359.644C360.659 372.5 361.67 372.345 362.639 372.04L371.636 369.217C375.012 368.157 375.129 368.975 373.737 372.159C372.815 374.268 372.537 376.595 372.928 378.74C373.5 381.873 375.536 384.868 378.536 386.6C380.463 387.713 384.104 388.382 386.326 388.67C388.334 388.93 390.329 388.952 392.362 388.324L392.366 388.323L396.295 386.879C398.094 386.218 399.96 387.173 400.537 388.989C401.618 392.392 403.371 397.839 404.65 402.633C406.827 410.786 408.279 413.777 408.452 420.787C408.509 423.066 408.12 426.048 407.58 429.053C407.219 431.053 405.712 431.482 404.253 430.058C402.831 428.669 401.292 427.215 399.632 425.729C398.039 424.304 395.388 422.071 393.721 420.732C384.584 413.388 373.639 406.465 362.245 408.505C358.285 409.214 355.197 410.936 353.054 412.745C350.587 414.828 349.49 418.124 349.736 420.883C349.981 423.641 351.217 426.016 353.024 427.916L376.102 452.174C386.509 463.113 405.25 478.985 419.578 483.567C423.152 484.71 426.708 485.818 430.104 487.059C438.309 490.064 450.56 495.714 459.357 499.932C465.669 502.959 470.815 507.963 474.163 514.171L499 560.22C503.196 568 504.681 581.203 502.21 589.681C493.445 619.746 484.995 645.247 484.995 645.247C484.155 647.769 485.185 649.798 486.867 650.934C490.664 653.498 496.164 644.362 497.805 639.281C504.044 619.956 518.486 573.978 526.381 538.687C527.03 535.788 528.023 531.075 528.603 528.161C532.1 510.57 535.458 488.98 537.675 473.873C538.239 470.033 538.681 466.919 538.681 466.919C539.953 458.03 537.021 449.083 530.807 442.604C518.251 426.67 497.56 412.716 487.02 395.568C486.654 394.973 486.301 394.375 485.961 393.772C490.444 396.642 491.783 382.067 489.503 374.818L489.058 373.404C488.359 371.184 487.578 368.65 487.149 367.82C483.443 357.694 474.833 348.89 472.813 338.149C472.721 337.663 473.09 337.082 473.508 337.29C474.736 337.899 476.692 340.25 477.723 341.631C484.432 350.617 489.295 362.305 492.318 372.424C493.022 374.78 494.748 378.302 495.862 380.49C497.7 384.102 499.777 388.984 502.556 391.939C504.338 393.835 508.869 393.216 509.289 390.709C509.357 390.303 509.377 389.888 509.345 389.473C509.258 388.353 508.361 386.701 507.838 385.695L503.42 377.19C502.051 374.553 500.043 370.183 498.911 367.438C497.087 363.014 494.232 356.211 491.17 349.371C488.099 342.507 482.629 331.601 478.931 325.05C474.994 318.078 470.777 311.077 467.411 305.602C465.863 303.085 467.145 300.692 469.865 301.803C470.91 302.229 471.968 302.859 473.024 303.759C476.484 306.706 482.476 315.56 487.623 324.828C492.769 334.095 497.48 343.936 500.199 349.819C502.054 353.833 504.476 357.751 507.788 361.135C511.471 364.898 517.246 370.446 524.22 375.806C526.394 377.477 530.031 380.038 532.266 381.627C543.368 389.525 557.49 399.733 567.592 407.06C574.223 411.868 577.836 419.767 577.274 427.977C575.911 447.924 574.082 482.394 575.715 508.615C578.649 555.763 570.577 630.914 570.577 630.914C569.852 637.586 577.458 638.687 578.182 632.015C578.182 632.015 581.963 616.393 584.01 594.816C584.463 590.031 586.609 589.549 588.957 593.752L618.466 646.586C620.129 649.565 623.276 649.748 625.542 648.438C628.956 646.466 625.652 638.559 623.374 634.801L612.256 616.453C608.892 610.901 605.71 605.241 602.717 599.483L588.065 571.304C586.81 568.889 585.898 564.731 586.012 562.016C586.641 547.082 586.928 531.595 586.471 517.548C586.299 512.262 585.753 503.701 585.594 498.414C585.17 484.222 585.537 468.302 586.155 454.083C586.765 440.042 588.783 415.655 580.153 404.925C579.586 404.22 578.99 403.536 578.364 402.875C576 400.38 571.421 397.129 568.629 395.108C559.372 388.404 548.126 380.29 538.827 373.671C536.276 371.855 532.124 368.932 529.661 367.001C527.726 365.484 525.884 363.948 524.165 362.449C519.027 357.971 511.932 350.613 509.585 345.536C504.588 335.066 504.353 334.59 504.114 334.108C500.171 326.158 493.372 313.439 488.361 306.108C488.158 305.811 487.955 305.517 487.751 305.226C487.403 304.729 487.122 303.84 487.115 303.236C487.079 300.298 487.726 300.288 488.928 303.158C498.688 326.453 514.213 348.105 522.619 357.439C522.645 357.469 522.672 357.499 522.7 357.528C522.7 357.528 530.319 365.645 540.608 372.378C545.388 375.505 550.778 378.396 556.551 380.012C557.283 380.216 558.48 380.508 559.225 380.657C563.783 381.57 568.649 381.555 573.242 379.941C575.56 379.126 578.991 377.034 580.933 375.532C588.654 369.562 595.14 360.302 600.52 351.322C601.98 348.883 604.261 344.878 605.611 342.377C607.245 339.35 608.688 336.512 609.899 334.044C612.315 329.12 614.023 325.152 613.956 325.296C613.956 325.296 617.932 317.235 621.424 307.011C624.915 296.786 628.331 284.526 625.992 274.078C624.274 266.397 621.901 260.413 618.157 254.711C617.455 253.642 617.873 252.633 619.146 252.459C620.372 252.292 621.542 252.16 622.617 252.068C626.395 251.746 628.844 249.689 630.394 246.732C631.334 244.941 632.297 241.776 632.764 239.807C633.765 235.59 634.432 228.641 629.173 224.877C626.83 223.2 622.326 222.299 619.242 222.561C616.503 222.794 613.23 223.125 609.755 223.642C607.319 224.004 606.394 222.687 607.782 220.665C608.362 219.819 608.946 219.003 609.523 218.243C610.495 216.965 612.246 215.029 613.413 213.923C614.593 212.805 615.933 211.634 617.289 210.51C618.491 209.514 620.511 207.966 621.542 206.798C625.803 201.966 626.793 194.772 623.264 189.011L621.351 185.89C621.351 185.89 620.509 184.412 618.945 183.124C617.85 182.222 616.6 181.543 615.275 181.099C612.877 180.296 608.564 180.568 606.316 181.72C604.852 182.47 602.877 184.347 601.633 185.472C598.88 187.962 596.806 189.738 595.302 190.977C593.539 192.431 592.789 191.829 593.728 189.75C594.972 186.992 596.582 183.441 597.39 181.719C598.818 178.675 590.877 171.31 588.027 177.383C585.829 181.978 580.064 193.71 574.327 202.708C572.395 205.739 570.093 205.214 569.421 201.687L563.126 168.692C562.078 163.197 557.103 159.336 551.669 159.379ZM481.986 165.262C480.62 165.357 479.347 165.987 478.448 167.014C476.576 169.152 476.803 172.394 478.955 174.254C482.164 177.027 483.602 178.456 486.394 181.645C488.999 184.621 490.149 186.12 492.345 189.406C493.923 191.766 497.128 192.409 499.504 190.842C501.879 189.273 502.526 186.089 500.949 183.728C498.613 180.233 496.958 178.074 494.187 174.909C491.218 171.518 489.147 169.46 485.734 166.51C484.701 165.617 483.353 165.168 481.986 165.262ZM655.5 168.823C654.482 168.912 653.515 169.3 652.719 169.936C652.719 169.936 648.423 173.321 645.518 176.26C642.975 178.833 640.003 182.573 640.003 182.573C638.221 184.787 638.584 188.017 640.813 189.787C643.041 191.557 646.292 191.196 648.072 188.982C648.072 188.982 651.114 185.245 652.886 183.452C654.911 181.404 659.193 177.933 659.193 177.933C661.416 176.157 661.768 172.926 659.98 170.718C659.122 169.657 657.875 168.979 656.513 168.832C656.176 168.796 655.837 168.793 655.5 168.823ZM553.785 174.839L561.151 213.451C561.668 216.158 560.602 220.028 558.736 222.066C557.318 223.615 556.02 225.005 554.95 226.139C553.329 227.858 550.399 230.826 550.527 233.111C550.596 234.344 551.111 235.556 552.069 236.489C554.106 238.473 557.377 238.44 559.374 236.415C559.374 236.415 568.845 226.881 576.412 217.445C577.036 216.667 577.62 216.862 578.088 217.736C579.791 220.918 584.602 221.524 586.891 218.203C591.447 211.594 594.044 208.298 599.409 202.317C601.73 199.729 604.276 197.041 606.914 194.462C609.063 191.956 610.971 191.036 613.042 192.788C613.927 193.536 614.99 195.184 615.078 196.328C615.093 196.522 615.095 196.717 615.086 196.912C614.972 199.263 611.523 201.891 609.663 203.464C607.554 205.246 605.461 207.17 603.683 209.138C599.548 213.715 595.804 219.82 593.396 224.12C591.961 226.682 588.712 229.788 586.101 231.156C573.556 237.731 564.996 246.072 558.042 258.495C556.539 261.179 554.208 266.344 555.945 268.703C556.757 269.807 562.998 271.515 564.759 267.91C572.461 252.121 580.053 244.821 596.186 237.689C599.75 236.113 611.346 233.165 616.323 232.97C620.536 232.804 622.025 232.526 621.853 236.663C621.76 238.877 620.933 242.347 616.577 242.362C608.201 242.39 597.732 245.616 590.32 252.017C583.478 257.926 580.684 263.609 578.839 270.192C577.723 274.174 576.462 280.84 574.497 284.469C570.76 291.372 564.056 297.258 556.563 301.531C554.046 302.864 553.094 305.972 554.435 308.473C555.777 310.974 558.905 311.92 561.422 310.587C563.155 309.698 569.023 305.306 573.207 302.28C574.747 301.167 576.18 301.843 575.876 303.708C574.279 313.513 562.678 321.905 551.971 328.27C548.458 330.359 541.948 334.873 543.387 338.274C543.877 339.432 544.747 340.439 545.847 341.033C548.179 342.292 552.611 339.776 555.037 338.432C555.796 338.012 556.555 337.589 557.314 337.163C559.971 335.673 562.782 336.778 563.121 339.791C563.274 341.146 563.048 343.578 562.691 345.174C562.646 345.377 562.599 345.574 562.551 345.766C561.677 349.232 558.458 355.311 560.787 357.733C561.388 358.358 562.935 359.221 564.147 359.308C567.221 359.529 570.475 354.266 571.637 351.069C572.459 348.809 573.018 346.495 573.429 343.793C574.236 338.49 572.421 333.978 571.881 330.693C571.567 328.781 573.409 326.152 574.797 324.738C577.363 322.124 580.431 318.334 582.858 313.035C583.784 311.012 584.984 310.998 585.462 313.167C585.487 313.279 585.511 313.391 585.535 313.504C586.275 316.966 587.489 323.561 590.762 324.201C591.293 324.304 591.85 324.326 592.416 324.254C593.423 324.126 594.324 323.718 595.052 323.119C597.172 321.373 596.615 316.21 596.088 313.404C596.065 313.282 596.042 313.16 596.018 313.036C595.394 309.804 593.811 304.655 592.128 301.827C591.553 300.86 590.973 299.99 590.427 299.134C588.828 296.626 586.888 291.742 587.849 288.949C588.337 287.529 589.557 287.588 590.9 288.245C594.002 289.763 595.697 292.243 595.697 292.243C599.263 296.081 604.124 299.48 608.188 301.965C610.028 303.09 610.998 305.583 610.244 307.595C606.221 318.339 600.515 330.027 596.246 337.971C595.099 340.106 593.165 343.527 591.888 345.588C586.468 354.338 578.062 365.58 571.923 369.266C568.598 371.264 564.851 371.485 560.333 370.389C555.814 369.292 550.816 366.768 546.29 363.806C537.286 357.915 530.361 350.635 530.285 350.555C520.812 340.022 506.42 317.961 498.419 299.075C497.256 296.331 498.579 292.949 501.16 291.438C506.871 288.094 513.973 283.49 515.686 282.204C517.586 280.776 522.809 280.108 521.324 286.546C520.76 288.989 518.815 292.639 518.156 295.059C517.847 296.193 517.625 297.437 517.587 298.771C517.535 300.571 518.131 303.473 518.775 305.159C519.7 307.58 521.034 309.453 522.822 311.355C524.267 312.893 526.791 315.349 528.774 316.047C529.449 316.286 530.131 316.405 530.775 316.353C532.045 316.252 533.647 314.572 534.021 313.342C534.571 311.53 534.086 309.483 532.599 308.104C530.802 306.438 529.823 305.336 529.15 303.894C528.188 301.832 528.12 298.092 528.598 295.865C528.776 295.038 529.003 294.262 529.315 293.617C530.449 291.264 535.967 293.953 538.286 295.933C538.686 296.274 541.209 298.447 543.873 297.716C544.016 297.677 544.157 297.632 544.296 297.58C545.55 297.118 547.122 295.411 547.476 294.13C547.573 293.776 547.632 293.414 547.652 293.051C547.784 290.629 544.499 287.58 542.518 286.028C540.883 284.746 537.771 282.759 535.462 282.021C534.462 281.702 533.587 281.502 532.916 281.327C529.415 280.414 523.565 277.912 527.389 271.674C530.747 266.197 536.175 259.11 536.342 250.68C536.42 248.565 536.044 246.502 535.389 244.517C534.782 242.677 535.051 240.041 536.227 238.495C543.642 228.742 548.031 219.952 548.983 206.318C549.104 204.572 549.187 201.734 549.141 199.985C548.955 193.027 547.599 185.468 546.189 179.216C545.785 177.423 544.596 174.498 544.962 172.716C545.053 172.275 545.247 171.899 545.564 171.579C546.773 170.356 549.938 169.425 551.513 170.081C552.967 170.688 553.372 172.676 553.785 174.839ZM453.935 200.018C453.256 199.993 452.58 200.1 451.944 200.334C450.659 200.807 449.617 201.767 449.045 203.004C447.853 205.579 448.988 208.626 451.58 209.81C451.58 209.81 458.178 212.823 461.931 214.483C467.336 216.872 474.211 218.725 474.211 218.725C476.96 219.484 479.808 217.885 480.571 215.153C481.334 212.423 479.725 209.594 476.977 208.836C476.977 208.836 470.292 206.944 466.132 205.105C462.515 203.506 455.895 200.484 455.895 200.484C455.278 200.202 454.612 200.044 453.935 200.018ZM537.583 214.003C536.297 219.834 533.956 224.278 530.234 229.391C528.588 231.652 525.73 232.402 523.739 231.695C521.484 230.895 519.116 230.518 516.738 230.492C514.607 230.469 513.488 229.328 514.34 227.633C517.455 221.434 519.772 219.154 525.661 214.876C527.818 213.309 531.002 211.887 533.756 210.824C536.275 209.851 538.162 211.38 537.583 214.003ZM673.641 209.466C672.963 209.491 672.296 209.649 671.68 209.93C671.68 209.93 666.632 212.22 663.646 213.355C660.339 214.612 654.46 216.395 654.46 216.395C651.73 217.216 650.187 220.08 651.013 222.793C651.84 225.505 654.722 227.038 657.452 226.217C657.452 226.217 663.31 224.471 667.336 222.941C670.972 221.558 675.988 219.26 675.988 219.26C678.58 218.078 679.718 215.031 678.528 212.455C677.957 211.218 676.915 210.257 675.631 209.784C674.995 209.549 674.319 209.441 673.641 209.466ZM515.74 240.81C516.503 240.775 517.22 240.792 517.886 240.856C518.773 240.942 519.57 241.113 520.262 241.359C523.03 242.342 524.917 244.145 525.976 249.185C526.638 252.337 525.904 255.579 523.784 259.252C521.665 262.926 518.15 266.795 514.008 270.367C508.991 274.693 503.13 278.551 497.898 281.577C495.384 283.032 492.676 281.858 492.11 279.022C490.878 272.845 490.504 267.056 491.308 262.091C492.748 253.208 497.026 246.771 507.766 242.634C510.745 241.487 513.45 240.915 515.74 240.81ZM459.835 241.849C458.123 241.851 454.318 241.899 451.264 242.239C447.233 242.688 442.027 243.922 442.027 243.922C439.248 244.56 437.516 247.316 438.158 250.077C438.801 252.839 441.574 254.56 444.353 253.922C444.353 253.922 449.618 252.751 452.414 252.44C455.237 252.125 460.688 252.116 460.688 252.116C463.541 252.13 465.865 249.844 465.879 247.01C465.894 244.177 463.594 241.867 460.743 241.852C460.743 241.852 460.405 241.848 459.835 241.849ZM607.486 257.382C611.976 263.034 614.026 267.888 615.91 276.306C616.609 279.428 616.338 283.933 615.488 288.852C615.035 291.472 612.667 292.461 610.447 290.978C607.681 289.13 604.986 287.108 603.285 285.279C598.256 279.867 596.301 274.003 593.711 267.455C593.062 265.814 593.378 263.354 594.604 262.08C597.693 258.872 600.608 257.322 603.395 256.252C604.73 255.739 606.599 256.266 607.486 257.382ZM646.142 259.994C643.679 259.938 641.52 261.619 640.984 264.008C640.363 266.774 642.117 269.516 644.9 270.133C644.9 270.133 650.538 271.406 653.58 272.378C656.455 273.297 661.504 275.382 661.504 275.382C664.133 276.48 667.161 275.252 668.265 272.639C669.37 270.026 668.134 267.018 665.505 265.92C665.505 265.92 660.505 263.81 656.743 262.608C652.762 261.336 647.148 260.116 647.148 260.116C646.817 260.043 646.48 260.002 646.142 259.994ZM472.519 283.763C473.658 285.603 474.603 288.22 475.292 290.974C475.614 292.258 474.86 292.795 473.615 292.328C473.093 292.131 472.572 291.96 472.052 291.809C471.162 291.549 470.426 290.646 470.426 289.725V283.574C470.391 282.784 470.629 282.487 470.939 282.445C471.517 282.367 472.204 283.255 472.519 283.763ZM373.531 327.395L385.847 336.648C386.053 336.804 386.212 337.014 386.305 337.255C386.398 337.495 386.421 337.757 386.371 338.01C386.322 338.263 386.202 338.497 386.026 338.686C385.849 338.874 385.623 339.01 385.372 339.077L383.032 339.707C382.231 339.922 381.387 339.916 380.59 339.69C379.793 339.463 379.073 339.025 378.508 338.423L368.431 327.678C367.897 327.109 367.28 325.892 367.808 325.435C369.013 324.393 371.965 326.218 373.531 327.395ZM463.835 339.824C465.264 344.029 468.391 351.176 470.906 355.731C473.723 360.831 477.08 367.029 478.53 370.875C479.686 373.941 480.664 377.679 481.393 380.877C482.279 384.768 481.3 385.098 479.378 381.594C474.51 372.718 469.149 363.282 465.871 354.994C464.045 350.376 462.307 342.461 461.822 337.516C461.633 335.587 462.745 336.613 463.835 339.824ZM404.843 344.914C408.064 344.914 411.201 346.172 413.544 348.501L414.126 349.079C415.209 350.156 414.871 351.276 413.377 351.612C409.512 352.481 405.341 353.584 401.322 355.014C399.851 355.537 397.533 355.476 396.12 354.815L395.303 354.433C392.501 353.123 389.303 352.911 386.352 353.836L362.983 361.169C361.106 361.758 357.875 362.594 356.099 361.821C354.962 361.326 354.369 360.513 355.83 359.511L365.617 356.055C373.78 353.172 382.052 350.603 390.415 348.354L401.619 345.341C402.686 345.055 403.769 344.914 404.843 344.914ZM423.38 360.159C426.456 359.994 429.516 361.214 431.864 363.547L433.058 364.733C433.991 365.66 433.702 366.645 432.44 367.028C427.882 368.41 423.426 370.685 420.529 372.376C418.724 373.43 415.709 374.011 413.681 373.488L411.123 372.828C408.691 372.202 406.121 372.329 403.763 373.195L393.173 377.085C390.362 378.117 387.329 378.398 384.375 377.9L384.057 377.846C382.876 377.647 382.607 376.322 383.655 375.723C389.192 372.553 394.943 369.295 398.202 367.536C404.343 364.223 414.868 361.642 422.062 360.314C422.5 360.234 422.94 360.182 423.38 360.159ZM445.205 375.652C447.649 375.612 450.152 375.689 452.45 375.82C456.573 376.055 461.777 379.239 464.096 382.635L519.913 464.388C523.867 470.179 526.248 480.488 525.173 487.404C522.939 501.779 520.186 518.191 517.416 531.325C515.895 538.532 513.976 546.412 511.893 554.497C511.134 557.443 509.334 557.654 507.888 554.974L483.268 509.323C478.928 501.276 472.193 494.69 463.846 490.688C440.79 479.632 430.972 476.45 424.652 474.501C413.241 470.98 397.226 459.357 388.685 450.974C380.655 443.091 373.1 434.272 364.847 425.43C363.444 423.927 359.81 420.876 361.16 419.723C362.47 418.605 366.118 418.315 368.517 418.838C373.987 420.029 381.23 424.098 387.694 429.133C389.007 430.155 391.071 431.893 392.317 432.995C392.691 433.325 393.06 433.655 393.424 433.984C400.598 440.467 413.273 445.948 419.881 440.682C420.788 439.959 421.759 439.238 422.807 438.546C426.359 436.197 433.065 434.099 437.325 433.816C445.282 433.287 452.484 434.99 457.403 435.149C460.657 435.254 463.813 430.054 461.323 428.088C461.308 428.076 461.292 428.064 461.276 428.052C460.432 427.401 458.712 426.943 457.67 426.679C452.095 425.269 437.677 422.218 426.93 425.191C426.93 425.191 424.685 425.781 422.1 426.953C419.877 427.962 418.501 427.062 418.69 424.64C419.08 419.657 418.707 414.662 416.554 406.532C414.75 399.718 412.23 393.122 409.404 386.652C408.322 384.173 409.582 382.764 411.769 384.316C414.59 386.317 418.016 389.276 421.685 391.174C423.921 392.331 427.999 392.557 430.525 392.437C431.963 392.368 433.603 392.325 435.232 392.355C438.681 392.418 444.136 393.817 447.38 395.007C447.662 395.11 447.941 395.213 448.213 395.315C450.989 396.353 455.315 398.428 457.943 399.796C459.461 400.585 461.132 401.424 462.657 402.107C465.117 403.21 468.6 401.229 467.543 398.901C466.823 397.314 463.588 395.386 461.238 394.015L452.095 388.682C450.019 387.471 446.597 385.391 444.218 385.174C443.717 385.128 441.293 385.132 438.809 385.132H429.977C427.752 385.132 423.587 383.459 424.683 381.855C426.418 379.316 433.734 377.357 436.038 376.658C438.502 375.987 441.796 375.706 445.205 375.652ZM522.873 449.21C523.049 449.394 523.204 449.556 523.328 449.685C524.831 451.252 526.024 453.033 526.896 454.944C527.615 456.52 527.167 456.731 526.189 455.298L522.33 449.646C521.028 447.739 521.272 447.544 522.873 449.21Z" fill="#FF00FF"/>
<path fill-rule="evenodd" clip-rule="evenodd" d="M239.231 708.012C240.005 707.943 240.711 708.186 241.288 708.702C241.765 709.13 242.126 709.716 242.405 710.392L242.519 710.687L242.524 710.699L242.564 710.828C242.649 711.133 242.669 711.464 242.664 711.781C242.657 712.158 242.612 712.592 242.535 713.072C242.382 714.033 242.092 715.26 241.676 716.738C240.842 719.7 239.474 723.765 237.579 728.921L237.577 728.928C235.687 733.966 234.228 738.009 233.2 741.058C232.172 744.105 231.598 746.094 231.431 747.094C231.394 747.464 231.488 747.648 231.619 747.779C231.794 747.954 232.168 748.161 232.9 748.285C233.624 748.376 235.262 748.397 237.901 748.327C240.532 748.258 244.087 748.1 248.567 747.856H248.583L248.597 747.855C251.509 747.784 253.825 748.172 255.269 749.266C256.022 749.836 256.525 750.591 256.62 751.524C256.711 752.42 256.409 753.325 255.894 754.196L255.876 754.228L255.855 754.257C255.003 755.487 253.498 756.176 251.637 756.511C249.783 756.844 246.154 756.999 240.844 756.999C236.721 756.999 233.553 757.099 231.329 757.297C230.215 757.396 229.364 757.518 228.759 757.654C228.456 757.723 228.237 757.79 228.087 757.851C227.947 757.907 227.914 757.94 227.929 757.926C227.364 758.5 226.865 759.646 226.595 761.6C226.498 762.318 226.513 762.792 226.579 763.076C226.608 763.2 226.638 763.26 226.655 763.284C226.827 763.355 227.328 763.474 228.303 763.596C229.255 763.715 230.547 763.827 232.184 763.932C234.608 764.074 236.65 764.379 238.29 764.863C239.817 765.314 241.071 765.943 241.941 766.812L242.11 766.988L242.112 766.991C242.974 767.945 243.602 768.883 243.846 769.792C244.112 770.779 243.918 771.73 243.18 772.467C242.519 773.128 241.514 773.521 240.352 773.763C239.165 774.01 237.674 774.125 235.905 774.125H232.301L232.269 774.123C229.457 773.95 227.227 773.953 225.56 774.12C223.84 774.293 222.907 774.626 222.504 774.952C222.325 775.097 222.031 775.45 221.636 776.125C221.255 776.778 220.82 777.659 220.334 778.777C219.362 781.013 218.212 784.133 216.885 788.148L216.883 788.155C215.406 792.514 214.012 796.218 212.702 799.262C211.399 802.29 210.226 804.56 209.18 806.017C208.659 806.742 208.101 807.341 207.492 807.684C206.83 808.056 206.059 808.139 205.344 807.716C203.709 806.767 203.328 804.775 203.563 802.494C203.806 800.145 204.733 797.045 206.286 793.235C208.243 788.239 209.733 784.24 210.759 781.233C211.536 778.954 212.028 777.3 212.264 776.227H207.947C206.941 776.227 205.896 776.293 204.813 776.429L204.781 776.433L204.748 776.435C203.56 776.504 202.478 776.575 201.503 776.645C200.547 776.713 199.627 776.815 198.745 776.95L198.711 776.955L198.677 776.958C197.865 777.026 197.271 777.124 196.871 777.238L196.844 777.246L196.818 777.252C195.459 777.561 194.361 778.184 193.49 779.114C192.581 780.086 191.391 781.986 189.924 784.92C188.797 787.276 187.788 789.145 186.897 790.509C186.451 791.192 186.021 791.767 185.609 792.219C185.207 792.66 184.772 793.037 184.304 793.257L184.217 793.299L184.122 793.322C183.207 793.551 182.276 793.461 181.539 792.816C180.858 792.221 180.522 791.301 180.368 790.298L180.359 790.241L180.357 790.185C180.281 788.196 180.739 785.756 181.667 782.902C182.083 781.62 182.38 780.59 182.563 779.806C182.756 778.982 182.796 778.541 182.779 778.373C182.767 778.249 182.725 778.167 182.646 778.088C182.552 777.993 182.365 777.868 182.013 777.759C179.006 776.85 176.841 776.01 175.652 775.218C175.009 774.789 174.495 774.247 174.208 773.567C173.917 772.88 173.896 772.145 174.08 771.411C174.296 770.256 175.219 769.521 176.332 769.072C177.474 768.612 179.035 768.35 180.95 768.241C182.747 768.068 184.189 767.855 185.287 767.606C186.344 767.365 186.99 767.109 187.332 766.889C187.874 766.302 188.432 765.117 188.896 763.126C189.135 762.103 189.238 761.358 189.238 760.858C189.238 760.721 189.228 760.616 189.218 760.538C189.151 760.532 189.069 760.527 188.972 760.524C188.589 760.513 188.044 760.534 187.325 760.594C185.89 760.713 183.851 760.981 181.197 761.399L181.182 761.402L181.169 761.403C178.414 761.756 176.185 761.905 174.508 761.831C173.669 761.794 172.933 761.701 172.323 761.534C171.761 761.381 171.221 761.139 170.818 760.744C169.8 759.921 169.029 759.03 168.749 758.054C168.434 756.955 168.794 755.954 169.588 755.16C170.331 754.417 171.476 753.82 172.896 753.316C174.336 752.806 176.155 752.359 178.337 751.969L179.072 751.837C180.821 751.534 182.808 751.26 185.03 751.013L185.041 751.012L192.861 750.23L195.152 744.888L195.157 744.875L195.164 744.862C196.889 741.138 197.779 738.047 197.91 735.564L197.912 735.535L197.915 735.508C198.29 732.053 199.73 729.163 202.23 726.891C203.459 725.774 204.714 725.027 205.991 724.807C207.315 724.578 208.546 724.938 209.623 725.799C210.672 726.638 210.991 727.861 210.774 729.208C210.579 730.419 209.852 732.568 208.667 735.564L208.663 735.574C206.782 740.17 205.583 743.883 205.041 746.731L205.036 746.758L204.406 749.272C211.907 748.97 217.734 748.751 221.886 748.615L224.323 739.456L224.324 739.454C226.079 732.927 227.669 727.906 229.094 724.416L229.097 724.406L229.101 724.397C229.759 722.876 230.242 721.599 230.56 720.561C230.883 719.507 231.016 718.761 231.016 718.279C231.016 717.177 231.399 716.01 232.058 714.806C232.721 713.595 233.693 712.288 234.95 710.888C235.697 710.05 236.415 709.375 237.103 708.892C237.784 708.413 238.5 708.077 239.231 708.012ZM210.188 757.682C207.488 757.629 205.307 757.66 203.639 757.772C201.938 757.885 200.872 758.077 200.331 758.293L200.246 758.327L200.156 758.346C199.892 758.399 199.744 758.511 199.635 758.693C199.501 758.916 199.384 759.317 199.384 759.991C199.384 761.68 198.817 763.125 197.652 764.237C197.368 764.58 197.233 764.88 197.185 765.138C197.147 765.345 197.157 765.569 197.236 765.82C197.284 765.846 197.364 765.884 197.487 765.928C197.791 766.036 198.242 766.144 198.864 766.24C200.105 766.432 201.889 766.557 204.238 766.609C208.932 766.714 212.002 766.479 213.588 765.986C213.982 765.816 214.47 765.455 215.04 764.808C215.619 764.15 216.242 763.245 216.904 762.073C217.566 760.902 217.946 759.988 218.099 759.312C218.227 758.748 218.17 758.471 218.114 758.346C218.063 758.325 217.985 758.297 217.874 758.267C217.541 758.175 217.035 758.085 216.333 758.004C214.935 757.843 212.893 757.734 210.188 757.682Z" fill="#FF00FF"/>
<path fill-rule="evenodd" clip-rule="evenodd" d="M719.588 653.635C723.388 651.735 726.338 651.035 728.438 651.535C730.038 651.935 731.388 652.81 732.488 654.16C733.588 655.51 734.338 657.035 734.738 658.735C735.038 659.935 735.263 661.16 735.413 662.41C735.563 663.66 735.588 665.01 735.488 666.46C735.388 667.91 735.313 669.135 735.263 670.135C735.213 671.135 734.988 672.486 734.588 674.186C734.188 675.885 733.913 677.11 733.763 677.86C733.613 678.61 733.213 679.91 732.563 681.76C731.913 683.61 731.513 684.785 731.363 685.285C731.213 685.785 730.763 687.06 730.013 689.11C729.263 691.16 728.838 692.334 728.738 692.635C726.238 699.335 724.238 703.735 722.738 705.835C721.738 707.235 718.838 712.485 714.038 721.585C709.138 730.685 705.738 736.136 703.838 737.936C701.138 740.436 698.138 743.686 694.838 747.686C691.538 751.685 688.688 755.436 686.288 758.936C683.888 762.435 682.788 764.635 682.988 765.535C682.988 767.135 684.388 770.785 687.188 776.485C690.588 782.985 694.538 786.235 699.038 786.235C699.938 786.235 700.863 786.135 701.813 785.936C702.763 785.736 703.963 785.385 705.413 784.885C706.863 784.385 707.788 784.085 708.188 783.985C709.288 783.685 711.088 782.785 713.588 781.285C716.688 779.385 719.638 777.335 722.438 775.135C724.638 773.235 726.563 772.461 728.213 772.811C728.456 772.862 728.682 772.941 728.892 773.046C729.053 772.194 729.269 771.216 729.539 770.11C730.089 767.86 730.415 766.185 730.515 765.085C730.615 763.285 731.815 758.935 734.115 752.035C736.414 745.135 738.264 740.235 739.664 737.335C743.364 729.635 745.815 722.185 747.015 714.985C747.815 709.585 753.614 695.435 764.414 672.535C765.614 669.935 767.065 667.81 768.765 666.16C770.465 664.51 772.665 662.885 775.365 661.285C780.264 658.485 784.114 657.585 786.914 658.585C788.514 659.185 789.79 660.261 790.74 661.811C791.689 663.36 792.24 665.035 792.39 666.835C792.54 668.635 792.515 670.435 792.315 672.235C791.615 677.635 789.115 685.286 784.815 695.186C778.015 710.485 773.515 720.585 771.315 725.485C772.515 725.685 773.79 725.81 775.14 725.86C776.49 725.91 778.065 725.86 779.865 725.71C781.664 725.56 782.965 725.485 783.765 725.485C788.965 725.385 792.764 726.635 795.164 729.235C798.764 733.235 798.614 739.136 794.714 746.936C789.914 756.335 783.265 764.735 774.765 772.135C775.865 772.935 777.065 773.786 778.365 774.686C779.664 775.585 781.014 776.535 782.414 777.535C783.814 778.535 784.965 779.385 785.865 780.085C790.564 783.385 794.264 785.335 796.964 785.936C802.064 787.136 807.765 786.136 814.065 782.936C815.865 781.936 818.414 780.385 821.714 778.285C825.014 776.185 827.514 774.685 829.214 773.785C830.314 773.185 831.165 772.885 831.765 772.885C832.865 772.885 833.74 773.361 834.39 774.311C835.04 775.26 835.364 776.285 835.365 777.385V777.686C835.164 779.185 834.215 780.936 832.515 782.936C827.915 788.336 822.239 792.461 815.49 795.311C808.74 798.16 801.814 799.335 794.714 798.835C793.114 798.735 791.815 798.535 790.815 798.235C789.715 797.835 788.164 796.935 786.164 795.535C781.964 792.635 772.564 786.085 757.964 775.885C755.865 774.485 754.215 773.885 753.015 774.085C751.515 774.285 750.115 775.385 748.815 777.385C746.215 781.485 744.615 785.985 744.015 790.885C743.815 792.684 743.565 793.935 743.265 794.635C742.565 795.935 741.389 796.81 739.74 797.26C738.09 797.71 736.564 797.585 735.164 796.885C732.664 795.885 730.615 793.635 729.015 790.135C728.315 788.835 727.915 787.46 727.815 786.01C727.769 785.342 727.766 784.547 727.805 783.624C727.446 783.995 727.032 784.391 726.563 784.811C725.613 785.66 724.837 786.286 724.238 786.686C723.638 787.086 722.787 787.66 721.688 788.41C720.588 789.16 719.888 789.635 719.588 789.835C718.788 790.335 717.588 791.085 715.988 792.085C714.388 793.085 713.188 793.835 712.388 794.335C708.988 796.635 705.538 797.985 702.038 798.385C698.638 798.885 696.088 798.91 694.388 798.46C692.688 798.01 690.188 796.685 686.888 794.485C682.688 791.585 679.288 788.435 676.688 785.035C675.975 784.103 675.327 783.18 674.741 782.27C674.368 782.594 673.971 782.917 673.546 783.235C672.246 784.135 670.746 785.036 669.046 785.936C668.746 786.036 668.396 786.235 667.996 786.535C666.596 787.335 665.396 787.785 664.396 787.885C661.396 788.085 658.496 786.885 655.697 784.285C654.997 783.685 654.247 782.635 653.447 781.135L652.996 780.385C652.097 778.885 651.246 777.935 650.447 777.535C649.647 777.135 648.646 777.235 647.447 777.835C645.947 778.635 644.246 781.086 642.346 785.186C641.446 787.285 640.696 788.735 640.096 789.535C638.196 792.335 636.546 793.935 635.146 794.335C633.346 795.235 630.896 796.635 627.796 798.535C623.996 800.835 620.396 802.085 616.996 802.285C613.096 802.585 610.196 802.985 608.296 803.485C607.796 803.585 607.296 803.635 606.796 803.635C605.696 803.635 604.746 803.435 603.947 803.035C602.747 802.535 600.996 801.185 598.697 798.985C596.197 796.685 594.496 794.66 593.596 792.91C592.917 791.59 592.239 789.516 591.56 786.687C589.364 788.712 587.573 790.112 586.183 790.885C584.983 791.685 583.583 792.46 581.983 793.21C580.383 793.96 578.883 794.635 577.483 795.235C576.083 795.835 574.783 796.361 573.583 796.811C572.383 797.26 571.358 797.66 570.508 798.01C569.659 798.359 569.184 798.535 569.083 798.535C566.583 799.635 564.033 800.385 561.433 800.785C558.833 801.185 556.758 801.41 555.208 801.46C553.658 801.51 552.133 801.836 550.633 802.436C549.133 803.036 547.807 804.286 546.657 806.186C545.508 808.086 544.433 810.936 543.433 814.735C542.733 817.335 541.883 822.135 540.883 829.135C539.883 836.135 538.557 842.085 536.907 846.985C535.257 851.885 532.783 855.935 529.483 859.135C526.983 861.535 524.707 863.136 522.657 863.936C520.608 864.735 518.933 864.835 517.633 864.235C516.333 863.635 515.158 862.635 514.108 861.235C513.058 859.835 512.333 858.085 511.933 855.985C511.533 853.885 511.232 851.785 511.032 849.686C510.832 847.586 510.933 845.485 511.333 843.385C512.033 837.985 513.308 832.61 515.157 827.26C517.007 821.91 519.558 815.56 522.808 808.21C526.058 800.86 528.233 795.785 529.333 792.985C529.543 792.455 529.748 791.911 529.953 791.353C527.55 793.055 525.209 794.849 522.929 796.735C519.029 799.835 514.979 801.986 510.779 803.186C505.879 804.585 502.078 805.336 499.378 805.436C496.578 805.535 493.128 804.985 489.029 803.785C485.129 802.785 482.004 801.46 479.654 799.811C477.304 798.161 475.479 796.035 474.179 793.436C472.879 790.836 472.204 787.56 472.154 783.61C472.104 779.66 472.578 775.185 473.578 770.186C474.478 765.086 475.978 758.935 478.078 751.735C478.678 749.935 478.479 749.035 477.479 749.035C474.779 749.035 469.529 753.836 461.729 763.436C453.929 773.035 447.878 782.036 443.578 790.436C440.578 796.235 438.078 799.736 436.078 800.936C434.078 802.135 431.828 801.535 429.328 799.135C427.229 797.235 426.228 795.41 426.328 793.66C426.428 791.91 427.729 788.185 430.229 782.485C432.329 778.285 433.378 775.385 433.378 773.785C433.378 772.385 434.429 769.485 436.529 765.085C437.929 760.085 438.378 757.435 437.878 757.135C436.778 757.135 434.603 758.911 431.354 762.46C428.104 766.01 424.704 770.26 421.154 775.21C417.604 780.16 414.928 784.335 413.128 787.735C410.328 792.935 407.779 796.235 405.479 797.635C403.537 798.817 401.595 798.787 399.653 797.545C398.056 798.482 396.439 799.314 394.799 800.035C394.599 800.135 394.324 800.26 393.974 800.41C393.624 800.56 393.249 800.71 392.849 800.86C392.449 801.01 392.049 801.161 391.65 801.311C391.25 801.461 390.924 801.586 390.674 801.686L390.299 801.835C384.199 804.335 377.649 805.785 370.65 806.186C363.45 806.586 358.2 805.935 354.9 804.235C354.5 804.035 352.899 803.335 350.099 802.135C347.299 800.935 345.299 799.885 344.099 798.985C341.799 797.485 339.599 794.235 337.499 789.235C337.208 788.564 336.93 787.898 336.66 787.238C334.738 788.969 333.147 790.184 331.886 790.885C330.686 791.685 329.286 792.46 327.686 793.21C326.086 793.96 324.586 794.635 323.186 795.235C321.786 795.835 320.486 796.361 319.286 796.811C318.087 797.26 317.061 797.66 316.211 798.01C315.362 798.359 314.887 798.535 314.786 798.535C312.286 799.635 309.736 800.385 307.136 800.785C304.536 801.185 302.461 801.41 300.911 801.46C299.361 801.51 297.836 801.836 296.336 802.436C294.836 803.036 293.511 804.286 292.361 806.186C291.211 808.086 290.136 810.936 289.136 814.735C288.436 817.335 287.586 822.135 286.586 829.135C285.586 836.135 284.261 842.085 282.611 846.985C280.961 851.885 278.486 855.935 275.186 859.135C272.686 861.535 270.411 863.136 268.361 863.936C266.311 864.735 264.636 864.835 263.336 864.235C262.036 863.635 260.861 862.635 259.811 861.235C258.761 859.835 258.036 858.085 257.636 855.985C257.236 853.885 256.936 851.785 256.736 849.686C256.536 847.586 256.636 845.485 257.036 843.385C257.736 837.985 259.011 832.61 260.861 827.26C262.711 821.91 265.261 815.56 268.511 808.21C271.761 800.86 273.936 795.785 275.036 792.985C276.536 789.185 277.936 784.685 279.236 779.485C279.336 778.785 279.536 777.535 279.836 775.735C280.136 773.935 280.461 772.41 280.811 771.16C281.161 769.91 281.686 768.785 282.386 767.785C282.786 767.185 283.461 766.435 284.411 765.535C285.361 764.635 286.286 763.76 287.186 762.91C288.086 762.06 288.986 761.185 289.886 760.285C290.786 759.385 291.511 758.41 292.061 757.36C292.611 756.31 292.886 755.235 292.886 754.135C292.886 751.535 294.486 745.934 297.686 737.335C300.886 728.635 304.486 720.085 308.486 711.686C315.586 696.286 319.486 687.685 320.186 685.885C320.486 685.285 320.811 684.46 321.161 683.41C321.511 682.36 321.836 681.385 322.136 680.485C322.436 679.585 322.786 678.61 323.186 677.561C323.586 676.511 324.036 675.535 324.536 674.635C325.036 673.735 325.586 672.91 326.186 672.16C326.786 671.41 327.486 670.785 328.286 670.285C329.086 669.785 329.986 669.435 330.986 669.235C334.285 668.735 336.811 669.685 338.561 672.085C340.311 674.485 341.136 677.335 341.036 680.635C340.936 684.235 340.486 687.961 339.686 691.811C338.886 695.66 337.986 699.085 336.986 702.085C335.986 705.085 334.536 708.61 332.636 712.66C330.736 716.71 329.136 719.91 327.836 722.26C326.536 724.61 324.686 727.961 322.286 732.311C319.887 736.66 318.136 739.835 317.036 741.835C314.336 747.035 310.011 754.41 304.061 763.96C298.111 773.509 294.736 778.984 293.936 780.385C293.236 781.485 292.736 782.435 292.436 783.235C292.136 784.035 292.061 784.96 292.211 786.01C292.361 787.06 292.811 787.96 293.561 788.71C294.311 789.46 295.361 789.96 296.711 790.21C298.061 790.46 300.336 790.735 303.536 791.035C305.336 791.235 307.311 791.085 309.461 790.585C311.611 790.085 313.586 789.385 315.386 788.485C317.186 787.585 319.011 786.61 320.861 785.561C322.711 784.511 324.261 783.51 325.511 782.561C326.761 781.611 327.861 780.785 328.811 780.085C329.761 779.385 330.286 779.035 330.386 779.035C331.427 778.325 332.378 777.659 333.24 777.038C332.18 772.868 331.65 768.983 331.65 765.385C331.65 761.185 332.4 755.684 333.9 748.885C334 748.485 334.174 747.634 334.424 746.335C334.674 745.035 334.899 744.06 335.099 743.41C335.299 742.76 335.549 741.86 335.849 740.71C336.149 739.56 336.449 738.585 336.749 737.785C337.049 736.985 337.399 736.16 337.799 735.311C338.199 734.461 338.599 733.685 338.999 732.985C341.099 730.086 342.799 727.986 344.099 726.686C349.499 721.086 356.35 718.586 364.65 719.186C373.249 719.886 377.899 722.735 378.599 727.735C379.199 731.635 378.974 735.661 377.924 739.811C376.874 743.96 375.575 747.385 374.025 750.085C372.475 752.785 370.324 756.285 367.574 760.585C364.824 764.885 362.85 768.185 361.65 770.485C357.25 778.785 355.049 783.735 355.049 785.335C355.049 786.635 356.299 788.485 358.799 790.885C360.399 792.385 361.824 793.285 363.074 793.585C364.324 793.885 366.6 793.735 369.9 793.135C375.099 792.435 380.749 791.185 386.849 789.385C389.149 788.585 392.5 787.235 396.9 785.335C397.01 785.287 397.119 785.238 397.227 785.191C398.243 782.47 399.843 779.018 402.029 774.835C403.029 772.735 404.003 769.66 404.953 765.61C405.903 761.56 406.829 758.685 407.729 756.985C411.029 749.885 414.629 744.835 418.529 741.835C419.428 741.135 420.378 740.51 421.378 739.96C422.378 739.41 423.403 739.06 424.453 738.91C425.503 738.76 426.204 739.085 426.554 739.885C426.904 740.685 426.879 742.036 426.479 743.936C425.579 747.035 425.929 748.435 427.529 748.135C428.729 748.035 430.129 746.685 431.729 744.085C434.029 740.585 436.728 737.735 439.828 735.535C441.028 734.735 442.028 734.135 442.828 733.735C443.828 733.335 444.479 733.085 444.779 732.985C445.278 732.685 445.978 732.586 446.878 732.686C447.778 732.786 448.428 732.885 448.828 732.985C449.228 732.985 450.029 733.185 451.229 733.585C452.529 733.985 453.529 734.235 454.229 734.335C457.029 734.935 458.429 735.735 458.429 736.735C458.629 736.936 458.778 738.437 458.878 741.235C459.078 742.535 459.328 743.485 459.628 744.085C459.928 744.685 460.529 744.96 461.429 744.91C462.329 744.86 463.429 744.51 464.729 743.86C466.029 743.21 467.978 742.035 470.578 740.335C476.578 736.535 481.729 734.335 486.029 733.735C489.228 733.435 491.228 733.51 492.029 733.96C492.829 734.41 493.678 735.585 494.578 737.485C495.778 740.585 496.028 744.535 495.328 749.335C494.628 754.135 493.329 758.635 491.429 762.835C489.229 767.035 488.128 770.236 488.128 772.436C488.128 774.235 487.579 776.885 486.479 780.385C485.379 783.385 485.553 786.185 487.003 788.785C488.453 791.385 490.728 792.985 493.828 793.585C495.628 793.885 497.978 793.735 500.878 793.135C501.678 792.935 506.529 790.935 515.429 787.135C515.453 787.12 516.378 786.57 518.203 785.485C520.053 784.385 522.053 783.21 524.203 781.96C526.353 780.71 528.478 779.435 530.578 778.135C532.154 777.16 533.335 776.381 534.122 775.8C534.126 775.778 534.129 775.757 534.133 775.735C534.433 773.935 534.758 772.41 535.108 771.16C535.458 769.91 535.983 768.785 536.683 767.785C537.083 767.185 537.758 766.435 538.708 765.535C539.658 764.635 540.583 763.76 541.483 762.91C542.383 762.06 543.283 761.185 544.183 760.285C545.083 759.385 545.808 758.41 546.358 757.36C546.908 756.31 547.183 755.235 547.183 754.135C547.183 751.535 548.783 745.934 551.983 737.335C555.183 728.635 558.783 720.085 562.782 711.686C569.882 696.286 573.783 687.685 574.483 685.885C574.783 685.285 575.108 684.46 575.458 683.41C575.808 682.36 576.133 681.385 576.433 680.485C576.733 679.585 577.083 678.61 577.483 677.561C577.883 676.511 578.333 675.535 578.833 674.635C579.333 673.735 579.883 672.91 580.483 672.16C581.083 671.41 581.783 670.785 582.583 670.285C583.383 669.785 584.283 669.435 585.282 669.235C588.582 668.735 591.108 669.685 592.858 672.085C594.608 674.485 595.433 677.335 595.333 680.635C595.233 684.235 594.783 687.961 593.983 691.811C593.183 695.66 592.282 699.085 591.282 702.085C590.282 705.085 588.833 708.61 586.933 712.66C585.033 716.71 583.433 719.91 582.133 722.26C580.833 724.61 578.983 727.961 576.583 732.311C574.183 736.66 572.433 739.835 571.333 741.835C568.633 747.035 564.308 754.41 558.358 763.96C552.408 773.509 549.033 778.984 548.233 780.385C547.533 781.485 547.033 782.435 546.733 783.235C546.433 784.035 546.358 784.96 546.508 786.01C546.658 787.06 547.108 787.96 547.858 788.71C548.608 789.46 549.658 789.96 551.008 790.21C552.358 790.46 554.633 790.735 557.833 791.035C559.633 791.235 561.608 791.085 563.758 790.585C565.908 790.085 567.883 789.385 569.683 788.485C571.483 787.585 573.308 786.61 575.157 785.561C577.007 784.511 578.558 783.51 579.808 782.561C581.058 781.611 582.158 780.785 583.108 780.085C584.058 779.385 584.583 779.035 584.683 779.035C586.652 777.693 588.3 776.509 589.628 775.487C589.306 771.954 589.377 768.912 589.846 766.36C590.646 762.01 592.847 756.935 596.447 751.135C601.046 743.735 605.396 738.385 609.496 735.085C613.596 731.785 618.646 729.435 624.646 728.035C627.546 727.435 630.096 726.385 632.296 724.885C635.796 722.585 638.896 721.735 641.596 722.335C644.196 722.835 647.196 724.885 650.596 728.485C652.396 730.485 653.696 732.085 654.496 733.285C655.296 734.485 655.846 735.635 656.146 736.735C656.446 737.835 656.596 739.435 656.596 741.535C656.596 750.435 656.896 757.335 657.496 762.235C657.796 765.135 658.471 767.36 659.521 768.91C660.571 770.46 662.396 772.335 664.996 774.535L665.447 774.235C667.246 773.035 668.546 772.085 669.346 771.385C669.73 771.091 670.104 770.823 670.468 770.581C670.215 768.689 670.088 766.658 670.088 764.485C670.088 760.385 670.338 756.71 670.838 753.46C671.338 750.21 671.963 746.21 672.713 741.46C673.463 736.71 673.888 732.635 673.988 729.235C674.088 727.935 674.213 726.585 674.363 725.186C674.513 723.786 674.663 722.51 674.813 721.36C674.963 720.21 675.188 718.835 675.488 717.235C675.788 715.635 676.013 714.385 676.163 713.485C676.313 712.585 676.638 711.26 677.138 709.51C677.638 707.76 677.963 706.535 678.113 705.835C678.263 705.135 678.613 703.81 679.163 701.86C679.713 699.911 680.063 698.686 680.213 698.186C680.363 697.686 680.763 696.36 681.413 694.21C682.063 692.06 682.438 690.785 682.538 690.385C683.638 686.685 684.588 683.985 685.388 682.285C686.288 680.485 687.513 678.71 689.063 676.96C690.613 675.21 692.013 673.785 693.263 672.686C694.513 671.586 696.188 670.185 698.288 668.485C699.088 667.885 700.463 666.785 702.413 665.186C704.363 663.586 705.788 662.461 706.688 661.811C707.588 661.161 708.813 660.26 710.363 659.11C711.912 657.96 713.413 656.96 714.863 656.11C716.313 655.26 717.888 654.435 719.588 653.635ZM276.236 818.936C275.636 818.336 274.936 818.385 274.136 819.085C273.736 819.485 273.436 820.186 273.236 821.186C273.136 821.286 273.036 821.485 272.936 821.785C270.436 830.385 270.186 835.885 272.186 838.285C274.486 834.085 275.986 828.285 276.686 820.885C276.786 819.985 276.636 819.335 276.236 818.936ZM530.532 818.936C529.933 818.336 529.233 818.385 528.433 819.085C528.033 819.485 527.732 820.186 527.532 821.186C527.433 821.286 527.333 821.485 527.233 821.785C524.733 830.385 524.483 835.885 526.483 838.285C528.783 834.085 530.283 828.285 530.983 820.885C531.083 819.985 530.932 819.335 530.532 818.936ZM622.846 739.585C622.446 739.585 622.096 739.685 621.796 739.885C620.796 740.385 618.746 742.236 615.646 745.436C612.946 748.135 610.421 751.585 608.072 755.785C605.722 759.985 603.996 763.935 602.896 767.635C601.796 771.135 601.596 773.685 602.296 775.285C603.096 776.785 603.546 779.336 603.646 782.936C603.946 785.635 604.346 787.636 604.846 788.936C605.346 790.035 606.096 790.786 607.096 791.186C608.196 791.686 609.996 791.936 612.496 791.936C613.696 791.936 614.696 791.885 615.496 791.785C616.296 791.785 617.046 791.685 617.746 791.485C618.446 791.285 619.097 791.035 619.697 790.735C620.396 790.335 621.096 789.885 621.796 789.385C622.496 788.885 623.346 788.235 624.346 787.436C628.146 784.436 630.296 782.035 630.796 780.235C631.396 778.335 632.596 776.335 634.396 774.235C635.996 772.535 637.046 769.985 637.546 766.585C637.946 764.285 637.896 762.635 637.396 761.635C636.996 760.635 635.745 759.085 633.646 756.985C630.346 753.785 628.697 751.135 628.697 749.035C628.697 747.635 628.246 745.985 627.346 744.085C626.446 742.185 625.546 740.935 624.646 740.335C623.946 739.835 623.346 739.585 622.846 739.585ZM357.224 741.16C355.174 740.61 353.549 741.085 352.349 742.585C351.349 743.785 350.349 745.585 349.349 747.985C348.349 750.385 347.549 752.835 346.949 755.335C346.449 757.835 345.999 760.235 345.599 762.535C345.199 764.835 345.099 766.761 345.299 768.311C345.499 769.86 345.999 770.635 346.799 770.635C347.699 770.635 350.199 766.735 354.299 758.936C358.299 751.136 360.299 746.435 360.299 744.835C360.299 742.935 359.274 741.71 357.224 741.16ZM771.315 749.936C770.515 748.036 769.314 747.235 767.714 747.535C766.114 747.835 764.364 749.136 762.464 751.436C759.565 755.235 758.865 757.76 760.365 759.01C761.865 760.26 764.415 759.385 768.015 756.385C770.814 753.885 771.914 751.735 771.315 749.936ZM640.697 737.035C640.497 737.235 640.296 737.485 640.096 737.785C639.596 738.685 639.646 740.736 640.246 743.936C640.646 746.235 641.047 747.685 641.447 748.285C641.746 747.485 641.896 745.885 641.896 743.485C641.896 739.586 641.496 737.436 640.697 737.035ZM714.038 682.135C714.038 679.235 712.738 678.935 710.138 681.235C708.438 682.535 706.788 684.585 705.188 687.385C702.688 691.985 700.338 695.685 698.138 698.485C696.138 701.085 695.138 703.535 695.138 705.835C695.138 708.035 694.388 709.835 692.888 711.235C691.788 712.235 690.513 715.636 689.063 721.436C687.613 727.235 687.338 730.585 688.238 731.485C688.738 731.885 689.563 731.46 690.713 730.21C691.863 728.96 693.263 727.01 694.913 724.36C696.563 721.71 698.188 718.535 699.788 714.835C703.088 708.235 704.738 704.635 704.738 704.035C704.738 703.735 706.288 700.334 709.388 693.835C712.488 687.435 714.038 683.535 714.038 682.135Z" fill="#FF00FF"/>
</svg>
