<svg width="100" height="100" viewBox="0 0 100 100" fill="none" xmlns="http://www.w3.org/2000/svg">
<rect width="100" height="100" fill="#E4ECDE"/>
<path d="M69.8146 79.495C69.1179 79.7816 67.7879 80.1156 66.8661 80.2354C66.043 80.3423 64.6083 80.3774 64.1521 80.3018L63.8816 80.257L63.0238 78.861C61.9203 77.0652 60.0621 73.5158 58.8382 70.8657L58.4262 69.9735L59.0485 69.6697C59.3908 69.5026 60.4282 69.0051 61.3539 68.5642C63.9076 67.3478 64.9306 66.809 65.8709 66.1852C66.3424 65.8723 66.7995 65.5557 66.8867 65.4816C67.0338 65.3564 67.1029 65.3791 67.862 65.8025C68.834 66.3447 70.3743 67.0118 71.2984 67.2909C72.1844 67.5586 72.868 68.018 73.3877 68.6952C75.2978 71.1842 74.8857 75.4188 72.505 77.7654C71.981 78.2819 70.5911 79.1754 69.8146 79.495ZM62.095 80.0617C60.9719 79.8781 59.669 79.3085 58.4633 78.474C56.8756 77.3752 55.7715 76.1614 54.9464 74.6079C54.6711 74.0894 54.3953 73.4909 54.3336 73.2779L54.2214 72.8905L54.6603 72.4938C55.3821 71.8414 55.9044 71.457 56.6947 70.9965L57.4439 70.56L57.6968 71.0959C57.8359 71.3907 58.1169 71.9906 58.3213 72.4292C59.453 74.8577 61.7849 78.9104 62.5963 79.8589C62.7206 80.0042 62.8034 80.133 62.7804 80.1451C62.7573 80.1571 62.4489 80.1196 62.095 80.0617ZM75.6098 66.4002C74.9697 66.6269 74.2414 66.7943 73.5826 66.866C72.5051 66.9833 70.718 66.7079 69.5058 66.2379C68.7426 65.9419 67.8201 65.5098 67.8349 65.4553C67.8401 65.4359 67.9862 65.1926 68.1595 64.9146C69.1075 63.3937 69.9567 61.0997 70.8236 57.7177C71.6702 54.4148 72.0546 51.8321 72.0999 49.1425L72.1083 48.6441L72.8646 49.1162C74.3698 50.0557 75.3974 50.9496 76.621 52.3837C77.1432 52.9958 77.3743 53.3375 77.9898 54.408C78.6462 55.5497 78.7658 55.8042 79.0428 56.649C80.1527 60.0352 79.6882 63.2709 77.8416 65.0172C77.2833 65.5451 76.2953 66.1574 75.6098 66.4002ZM50.6828 76.2059C49.2166 76.6399 47.5105 76.1971 46.5309 75.1284C46.2433 74.8146 45.6128 73.7067 45.6475 73.5762C45.6574 73.5393 46.1562 73.4794 46.7561 73.4429C48.1932 73.3557 49.5121 73.1527 50.5899 72.853C51.5435 72.5878 52.7902 72.1156 53.2664 71.8392C53.4315 71.7434 53.602 71.6841 53.6453 71.7074C53.6885 71.7307 53.7322 71.9861 53.7422 72.275C53.7751 73.2253 53.2665 74.3849 52.4777 75.1582C52.0788 75.5492 51.2325 76.0432 50.6828 76.2059ZM40.6952 81.593C40.0662 81.8392 38.9659 82.0112 38.0956 81.9994C36.2897 81.9749 34.2119 81.0463 32.8726 79.6651C31.2839 78.0267 30.3681 75.6747 30.5551 73.7129C30.6535 72.6798 31.1854 71.2893 31.7559 70.5738C32.0085 70.2569 32.9265 69.2875 33.0341 69.224C33.1012 69.1844 33.3848 69.3355 33.8441 69.6558C37.3844 72.1243 38.5361 72.7705 40.2016 73.2234C41.7 73.6308 43.6211 73.6972 44.9797 73.3886L45.3888 73.2956L45.3602 74.0867C45.2689 76.6207 44.4687 78.6401 42.9752 80.1059C42.4356 80.6355 41.3763 81.3265 40.6952 81.593ZM66.7424 64.7892C66.6644 64.7255 66.4237 64.5381 66.2077 64.3728C65.334 63.7044 65.1516 63.4893 64.5055 62.3658C63.9629 61.422 63.877 61.2288 63.7034 60.559C63.5964 60.1465 63.4523 59.4373 63.383 58.9832C62.9384 56.0666 63.5825 52.5382 64.9398 50.4553C65.6757 49.3262 66.9376 48.3507 68.0553 48.0471C68.7639 47.8546 69.8314 47.8046 70.453 47.9349L70.9894 48.0473L70.9963 48.8727C71.0216 51.8875 70.5962 54.766 69.5448 58.6924C68.6869 61.8966 68.0797 63.5079 67.3916 64.4066C67.0437 64.8609 66.9199 64.9339 66.7424 64.7892ZM64.0443 66.1391C63.5894 66.3712 61.3636 67.4477 60.1994 67.9986C59.7821 68.1961 59.1102 68.5227 58.7063 68.7244L57.972 69.0912L57.8295 68.764C57.7512 68.5841 57.3447 67.7041 56.9261 66.8085C56.5075 65.9129 56.1413 65.1065 56.1124 65.0164C56.0411 64.7948 56.2979 64.5734 57.283 64.0073C59.0988 62.9637 61.4704 62.6686 63.5579 63.2265C64.3177 63.4295 65.0622 63.8166 65.8675 64.4272L66.4021 64.8325L65.4267 65.382C64.8903 65.6841 64.2681 66.0248 64.0443 66.1391ZM53.9512 71.7722C53.7826 71.0356 53.6384 70.0344 53.6314 69.5519C53.6206 68.8078 53.8812 67.7089 54.2238 67.0534C54.4903 66.5437 55.2129 65.5518 55.3006 65.5753C55.3253 65.582 55.5716 66.1455 55.8477 66.8277C56.1238 67.5098 56.5046 68.424 56.6938 68.8592L57.038 69.6504L56.6066 69.9034C56.0361 70.2381 54.851 71.1392 54.4475 71.5451C54.0268 71.9683 53.999 71.9811 53.9512 71.7722ZM52.963 71.2094C51.283 71.8374 49.774 72.2371 47.9738 72.5311C47.1692 72.6625 45.6585 72.8511 45.5796 72.83C45.4824 72.804 45.4967 71.8884 45.6014 71.4348C45.9162 70.0712 46.9272 69.0229 48.3124 68.624C50.0437 68.1254 51.696 68.4233 52.6666 69.4091C53.0025 69.7503 53.403 70.3961 53.4914 70.7392C53.549 70.9626 53.4952 71.0105 52.963 71.2094ZM44.2923 72.6184C42.404 72.921 40.7522 72.6558 38.9407 71.7591C38.616 71.5984 37.5898 70.957 36.6602 70.3338C35.7305 69.7105 34.6999 69.0485 34.3699 68.8626C33.6704 68.4686 33.6715 68.4463 34.4077 68.106C36.1704 67.2912 40.1037 67.5482 42.4305 68.6302C43.8886 69.3083 44.7785 70.3458 45.1494 71.8002C45.305 72.41 45.2469 72.4654 44.2923 72.6184ZM76.2158 49.9408C75.7244 50.0497 75.2125 50.0537 74.8414 49.9516C74.6533 49.8998 74.0398 49.5525 73.478 49.1798C72.9163 48.8072 72.099 48.3232 71.6619 48.1045C70.7206 47.6333 70.4461 47.3864 70.1141 46.7123C69.803 46.0805 69.7393 45.3055 69.9606 44.8454C70.1376 44.4774 70.2819 44.3648 70.31 44.573C70.4531 45.6329 71.2011 47.1045 71.8225 47.5483C72.1759 47.8008 72.1606 47.6353 71.7412 46.6713C71.2716 45.5918 70.7667 44.0473 70.8117 43.8279C70.8429 43.6762 71.8879 43.1414 72.5283 42.9493C75.1033 42.1773 78.0002 42.4486 79.2677 43.5805C80.3812 44.5749 80.2145 46.294 78.8386 48.0052C78.0848 48.9427 76.954 49.7772 76.2158 49.9408ZM29.4646 71.6869C28.8751 71.8452 28.4686 71.8457 27.7787 71.6892C25.7059 71.2189 24.4326 69.0274 24.5493 66.1313C24.6356 63.9916 25.5563 62.5159 27.2939 61.7322C27.6597 61.5672 27.9731 61.436 27.9904 61.4407C28.0077 61.4453 28.1827 61.8468 28.3794 62.3328C28.9286 63.6904 30.553 66.4666 31.5301 67.7175C31.9336 68.2343 32.3601 68.7597 32.4776 68.8852C32.5952 69.0107 32.6815 69.1442 32.6694 69.1818C32.6348 69.2886 31.5373 70.4215 31.1483 70.7519C30.6753 71.1536 29.9491 71.5569 29.4646 71.6869ZM32.7609 67.9923C32.1635 67.1914 29.8778 63.3858 29.2824 62.2007C28.9632 61.5655 28.8742 61.3311 28.9381 61.294C28.9854 61.2666 29.4168 61.2203 29.8967 61.1912C31.5796 61.0892 33.1371 61.7217 34.0206 62.866C35.3257 64.5563 35.067 66.9052 33.3989 68.5112L33.2528 68.6518L32.7609 67.9923ZM67.9992 45.5841C67.2956 45.6192 66.7628 45.3812 65.9833 44.6837C64.8538 43.6729 63.6093 42.0772 62.8379 40.6506C62.3916 39.8252 62.3452 39.7026 62.315 39.2671C62.2872 38.8656 62.4096 38.3454 62.5232 38.3826C62.6675 38.4298 63.7118 39.1806 64.4479 39.7665C66.135 41.1092 69.6188 44.4853 69.557 44.7175C69.5421 44.7736 69.2616 44.9877 68.9337 45.1933C68.4341 45.5065 68.2825 45.5699 67.9992 45.5841ZM69.8418 43.4321C69.5773 43.1877 69.2242 42.849 69.057 42.6796C67.1323 40.7285 65.3346 39.191 63.9102 38.2777L63.0894 37.7514L63.5699 37.5168C64.2502 37.1846 65.1165 37.137 66.0301 37.3817C67.2105 37.6979 69.3942 38.8636 70.1427 39.5771C71.201 40.5859 71.3683 42.2625 70.5383 43.5435L70.3226 43.8765L69.8418 43.4321ZM30.4235 60.5977C29.8738 60.8436 28.8091 61.0913 28.7729 60.9817C28.7613 60.9465 28.7494 60.4236 28.7465 59.8197C28.7382 58.1018 28.5296 55.3457 28.2422 53.156C27.9205 50.7054 27.844 49.8559 27.8363 48.6471C27.8274 47.2699 27.7997 47.3598 28.2394 47.3391C29.1845 47.2947 30.8762 47.5644 31.7294 47.8954C34.288 48.8882 35.2869 51.2282 34.5661 54.5402C33.8969 57.615 32.4889 59.6738 30.4235 60.5977ZM27.3647 61.0235C26.4164 60.9585 25.2131 60.3693 24.437 59.59C23.9601 59.1111 23.1596 57.7362 22.8845 56.9235C22.2199 54.9604 22.1398 53.0148 22.6471 51.1595C22.9213 50.1568 23.1999 49.5812 23.6875 49.0102C24.0758 48.5555 24.8191 47.9866 25.3086 47.7694C25.7382 47.5788 26.7779 47.2996 26.8711 47.3498C26.9043 47.3677 26.907 47.7464 26.8771 48.1914C26.8008 49.3271 26.883 50.6377 27.1827 53.0637C27.6761 57.0582 27.7209 57.4728 27.8484 59.2178C27.9189 60.1822 27.9438 60.9902 27.9039 61.0133C27.864 61.0365 27.6214 61.0411 27.3647 61.0235ZM59.4036 40.2592C57.2901 41.1269 54.7254 40.7845 53.2437 39.4367C52.7051 38.9468 52.1089 38.0145 51.929 37.3809C51.6364 36.3505 51.713 35.206 52.1232 34.481C52.4746 33.86 52.8925 33.4745 53.7607 32.9706L54.553 32.5108L54.9095 32.6176C55.4486 32.7791 56.6386 33.473 57.3413 34.0357C57.6857 34.3115 58.4598 35.0096 59.0615 35.5871C60.3758 36.8484 61.0646 37.4453 61.7084 37.881C61.9735 38.0603 62.1766 38.233 62.1596 38.2646C62.1427 38.2962 61.869 38.5524 61.5513 38.8338C60.8294 39.4735 60.038 39.9988 59.4036 40.2592ZM62.0017 37.0627C60.9986 36.2517 60.8856 36.1515 59.4636 34.8113C57.8281 33.2699 56.8483 32.5334 55.8605 32.1031C55.7193 32.0416 55.6103 31.9664 55.6184 31.9361C55.646 31.8325 56.6711 31.4604 57.2203 31.3545C58.0116 31.2021 58.6491 31.2374 59.4527 31.4784C60.3271 31.7406 60.8853 32.05 61.5654 32.6491C62.8991 33.8241 63.4245 35.3359 63.0171 36.8257C62.9186 37.1856 62.7962 37.5044 62.745 37.5342C62.6876 37.5675 62.402 37.3863 62.0017 37.0627ZM39.8841 46.0936C37.4897 47.0553 34.6173 47.4814 31.7549 47.2994C30.5902 47.2254 28.4908 47.0229 28.4042 46.9763C28.2714 46.9048 28.4385 45.6987 28.7357 44.5834C29.0365 43.4546 29.597 42.1893 30.3066 41.0374L30.6527 40.4754L31.1537 41.0015C32.196 42.0958 34.232 43.7945 35.2492 44.4185C35.9688 44.8599 36.5457 45.1353 36.5235 45.0269C36.4921 44.8738 35.3592 43.7513 33.6192 42.1493C32.631 41.2394 31.4909 40.0676 31.3475 39.8143C31.2616 39.6624 31.3222 39.5514 31.9984 38.6209C34.5777 35.0721 37.3932 32.4123 39.6883 31.3564C40.0988 31.1676 40.4461 31.0167 40.4602 31.0212C40.4742 31.0257 40.9117 31.456 41.4324 31.9774C44.0031 34.5514 45.0245 36.1759 45.3377 38.1886C45.6499 40.1955 44.8498 42.3679 43.1979 43.9983C42.499 44.6879 40.9586 45.662 39.8841 46.0936ZM52.9684 33.0768C52.2356 33.3642 51.5403 33.5361 50.7078 33.6357C48.1518 33.9415 44.8649 33.4432 42.8681 32.447C42.1417 32.0847 41.1262 31.4191 41.152 31.3223C41.1701 31.2545 42.4499 30.9274 43.1838 30.8031C45.7252 30.3728 48.5662 30.5559 51.1328 31.3155C52.1097 31.6046 53.9937 32.3423 54.0633 32.463C54.0991 32.5251 53.4563 32.8855 52.9684 33.0768ZM54.7513 31.7179C49.9883 29.4459 45.5672 28.9786 40.9377 30.258L40.2939 30.4359L40.0087 30.117C39.064 29.0606 38.469 27.2689 38.5625 25.7627C38.6743 23.963 39.4614 22.4177 41.0551 20.8689C41.5306 20.4068 41.7352 20.2653 42.9067 19.588C44.0133 18.9482 44.3442 18.7877 44.9781 18.5833C48.9132 17.3145 53.1753 18.1483 56.1324 20.7653C59.8201 24.029 59.5116 29.3688 55.5009 31.6965C55.1479 31.9013 55.1365 31.9017 54.7513 31.7179ZM26.3436 46.8012C24.6676 46.5465 22.9998 45.697 21.8938 44.5347C21.4369 44.0545 20.6258 42.684 20.426 42.0544C19.6724 39.6799 19.9227 37.1419 21.1451 34.7636C21.4388 34.1922 22.2706 32.9239 22.4015 32.848C22.5018 32.7898 24.8495 34.3868 25.6771 35.0763C27.0375 36.2094 29.1018 38.3747 29.6247 39.217L29.8447 39.5714L29.5024 40.1198C28.3552 41.9575 27.6944 43.8445 27.299 46.4118C27.26 46.6645 27.2084 46.8828 27.1843 46.8968C27.1601 46.9108 26.7818 46.8678 26.3436 46.8012ZM29.6385 37.6542C27.7405 35.3366 25.6523 33.4708 23.7479 32.3912C23.3827 32.1842 23.1005 31.9836 23.1209 31.9455C23.23 31.7418 24.9687 30.1273 25.5323 29.7066C26.9838 28.6228 29.0617 27.6564 30.635 27.3334C33.2257 26.8015 35.9472 27.2586 37.8612 28.547C38.3734 28.8917 39.3384 29.7239 39.6829 30.1179C39.8464 30.305 39.8457 30.3165 39.6678 30.3554C39.1943 30.4587 38.8926 30.5831 38.0434 31.025C36.5833 31.7849 35.0393 33.04 33.5688 34.6627C32.5547 35.7818 31.2329 37.4748 30.4805 38.6184C30.4677 38.638 30.0887 38.2041 29.6385 37.6542Z" fill="#042B08"/>
</svg>
