<svg width="100" height="100" viewBox="0 0 100 100" fill="none" xmlns="http://www.w3.org/2000/svg">
<rect width="100" height="100" fill="#FAFCFF"/>
<path d="M62.2383 55.3291C62.2383 50.4239 66.214 46.4482 71.1191 46.4482C76.0242 46.4482 79.9999 50.4239 79.9999 55.3291C79.9999 60.2342 76.0242 64.2099 71.1191 64.2099C66.214 64.2099 62.2383 60.2342 62.2383 55.3291Z" fill="#E03838"/>
<path d="M60.4864 55.3288C60.4864 53.7142 60.8436 52.1551 61.5219 50.741C61.99 49.7648 62.2392 48.6981 62.2392 47.6159V36.9589C62.2382 36.3136 61.7156 35.791 61.0703 35.791H45.6445C44.9992 35.791 44.4766 36.3136 44.4766 36.9589V43.0971C44.4766 44.6096 44.8746 46.0957 45.6308 47.4057L54.6031 62.9454C55.0547 63.7279 55.8898 64.2097 56.7929 64.2097H61.0703C61.7156 64.2097 62.2382 63.687 62.2382 63.0418C62.2382 61.9595 61.9891 60.8929 61.5209 59.9167C60.8436 58.5026 60.4854 56.9434 60.4854 55.3288H60.4864Z" fill="#F2C94C"/>
<path d="M35.2173 36.375L20.1583 62.4578C19.7087 63.2364 20.2702 64.2097 21.1695 64.2097H51.2874C52.1867 64.2097 52.7483 63.2364 52.2986 62.4578L37.2397 36.375C36.79 35.5964 35.6659 35.5964 35.2173 36.375Z" fill="#385AE0"/>
</svg>
